<svg width="363" height="369" viewBox="0 0 363 369" fill="none" xmlns="http://www.w3.org/2000/svg">
<g opacity="0.35">
<path d="M3.56509 7.14192C1.59616 7.14192 3.02753e-05 5.54314 3.03615e-05 3.57095C3.04477e-05 1.59876 1.59616 -1.77645e-05 3.56509 -1.76784e-05C5.534 -1.75923e-05 7.13013 1.59876 7.13013 3.57095C7.13013 5.54314 5.534 7.14192 3.56509 7.14192Z" fill="#6ADAFD"/>
<path d="M22.5787 7.14192C20.6098 7.14192 19.0136 5.54314 19.0136 3.57095C19.0136 1.59876 20.6098 -1.69334e-05 22.5787 -1.68473e-05C24.5476 -1.67612e-05 26.1437 1.59876 26.1437 3.57095C26.1437 5.54314 24.5476 7.14192 22.5787 7.14192Z" fill="#6ADAFD"/>
<path d="M41.5923 7.14192C39.6234 7.14192 38.0272 5.54314 38.0272 3.57095C38.0272 1.59876 39.6234 -1.61023e-05 41.5923 -1.60162e-05C43.5612 -1.59301e-05 45.1573 1.59876 45.1573 3.57095C45.1573 5.54314 43.5612 7.14192 41.5923 7.14192Z" fill="#6ADAFD"/>
<path d="M60.6059 7.14192C58.6369 7.14192 57.0408 5.54314 57.0408 3.57095C57.0408 1.59876 58.6369 -1.52711e-05 60.6059 -1.51851e-05C62.5748 -1.5099e-05 64.1709 1.59876 64.1709 3.57095C64.1709 5.54314 62.5748 7.14192 60.6059 7.14192Z" fill="#6ADAFD"/>
<path d="M79.6194 7.14192C77.6505 7.14192 76.0544 5.54314 76.0544 3.57095C76.0544 1.59876 77.6505 -1.444e-05 79.6194 -1.4354e-05C81.5884 -1.42679e-05 83.1845 1.59876 83.1845 3.57095C83.1845 5.54315 81.5884 7.14192 79.6194 7.14192Z" fill="#6ADAFD"/>
<path d="M98.633 7.14192C96.6641 7.14192 95.068 5.54315 95.068 3.57095C95.068 1.59876 96.6641 -1.36089e-05 98.633 -1.35229e-05C100.602 -1.34368e-05 102.198 1.59876 102.198 3.57095C102.198 5.54315 100.602 7.14192 98.633 7.14192Z" fill="#6ADAFD"/>
<path d="M117.647 7.14192C115.678 7.14192 114.082 5.54315 114.082 3.57096C114.082 1.59876 115.678 -1.27778e-05 117.647 -1.26917e-05C119.616 -1.26057e-05 121.212 1.59876 121.212 3.57096C121.212 5.54315 119.616 7.14192 117.647 7.14192Z" fill="#6ADAFD"/>
<path d="M136.66 7.14192C134.691 7.14192 133.095 5.54315 133.095 3.57096C133.095 1.59876 134.691 -1.19467e-05 136.66 -1.18606e-05C138.629 -1.17746e-05 140.225 1.59877 140.225 3.57096C140.225 5.54315 138.629 7.14192 136.66 7.14192Z" fill="#6ADAFD"/>
<path d="M155.674 7.14193C153.705 7.14193 152.109 5.54315 152.109 3.57096C152.109 1.59877 153.705 -1.11156e-05 155.674 -1.10295e-05C157.643 -1.09435e-05 159.239 1.59877 159.239 3.57096C159.239 5.54315 157.643 7.14193 155.674 7.14193Z" fill="#6ADAFD"/>
<path d="M174.687 7.14193C172.718 7.14193 171.122 5.54315 171.122 3.57096C171.122 1.59877 172.718 -1.02845e-05 174.687 -1.01984e-05C176.656 -1.01124e-05 178.252 1.59877 178.252 3.57096C178.252 5.54315 176.656 7.14193 174.687 7.14193Z" fill="#6ADAFD"/>
<path d="M193.701 7.14193C191.732 7.14193 190.136 5.54315 190.136 3.57096C190.136 1.59877 191.732 -9.45337e-06 193.701 -9.36731e-06C195.67 -9.28124e-06 197.266 1.59877 197.266 3.57096C197.266 5.54315 195.67 7.14193 193.701 7.14193Z" fill="#6ADAFD"/>
<path d="M14.6563 26.1871C12.6874 26.1871 11.0913 24.5883 11.0913 22.6161C11.0913 20.6439 12.6874 19.0451 14.6563 19.0451C16.6253 19.0451 18.2214 20.6439 18.2214 22.6161C18.2214 24.5883 16.6253 26.1871 14.6563 26.1871Z" fill="#6ADAFD"/>
<path d="M33.67 26.1871C31.701 26.1871 30.1049 24.5883 30.1049 22.6161C30.1049 20.6439 31.701 19.0451 33.67 19.0451C35.6389 19.0451 37.235 20.6439 37.235 22.6161C37.235 24.5883 35.6389 26.1871 33.67 26.1871Z" fill="#6ADAFD"/>
<path d="M52.6835 26.1871C50.7146 26.1871 49.1185 24.5883 49.1185 22.6161C49.1185 20.6439 50.7146 19.0451 52.6835 19.0451C54.6525 19.0451 56.2486 20.6439 56.2486 22.6161C56.2486 24.5883 54.6525 26.1871 52.6835 26.1871Z" fill="#6ADAFD"/>
<path d="M71.6971 26.1871C69.7282 26.1871 68.1321 24.5883 68.1321 22.6161C68.1321 20.6439 69.7282 19.0451 71.6971 19.0451C73.666 19.0451 75.2622 20.6439 75.2622 22.6161C75.2622 24.5883 73.666 26.1871 71.6971 26.1871Z" fill="#6ADAFD"/>
<path d="M90.7107 26.1871C88.7418 26.1871 87.1457 24.5883 87.1457 22.6161C87.1457 20.6439 88.7418 19.0451 90.7107 19.0451C92.6796 19.0451 94.2758 20.6439 94.2758 22.6161C94.2758 24.5883 92.6796 26.1871 90.7107 26.1871Z" fill="#6ADAFD"/>
<path d="M109.724 26.1871C107.755 26.1871 106.159 24.5883 106.159 22.6161C106.159 20.6439 107.755 19.0451 109.724 19.0451C111.693 19.0451 113.289 20.6439 113.289 22.6161C113.289 24.5883 111.693 26.1871 109.724 26.1871Z" fill="#6ADAFD"/>
<path d="M128.738 26.1871C126.769 26.1871 125.173 24.5883 125.173 22.6161C125.173 20.6439 126.769 19.0451 128.738 19.0451C130.707 19.0452 132.303 20.6439 132.303 22.6161C132.303 24.5883 130.707 26.1871 128.738 26.1871Z" fill="#6ADAFD"/>
<path d="M147.751 26.1871C145.783 26.1871 144.186 24.5883 144.186 22.6161C144.186 20.6439 145.783 19.0452 147.751 19.0452C149.72 19.0452 151.317 20.6439 151.317 22.6161C151.317 24.5883 149.72 26.1871 147.751 26.1871Z" fill="#6ADAFD"/>
<path d="M166.765 26.1871C164.796 26.1871 163.2 24.5883 163.2 22.6161C163.2 20.6439 164.796 19.0452 166.765 19.0452C168.734 19.0452 170.33 20.6439 170.33 22.6161C170.33 24.5883 168.734 26.1871 166.765 26.1871Z" fill="#6ADAFD"/>
<path d="M185.779 26.1871C183.81 26.1871 182.214 24.5883 182.214 22.6161C182.214 20.6439 183.81 19.0452 185.779 19.0452C187.748 19.0452 189.344 20.6439 189.344 22.6161C189.344 24.5883 187.748 26.1871 185.779 26.1871Z" fill="#6ADAFD"/>
<path d="M204.792 26.1871C202.823 26.1871 201.227 24.5883 201.227 22.6161C201.227 20.6439 202.823 19.0452 204.792 19.0452C206.761 19.0452 208.357 20.6439 208.357 22.6161C208.357 24.5883 206.761 26.1871 204.792 26.1871Z" fill="#6ADAFD"/>
<path d="M25.7476 45.2322C23.7787 45.2322 22.1826 43.6335 22.1826 41.6613C22.1826 39.6891 23.7787 38.0903 25.7476 38.0903C27.7165 38.0903 29.3127 39.6891 29.3127 41.6613C29.3127 43.6335 27.7165 45.2322 25.7476 45.2322Z" fill="#6ADAFD"/>
<path d="M44.7612 45.2322C42.7923 45.2322 41.1962 43.6335 41.1962 41.6613C41.1962 39.6891 42.7923 38.0903 44.7612 38.0903C46.7301 38.0903 48.3263 39.6891 48.3263 41.6613C48.3263 43.6335 46.7301 45.2322 44.7612 45.2322Z" fill="#6ADAFD"/>
<path d="M63.7748 45.2322C61.8059 45.2322 60.2097 43.6335 60.2097 41.6613C60.2097 39.6891 61.8059 38.0903 63.7748 38.0903C65.7437 38.0903 67.3398 39.6891 67.3398 41.6613C67.3398 43.6335 65.7437 45.2322 63.7748 45.2322Z" fill="#6ADAFD"/>
<path d="M82.7884 45.2322C80.8195 45.2322 79.2233 43.6335 79.2233 41.6613C79.2233 39.6891 80.8195 38.0903 82.7884 38.0903C84.7573 38.0903 86.3534 39.6891 86.3534 41.6613C86.3534 43.6335 84.7573 45.2322 82.7884 45.2322Z" fill="#6ADAFD"/>
<path d="M101.802 45.2322C99.833 45.2322 98.2369 43.6335 98.2369 41.6613C98.2369 39.6891 99.833 38.0903 101.802 38.0903C103.771 38.0903 105.367 39.6891 105.367 41.6613C105.367 43.6335 103.771 45.2322 101.802 45.2322Z" fill="#6ADAFD"/>
<path d="M120.816 45.2322C118.847 45.2322 117.251 43.6335 117.251 41.6613C117.251 39.6891 118.847 38.0903 120.816 38.0903C122.784 38.0903 124.381 39.6891 124.381 41.6613C124.381 43.6335 122.784 45.2322 120.816 45.2322Z" fill="#6ADAFD"/>
<path d="M139.829 45.2322C137.86 45.2322 136.264 43.6335 136.264 41.6613C136.264 39.6891 137.86 38.0903 139.829 38.0903C141.798 38.0903 143.394 39.6891 143.394 41.6613C143.394 43.6335 141.798 45.2323 139.829 45.2322Z" fill="#6ADAFD"/>
<path d="M158.843 45.2323C156.874 45.2323 155.278 43.6335 155.278 41.6613C155.278 39.6891 156.874 38.0903 158.843 38.0903C160.812 38.0903 162.408 39.6891 162.408 41.6613C162.408 43.6335 160.812 45.2323 158.843 45.2323Z" fill="#6ADAFD"/>
<path d="M177.856 45.2323C175.887 45.2323 174.291 43.6335 174.291 41.6613C174.291 39.6891 175.887 38.0903 177.856 38.0903C179.825 38.0903 181.421 39.6891 181.421 41.6613C181.421 43.6335 179.825 45.2323 177.856 45.2323Z" fill="#6ADAFD"/>
<path d="M196.87 45.2323C194.901 45.2323 193.305 43.6335 193.305 41.6613C193.305 39.6891 194.901 38.0903 196.87 38.0903C198.839 38.0903 200.435 39.6891 200.435 41.6613C200.435 43.6335 198.839 45.2323 196.87 45.2323Z" fill="#6ADAFD"/>
<path d="M215.884 45.2323C213.915 45.2323 212.318 43.6335 212.318 41.6613C212.318 39.6891 213.915 38.0903 215.884 38.0903C217.852 38.0903 219.449 39.6891 219.449 41.6613C219.449 43.6335 217.852 45.2323 215.884 45.2323Z" fill="#6ADAFD"/>
<path d="M36.8389 64.2774C34.87 64.2774 33.2738 62.6786 33.2738 60.7064C33.2738 58.7342 34.87 57.1355 36.8389 57.1355C38.8078 57.1355 40.4039 58.7342 40.4039 60.7064C40.4039 62.6786 38.8078 64.2774 36.8389 64.2774Z" fill="#6ADAFD"/>
<path d="M55.8524 64.2774C53.8835 64.2774 52.2874 62.6786 52.2874 60.7064C52.2874 58.7342 53.8835 57.1355 55.8524 57.1355C57.8214 57.1355 59.4175 58.7342 59.4175 60.7064C59.4175 62.6786 57.8214 64.2774 55.8524 64.2774Z" fill="#6ADAFD"/>
<path d="M74.8661 64.2774C72.8971 64.2774 71.301 62.6786 71.301 60.7064C71.301 58.7342 72.8971 57.1355 74.8661 57.1355C76.835 57.1355 78.4311 58.7342 78.4311 60.7064C78.4311 62.6786 76.835 64.2774 74.8661 64.2774Z" fill="#6ADAFD"/>
<path d="M93.8796 64.2774C91.9107 64.2774 90.3146 62.6786 90.3146 60.7064C90.3146 58.7343 91.9107 57.1355 93.8796 57.1355C95.8486 57.1355 97.4447 58.7343 97.4447 60.7064C97.4447 62.6786 95.8486 64.2774 93.8796 64.2774Z" fill="#6ADAFD"/>
<path d="M112.893 64.2774C110.924 64.2774 109.328 62.6786 109.328 60.7064C109.328 58.7343 110.924 57.1355 112.893 57.1355C114.862 57.1355 116.458 58.7343 116.458 60.7064C116.458 62.6786 114.862 64.2774 112.893 64.2774Z" fill="#6ADAFD"/>
<path d="M131.907 64.2774C129.938 64.2774 128.342 62.6786 128.342 60.7064C128.342 58.7343 129.938 57.1355 131.907 57.1355C133.876 57.1355 135.472 58.7343 135.472 60.7064C135.472 62.6786 133.876 64.2774 131.907 64.2774Z" fill="#6ADAFD"/>
<path d="M150.92 64.2774C148.951 64.2774 147.355 62.6786 147.355 60.7064C147.355 58.7343 148.951 57.1355 150.92 57.1355C152.889 57.1355 154.485 58.7343 154.485 60.7064C154.485 62.6786 152.889 64.2774 150.92 64.2774Z" fill="#6ADAFD"/>
<path d="M169.934 64.2774C167.965 64.2774 166.369 62.6786 166.369 60.7064C166.369 58.7343 167.965 57.1355 169.934 57.1355C171.903 57.1355 173.499 58.7343 173.499 60.7064C173.499 62.6786 171.903 64.2774 169.934 64.2774Z" fill="#6ADAFD"/>
<path d="M188.948 64.2774C186.979 64.2774 185.383 62.6786 185.383 60.7064C185.383 58.7343 186.979 57.1355 188.948 57.1355C190.917 57.1355 192.513 58.7343 192.513 60.7064C192.513 62.6786 190.917 64.2774 188.948 64.2774Z" fill="#6ADAFD"/>
<path d="M207.961 64.2774C205.992 64.2774 204.396 62.6786 204.396 60.7065C204.396 58.7343 205.992 57.1355 207.961 57.1355C209.93 57.1355 211.526 58.7343 211.526 60.7065C211.526 62.6786 209.93 64.2774 207.961 64.2774Z" fill="#6ADAFD"/>
<path d="M226.975 64.2774C225.006 64.2774 223.41 62.6786 223.41 60.7065C223.41 58.7343 225.006 57.1355 226.975 57.1355C228.944 57.1355 230.54 58.7343 230.54 60.7065C230.54 62.6786 228.944 64.2774 226.975 64.2774Z" fill="#6ADAFD"/>
<path d="M47.9301 83.3226C45.9612 83.3226 44.3651 81.7238 44.3651 79.7516C44.3651 77.7794 45.9612 76.1806 47.9301 76.1806C49.899 76.1806 51.4952 77.7794 51.4952 79.7516C51.4952 81.7238 49.899 83.3226 47.9301 83.3226Z" fill="#6ADAFD"/>
<path d="M66.9437 83.3226C64.9748 83.3226 63.3787 81.7238 63.3787 79.7516C63.3787 77.7794 64.9748 76.1806 66.9437 76.1806C68.9127 76.1806 70.5088 77.7794 70.5088 79.7516C70.5088 81.7238 68.9127 83.3226 66.9437 83.3226Z" fill="#6ADAFD"/>
<path d="M85.9573 83.3226C83.9884 83.3226 82.3923 81.7238 82.3923 79.7516C82.3923 77.7794 83.9884 76.1806 85.9573 76.1806C87.9262 76.1806 89.5224 77.7794 89.5224 79.7516C89.5224 81.7238 87.9262 83.3226 85.9573 83.3226Z" fill="#6ADAFD"/>
<path d="M104.971 83.3226C103.002 83.3226 101.406 81.7238 101.406 79.7516C101.406 77.7794 103.002 76.1806 104.971 76.1806C106.94 76.1806 108.536 77.7794 108.536 79.7516C108.536 81.7238 106.94 83.3226 104.971 83.3226Z" fill="#6ADAFD"/>
<path d="M123.984 83.3226C122.016 83.3226 120.419 81.7238 120.419 79.7516C120.419 77.7794 122.016 76.1806 123.984 76.1806C125.953 76.1806 127.55 77.7794 127.55 79.7516C127.55 81.7238 125.953 83.3226 123.984 83.3226Z" fill="#6ADAFD"/>
<path d="M142.998 83.3226C141.029 83.3226 139.433 81.7238 139.433 79.7516C139.433 77.7794 141.029 76.1806 142.998 76.1806C144.967 76.1806 146.563 77.7794 146.563 79.7516C146.563 81.7238 144.967 83.3226 142.998 83.3226Z" fill="#6ADAFD"/>
<path d="M162.012 83.3226C160.043 83.3226 158.447 81.7238 158.447 79.7516C158.447 77.7794 160.043 76.1806 162.012 76.1806C163.981 76.1806 165.577 77.7794 165.577 79.7516C165.577 81.7238 163.981 83.3226 162.012 83.3226Z" fill="#6ADAFD"/>
<path d="M181.025 83.3226C179.056 83.3226 177.46 81.7238 177.46 79.7516C177.46 77.7794 179.056 76.1806 181.025 76.1806C182.994 76.1806 184.59 77.7794 184.59 79.7516C184.59 81.7238 182.994 83.3226 181.025 83.3226Z" fill="#6ADAFD"/>
<path d="M200.039 83.3226C198.07 83.3226 196.474 81.7238 196.474 79.7516C196.474 77.7794 198.07 76.1806 200.039 76.1806C202.008 76.1806 203.604 77.7794 203.604 79.7516C203.604 81.7238 202.008 83.3226 200.039 83.3226Z" fill="#6ADAFD"/>
<path d="M219.052 83.3226C217.084 83.3226 215.487 81.7238 215.487 79.7516C215.487 77.7794 217.084 76.1806 219.052 76.1806C221.021 76.1806 222.617 77.7794 222.617 79.7516C222.617 81.7238 221.021 83.3226 219.052 83.3226Z" fill="#6ADAFD"/>
<path d="M238.066 83.3226C236.097 83.3226 234.501 81.7238 234.501 79.7516C234.501 77.7794 236.097 76.1806 238.066 76.1806C240.035 76.1806 241.631 77.7794 241.631 79.7516C241.631 81.7238 240.035 83.3226 238.066 83.3226Z" fill="#6ADAFD"/>
<path d="M57.4369 102.368C55.468 102.368 53.8719 100.769 53.8719 98.7968C53.8719 96.8246 55.468 95.2258 57.4369 95.2258C59.4058 95.2258 61.002 96.8246 61.002 98.7968C61.002 100.769 59.4058 102.368 57.4369 102.368Z" fill="#6ADAFD"/>
<path d="M76.4505 102.368C74.4816 102.368 72.8855 100.769 72.8855 98.7968C72.8855 96.8246 74.4816 95.2258 76.4505 95.2258C78.4194 95.2258 80.0156 96.8246 80.0156 98.7968C80.0156 100.769 78.4194 102.368 76.4505 102.368Z" fill="#6ADAFD"/>
<path d="M95.4641 102.368C93.4952 102.368 91.899 100.769 91.899 98.7968C91.899 96.8246 93.4952 95.2258 95.4641 95.2258C97.433 95.2258 99.0291 96.8246 99.0291 98.7968C99.0291 100.769 97.433 102.368 95.4641 102.368Z" fill="#6ADAFD"/>
<path d="M114.478 102.368C112.509 102.368 110.913 100.769 110.913 98.7968C110.913 96.8246 112.509 95.2258 114.478 95.2258C116.447 95.2258 118.043 96.8246 118.043 98.7968C118.043 100.769 116.447 102.368 114.478 102.368Z" fill="#6ADAFD"/>
<path d="M133.491 102.368C131.522 102.368 129.926 100.769 129.926 98.7968C129.926 96.8246 131.522 95.2258 133.491 95.2258C135.46 95.2258 137.056 96.8246 137.056 98.7968C137.056 100.769 135.46 102.368 133.491 102.368Z" fill="#6ADAFD"/>
<path d="M152.505 102.368C150.536 102.368 148.94 100.769 148.94 98.7968C148.94 96.8246 150.536 95.2258 152.505 95.2258C154.474 95.2258 156.07 96.8246 156.07 98.7968C156.07 100.769 154.474 102.368 152.505 102.368Z" fill="#6ADAFD"/>
<path d="M171.518 102.368C169.55 102.368 167.953 100.769 167.953 98.7968C167.953 96.8246 169.55 95.2258 171.518 95.2258C173.487 95.2258 175.084 96.8246 175.084 98.7968C175.084 100.769 173.487 102.368 171.518 102.368Z" fill="#6ADAFD"/>
<path d="M190.532 102.368C188.563 102.368 186.967 100.769 186.967 98.7968C186.967 96.8246 188.563 95.2258 190.532 95.2258C192.501 95.2258 194.097 96.8246 194.097 98.7968C194.097 100.769 192.501 102.368 190.532 102.368Z" fill="#6ADAFD"/>
<path d="M209.546 102.368C207.577 102.368 205.981 100.769 205.981 98.7968C205.981 96.8246 207.577 95.2258 209.546 95.2258C211.515 95.2258 213.111 96.8246 213.111 98.7968C213.111 100.769 211.515 102.368 209.546 102.368Z" fill="#6ADAFD"/>
<path d="M228.559 102.368C226.59 102.368 224.994 100.769 224.994 98.7968C224.994 96.8246 226.59 95.2258 228.559 95.2258C230.528 95.2258 232.124 96.8246 232.124 98.7968C232.124 100.769 230.528 102.368 228.559 102.368Z" fill="#6ADAFD"/>
<path d="M247.573 102.368C245.604 102.368 244.008 100.769 244.008 98.7968C244.008 96.8246 245.604 95.2258 247.573 95.2258C249.542 95.2258 251.138 96.8246 251.138 98.7968C251.138 100.769 249.542 102.368 247.573 102.368Z" fill="#6ADAFD"/>
<path d="M68.5282 121.413C66.5593 121.413 64.9631 119.814 64.9631 117.842C64.9631 115.87 66.5593 114.271 68.5282 114.271C70.4971 114.271 72.0932 115.87 72.0932 117.842C72.0932 119.814 70.4971 121.413 68.5282 121.413Z" fill="#6ADAFD"/>
<path d="M87.5418 121.413C85.5728 121.413 83.9767 119.814 83.9767 117.842C83.9767 115.87 85.5728 114.271 87.5418 114.271C89.5107 114.271 91.1068 115.87 91.1068 117.842C91.1068 119.814 89.5107 121.413 87.5418 121.413Z" fill="#6ADAFD"/>
<path d="M106.555 121.413C104.586 121.413 102.99 119.814 102.99 117.842C102.99 115.87 104.586 114.271 106.555 114.271C108.524 114.271 110.12 115.87 110.12 117.842C110.12 119.814 108.524 121.413 106.555 121.413Z" fill="#6ADAFD"/>
<path d="M125.569 121.413C123.6 121.413 122.004 119.814 122.004 117.842C122.004 115.87 123.6 114.271 125.569 114.271C127.538 114.271 129.134 115.87 129.134 117.842C129.134 119.814 127.538 121.413 125.569 121.413Z" fill="#6ADAFD"/>
<path d="M144.583 121.413C142.614 121.413 141.018 119.814 141.018 117.842C141.018 115.87 142.614 114.271 144.583 114.271C146.551 114.271 148.148 115.87 148.148 117.842C148.148 119.814 146.551 121.413 144.583 121.413Z" fill="#6ADAFD"/>
<path d="M163.596 121.413C161.627 121.413 160.031 119.814 160.031 117.842C160.031 115.87 161.627 114.271 163.596 114.271C165.565 114.271 167.161 115.87 167.161 117.842C167.161 119.814 165.565 121.413 163.596 121.413Z" fill="#6ADAFD"/>
<path d="M182.61 121.413C180.641 121.413 179.045 119.814 179.045 117.842C179.045 115.87 180.641 114.271 182.61 114.271C184.579 114.271 186.175 115.87 186.175 117.842C186.175 119.814 184.579 121.413 182.61 121.413Z" fill="#6ADAFD"/>
<path d="M201.623 121.413C199.654 121.413 198.058 119.814 198.058 117.842C198.058 115.87 199.654 114.271 201.623 114.271C203.592 114.271 205.188 115.87 205.188 117.842C205.188 119.814 203.592 121.413 201.623 121.413Z" fill="#6ADAFD"/>
<path d="M220.637 121.413C218.668 121.413 217.072 119.814 217.072 117.842C217.072 115.87 218.668 114.271 220.637 114.271C222.606 114.271 224.202 115.87 224.202 117.842C224.202 119.814 222.606 121.413 220.637 121.413Z" fill="#6ADAFD"/>
<path d="M239.65 121.413C237.682 121.413 236.085 119.814 236.085 117.842C236.085 115.87 237.682 114.271 239.65 114.271C241.619 114.271 243.216 115.87 243.216 117.842C243.216 119.814 241.619 121.413 239.65 121.413Z" fill="#6ADAFD"/>
<path d="M258.664 121.413C256.695 121.413 255.099 119.814 255.099 117.842C255.099 115.87 256.695 114.271 258.664 114.271C260.633 114.271 262.229 115.87 262.229 117.842C262.229 119.814 260.633 121.413 258.664 121.413Z" fill="#6ADAFD"/>
<path d="M79.6194 140.458C77.6505 140.458 76.0544 138.859 76.0544 136.887C76.0544 134.915 77.6505 133.316 79.6194 133.316C81.5884 133.316 83.1845 134.915 83.1845 136.887C83.1845 138.859 81.5884 140.458 79.6194 140.458Z" fill="#6ADAFD"/>
<path d="M98.633 140.458C96.6641 140.458 95.068 138.859 95.068 136.887C95.068 134.915 96.6641 133.316 98.633 133.316C100.602 133.316 102.198 134.915 102.198 136.887C102.198 138.859 100.602 140.458 98.633 140.458Z" fill="#6ADAFD"/>
<path d="M117.647 140.458C115.678 140.458 114.082 138.859 114.082 136.887C114.082 134.915 115.678 133.316 117.647 133.316C119.616 133.316 121.212 134.915 121.212 136.887C121.212 138.859 119.616 140.458 117.647 140.458Z" fill="#6ADAFD"/>
<path d="M136.66 140.458C134.691 140.458 133.095 138.859 133.095 136.887C133.095 134.915 134.691 133.316 136.66 133.316C138.629 133.316 140.225 134.915 140.225 136.887C140.225 138.859 138.629 140.458 136.66 140.458Z" fill="#6ADAFD"/>
<path d="M155.674 140.458C153.705 140.458 152.109 138.859 152.109 136.887C152.109 134.915 153.705 133.316 155.674 133.316C157.643 133.316 159.239 134.915 159.239 136.887C159.239 138.859 157.643 140.458 155.674 140.458Z" fill="#6ADAFD"/>
<path d="M174.687 140.458C172.718 140.458 171.122 138.859 171.122 136.887C171.122 134.915 172.718 133.316 174.687 133.316C176.656 133.316 178.252 134.915 178.252 136.887C178.252 138.859 176.656 140.458 174.687 140.458Z" fill="#6ADAFD"/>
<path d="M193.701 140.458C191.732 140.458 190.136 138.859 190.136 136.887C190.136 134.915 191.732 133.316 193.701 133.316C195.67 133.316 197.266 134.915 197.266 136.887C197.266 138.859 195.67 140.458 193.701 140.458Z" fill="#6ADAFD"/>
<path d="M212.715 140.458C210.746 140.458 209.15 138.859 209.15 136.887C209.15 134.915 210.746 133.316 212.715 133.316C214.683 133.316 216.28 134.915 216.28 136.887C216.28 138.859 214.683 140.458 212.715 140.458Z" fill="#6ADAFD"/>
<path d="M231.728 140.458C229.759 140.458 228.163 138.859 228.163 136.887C228.163 134.915 229.759 133.316 231.728 133.316C233.697 133.316 235.293 134.915 235.293 136.887C235.293 138.859 233.697 140.458 231.728 140.458Z" fill="#6ADAFD"/>
<path d="M250.742 140.458C248.773 140.458 247.177 138.859 247.177 136.887C247.177 134.915 248.773 133.316 250.742 133.316C252.711 133.316 254.307 134.915 254.307 136.887C254.307 138.859 252.711 140.458 250.742 140.458Z" fill="#6ADAFD"/>
<path d="M269.755 140.458C267.786 140.458 266.19 138.859 266.19 136.887C266.19 134.915 267.786 133.316 269.755 133.316C271.724 133.316 273.32 134.915 273.32 136.887C273.32 138.859 271.724 140.458 269.755 140.458Z" fill="#6ADAFD"/>
<path d="M90.7107 159.503C88.7418 159.503 87.1457 157.904 87.1457 155.932C87.1457 153.96 88.7418 152.361 90.7107 152.361C92.6796 152.361 94.2758 153.96 94.2758 155.932C94.2757 157.904 92.6796 159.503 90.7107 159.503Z" fill="#6ADAFD"/>
<path d="M109.724 159.503C107.755 159.503 106.159 157.904 106.159 155.932C106.159 153.96 107.755 152.361 109.724 152.361C111.693 152.361 113.289 153.96 113.289 155.932C113.289 157.904 111.693 159.503 109.724 159.503Z" fill="#6ADAFD"/>
<path d="M128.738 159.503C126.769 159.503 125.173 157.904 125.173 155.932C125.173 153.96 126.769 152.361 128.738 152.361C130.707 152.361 132.303 153.96 132.303 155.932C132.303 157.904 130.707 159.503 128.738 159.503Z" fill="#6ADAFD"/>
<path d="M147.751 159.503C145.783 159.503 144.186 157.904 144.186 155.932C144.186 153.96 145.783 152.361 147.751 152.361C149.72 152.361 151.317 153.96 151.317 155.932C151.317 157.904 149.72 159.503 147.751 159.503Z" fill="#6ADAFD"/>
<path d="M166.765 159.503C164.796 159.503 163.2 157.904 163.2 155.932C163.2 153.96 164.796 152.361 166.765 152.361C168.734 152.361 170.33 153.96 170.33 155.932C170.33 157.904 168.734 159.503 166.765 159.503Z" fill="#6ADAFD"/>
<path d="M185.779 159.503C183.81 159.503 182.214 157.904 182.214 155.932C182.214 153.96 183.81 152.361 185.779 152.361C187.748 152.361 189.344 153.96 189.344 155.932C189.344 157.904 187.748 159.503 185.779 159.503Z" fill="#6ADAFD"/>
<path d="M204.792 159.503C202.823 159.503 201.227 157.904 201.227 155.932C201.227 153.96 202.823 152.361 204.792 152.361C206.761 152.361 208.357 153.96 208.357 155.932C208.357 157.904 206.761 159.503 204.792 159.503Z" fill="#6ADAFD"/>
<path d="M223.806 159.503C221.837 159.503 220.241 157.904 220.241 155.932C220.241 153.96 221.837 152.361 223.806 152.361C225.775 152.361 227.371 153.96 227.371 155.932C227.371 157.904 225.775 159.503 223.806 159.503Z" fill="#6ADAFD"/>
<path d="M242.819 159.503C240.851 159.503 239.254 157.904 239.254 155.932C239.254 153.96 240.851 152.361 242.819 152.361C244.788 152.361 246.384 153.96 246.384 155.932C246.384 157.904 244.788 159.503 242.819 159.503Z" fill="#6ADAFD"/>
<path d="M261.833 159.503C259.864 159.503 258.268 157.904 258.268 155.932C258.268 153.96 259.864 152.361 261.833 152.361C263.802 152.361 265.398 153.96 265.398 155.932C265.398 157.904 263.802 159.503 261.833 159.503Z" fill="#6ADAFD"/>
<path d="M280.847 159.503C278.878 159.503 277.282 157.904 277.282 155.932C277.282 153.96 278.878 152.361 280.847 152.361C282.816 152.361 284.412 153.96 284.412 155.932C284.412 157.904 282.816 159.503 280.847 159.503Z" fill="#6ADAFD"/>
<path d="M101.802 178.548C99.833 178.548 98.2369 176.95 98.2369 174.977C98.2369 173.005 99.833 171.406 101.802 171.406C103.771 171.406 105.367 173.005 105.367 174.977C105.367 176.95 103.771 178.548 101.802 178.548Z" fill="#6ADAFD"/>
<path d="M120.816 178.548C118.847 178.548 117.251 176.95 117.251 174.977C117.251 173.005 118.847 171.406 120.816 171.406C122.784 171.406 124.381 173.005 124.381 174.977C124.381 176.95 122.784 178.548 120.816 178.548Z" fill="#6ADAFD"/>
<path d="M139.829 178.548C137.86 178.548 136.264 176.95 136.264 174.977C136.264 173.005 137.86 171.406 139.829 171.406C141.798 171.406 143.394 173.005 143.394 174.977C143.394 176.95 141.798 178.548 139.829 178.548Z" fill="#6ADAFD"/>
<path d="M158.843 178.548C156.874 178.548 155.278 176.95 155.278 174.977C155.278 173.005 156.874 171.406 158.843 171.406C160.812 171.406 162.408 173.005 162.408 174.977C162.408 176.95 160.812 178.548 158.843 178.548Z" fill="#6ADAFD"/>
<path d="M177.856 178.548C175.887 178.548 174.291 176.95 174.291 174.977C174.291 173.005 175.887 171.406 177.856 171.406C179.825 171.406 181.421 173.005 181.421 174.977C181.421 176.95 179.825 178.548 177.856 178.548Z" fill="#6ADAFD"/>
<path d="M196.87 178.548C194.901 178.548 193.305 176.95 193.305 174.977C193.305 173.005 194.901 171.406 196.87 171.406C198.839 171.406 200.435 173.005 200.435 174.977C200.435 176.95 198.839 178.548 196.87 178.548Z" fill="#6ADAFD"/>
<path d="M215.884 178.548C213.915 178.548 212.318 176.95 212.318 174.977C212.318 173.005 213.915 171.406 215.884 171.406C217.852 171.406 219.449 173.005 219.449 174.977C219.449 176.95 217.852 178.548 215.884 178.548Z" fill="#6ADAFD"/>
<path d="M234.897 178.548C232.928 178.548 231.332 176.95 231.332 174.977C231.332 173.005 232.928 171.406 234.897 171.406C236.866 171.406 238.462 173.005 238.462 174.977C238.462 176.95 236.866 178.548 234.897 178.548Z" fill="#6ADAFD"/>
<path d="M253.911 178.548C251.942 178.548 250.346 176.95 250.346 174.977C250.346 173.005 251.942 171.406 253.911 171.406C255.88 171.406 257.476 173.005 257.476 174.977C257.476 176.95 255.88 178.548 253.911 178.548Z" fill="#6ADAFD"/>
<path d="M272.924 178.548C270.955 178.548 269.359 176.95 269.359 174.977C269.359 173.005 270.955 171.406 272.924 171.406C274.893 171.406 276.489 173.005 276.489 174.977C276.489 176.95 274.893 178.548 272.924 178.548Z" fill="#6ADAFD"/>
<path d="M291.938 178.548C289.969 178.548 288.373 176.95 288.373 174.977C288.373 173.005 289.969 171.406 291.938 171.406C293.907 171.406 295.503 173.005 295.503 174.977C295.503 176.95 293.907 178.548 291.938 178.548Z" fill="#6ADAFD"/>
<path d="M112.893 197.594C110.924 197.594 109.328 195.995 109.328 194.023C109.328 192.05 110.924 190.452 112.893 190.452C114.862 190.452 116.458 192.05 116.458 194.023C116.458 195.995 114.862 197.594 112.893 197.594Z" fill="#6ADAFD"/>
<path d="M131.907 197.594C129.938 197.594 128.342 195.995 128.342 194.023C128.342 192.05 129.938 190.452 131.907 190.452C133.876 190.452 135.472 192.05 135.472 194.023C135.472 195.995 133.876 197.594 131.907 197.594Z" fill="#6ADAFD"/>
<path d="M150.92 197.594C148.951 197.594 147.355 195.995 147.355 194.023C147.355 192.05 148.951 190.452 150.92 190.452C152.889 190.452 154.485 192.05 154.485 194.023C154.485 195.995 152.889 197.594 150.92 197.594Z" fill="#6ADAFD"/>
<path d="M169.934 197.594C167.965 197.594 166.369 195.995 166.369 194.023C166.369 192.05 167.965 190.452 169.934 190.452C171.903 190.452 173.499 192.05 173.499 194.023C173.499 195.995 171.903 197.594 169.934 197.594Z" fill="#6ADAFD"/>
<path d="M188.948 197.594C186.979 197.594 185.383 195.995 185.383 194.023C185.383 192.05 186.979 190.452 188.948 190.452C190.917 190.452 192.513 192.05 192.513 194.023C192.513 195.995 190.917 197.594 188.948 197.594Z" fill="#6ADAFD"/>
<path d="M207.961 197.594C205.992 197.594 204.396 195.995 204.396 194.023C204.396 192.05 205.992 190.452 207.961 190.452C209.93 190.452 211.526 192.05 211.526 194.023C211.526 195.995 209.93 197.594 207.961 197.594Z" fill="#6ADAFD"/>
<path d="M226.975 197.594C225.006 197.594 223.41 195.995 223.41 194.023C223.41 192.05 225.006 190.452 226.975 190.452C228.944 190.452 230.54 192.05 230.54 194.023C230.54 195.995 228.944 197.594 226.975 197.594Z" fill="#6ADAFD"/>
<path d="M245.988 197.594C244.019 197.594 242.423 195.995 242.423 194.023C242.423 192.05 244.019 190.452 245.988 190.452C247.957 190.452 249.553 192.05 249.553 194.023C249.553 195.995 247.957 197.594 245.988 197.594Z" fill="#6ADAFD"/>
<path d="M265.002 197.594C263.033 197.594 261.437 195.995 261.437 194.023C261.437 192.05 263.033 190.452 265.002 190.452C266.971 190.452 268.567 192.05 268.567 194.023C268.567 195.995 266.971 197.594 265.002 197.594Z" fill="#6ADAFD"/>
<path d="M284.016 197.594C282.047 197.594 280.45 195.995 280.45 194.023C280.45 192.05 282.047 190.452 284.016 190.452C285.984 190.452 287.581 192.05 287.581 194.023C287.581 195.995 285.984 197.594 284.016 197.594Z" fill="#6ADAFD"/>
<path d="M303.029 197.594C301.06 197.594 299.464 195.995 299.464 194.023C299.464 192.05 301.06 190.452 303.029 190.452C304.998 190.452 306.594 192.05 306.594 194.023C306.594 195.995 304.998 197.594 303.029 197.594Z" fill="#6ADAFD"/>
<path d="M123.984 216.639C122.016 216.639 120.419 215.04 120.419 213.068C120.419 211.096 122.016 209.497 123.984 209.497C125.953 209.497 127.55 211.096 127.55 213.068C127.55 215.04 125.953 216.639 123.984 216.639Z" fill="#6ADAFD"/>
<path d="M142.998 216.639C141.029 216.639 139.433 215.04 139.433 213.068C139.433 211.096 141.029 209.497 142.998 209.497C144.967 209.497 146.563 211.096 146.563 213.068C146.563 215.04 144.967 216.639 142.998 216.639Z" fill="#6ADAFD"/>
<path d="M162.012 216.639C160.043 216.639 158.447 215.04 158.447 213.068C158.447 211.096 160.043 209.497 162.012 209.497C163.981 209.497 165.577 211.096 165.577 213.068C165.577 215.04 163.981 216.639 162.012 216.639Z" fill="#6ADAFD"/>
<path d="M181.025 216.639C179.056 216.639 177.46 215.04 177.46 213.068C177.46 211.096 179.056 209.497 181.025 209.497C182.994 209.497 184.59 211.096 184.59 213.068C184.59 215.04 182.994 216.639 181.025 216.639Z" fill="#6ADAFD"/>
<path d="M200.039 216.639C198.07 216.639 196.474 215.04 196.474 213.068C196.474 211.096 198.07 209.497 200.039 209.497C202.008 209.497 203.604 211.096 203.604 213.068C203.604 215.04 202.008 216.639 200.039 216.639Z" fill="#6ADAFD"/>
<path d="M219.052 216.639C217.084 216.639 215.487 215.04 215.487 213.068C215.487 211.096 217.084 209.497 219.052 209.497C221.021 209.497 222.617 211.096 222.617 213.068C222.617 215.04 221.021 216.639 219.052 216.639Z" fill="#6ADAFD"/>
<path d="M238.066 216.639C236.097 216.639 234.501 215.04 234.501 213.068C234.501 211.096 236.097 209.497 238.066 209.497C240.035 209.497 241.631 211.096 241.631 213.068C241.631 215.04 240.035 216.639 238.066 216.639Z" fill="#6ADAFD"/>
<path d="M257.08 216.639C255.111 216.639 253.515 215.04 253.515 213.068C253.515 211.096 255.111 209.497 257.08 209.497C259.049 209.497 260.645 211.096 260.645 213.068C260.645 215.04 259.049 216.639 257.08 216.639Z" fill="#6ADAFD"/>
<path d="M276.093 216.639C274.124 216.639 272.528 215.04 272.528 213.068C272.528 211.096 274.124 209.497 276.093 209.497C278.062 209.497 279.658 211.096 279.658 213.068C279.658 215.04 278.062 216.639 276.093 216.639Z" fill="#6ADAFD"/>
<path d="M295.107 216.639C293.138 216.639 291.542 215.04 291.542 213.068C291.542 211.096 293.138 209.497 295.107 209.497C297.076 209.497 298.672 211.096 298.672 213.068C298.672 215.04 297.076 216.639 295.107 216.639Z" fill="#6ADAFD"/>
<path d="M314.12 216.639C312.151 216.639 310.555 215.04 310.555 213.068C310.555 211.096 312.151 209.497 314.12 209.497C316.089 209.497 317.685 211.096 317.685 213.068C317.685 215.04 316.089 216.639 314.12 216.639Z" fill="#6ADAFD"/>
<path d="M135.076 235.684C133.107 235.684 131.511 234.085 131.511 232.113C131.511 230.141 133.107 228.542 135.076 228.542C137.045 228.542 138.641 230.141 138.641 232.113C138.641 234.085 137.045 235.684 135.076 235.684Z" fill="#6ADAFD"/>
<path d="M154.089 235.684C152.12 235.684 150.524 234.085 150.524 232.113C150.524 230.141 152.12 228.542 154.089 228.542C156.058 228.542 157.654 230.141 157.654 232.113C157.654 234.085 156.058 235.684 154.089 235.684Z" fill="#6ADAFD"/>
<path d="M173.103 235.684C171.134 235.684 169.538 234.085 169.538 232.113C169.538 230.141 171.134 228.542 173.103 228.542C175.072 228.542 176.668 230.141 176.668 232.113C176.668 234.085 175.072 235.684 173.103 235.684Z" fill="#6ADAFD"/>
<path d="M192.117 235.684C190.148 235.684 188.551 234.085 188.551 232.113C188.551 230.141 190.148 228.542 192.117 228.542C194.085 228.542 195.682 230.141 195.682 232.113C195.682 234.085 194.085 235.684 192.117 235.684Z" fill="#6ADAFD"/>
<path d="M211.13 235.684C209.161 235.684 207.565 234.085 207.565 232.113C207.565 230.141 209.161 228.542 211.13 228.542C213.099 228.542 214.695 230.141 214.695 232.113C214.695 234.085 213.099 235.684 211.13 235.684Z" fill="#6ADAFD"/>
<path d="M230.144 235.684C228.175 235.684 226.579 234.085 226.579 232.113C226.579 230.141 228.175 228.542 230.144 228.542C232.113 228.542 233.709 230.141 233.709 232.113C233.709 234.085 232.113 235.684 230.144 235.684Z" fill="#6ADAFD"/>
<path d="M249.157 235.684C247.188 235.684 245.592 234.085 245.592 232.113C245.592 230.141 247.188 228.542 249.157 228.542C251.126 228.542 252.722 230.141 252.722 232.113C252.722 234.085 251.126 235.684 249.157 235.684Z" fill="#6ADAFD"/>
<path d="M268.171 235.684C266.202 235.684 264.606 234.085 264.606 232.113C264.606 230.141 266.202 228.542 268.171 228.542C270.14 228.542 271.736 230.141 271.736 232.113C271.736 234.085 270.14 235.684 268.171 235.684Z" fill="#6ADAFD"/>
<path d="M287.184 235.684C285.216 235.684 283.619 234.085 283.619 232.113C283.619 230.141 285.216 228.542 287.184 228.542C289.153 228.542 290.75 230.141 290.75 232.113C290.75 234.085 289.153 235.684 287.184 235.684Z" fill="#6ADAFD"/>
<path d="M306.198 235.684C304.229 235.684 302.633 234.085 302.633 232.113C302.633 230.141 304.229 228.542 306.198 228.542C308.167 228.542 309.763 230.141 309.763 232.113C309.763 234.085 308.167 235.684 306.198 235.684Z" fill="#6ADAFD"/>
<path d="M325.212 235.684C323.243 235.684 321.647 234.085 321.647 232.113C321.647 230.141 323.243 228.542 325.212 228.542C327.181 228.542 328.777 230.141 328.777 232.113C328.777 234.085 327.181 235.684 325.212 235.684Z" fill="#6ADAFD"/>
<path d="M146.167 254.729C144.198 254.729 142.602 253.13 142.602 251.158C142.602 249.186 144.198 247.587 146.167 247.587C148.136 247.587 149.732 249.186 149.732 251.158C149.732 253.13 148.136 254.729 146.167 254.729Z" fill="#6ADAFD"/>
<path d="M165.181 254.729C163.212 254.729 161.616 253.13 161.616 251.158C161.616 249.186 163.212 247.587 165.181 247.587C167.15 247.587 168.746 249.186 168.746 251.158C168.746 253.13 167.15 254.729 165.181 254.729Z" fill="#6ADAFD"/>
<path d="M184.194 254.729C182.225 254.729 180.629 253.13 180.629 251.158C180.629 249.186 182.225 247.587 184.194 247.587C186.163 247.587 187.759 249.186 187.759 251.158C187.759 253.13 186.163 254.729 184.194 254.729Z" fill="#6ADAFD"/>
<path d="M203.208 254.729C201.239 254.729 199.643 253.13 199.643 251.158C199.643 249.186 201.239 247.587 203.208 247.587C205.177 247.587 206.773 249.186 206.773 251.158C206.773 253.13 205.177 254.729 203.208 254.729Z" fill="#6ADAFD"/>
<path d="M222.221 254.729C220.252 254.729 218.656 253.13 218.656 251.158C218.656 249.186 220.252 247.587 222.221 247.587C224.19 247.587 225.786 249.186 225.786 251.158C225.786 253.13 224.19 254.729 222.221 254.729Z" fill="#6ADAFD"/>
<path d="M241.235 254.729C239.266 254.729 237.67 253.13 237.67 251.158C237.67 249.186 239.266 247.587 241.235 247.587C243.204 247.587 244.8 249.186 244.8 251.158C244.8 253.13 243.204 254.729 241.235 254.729Z" fill="#6ADAFD"/>
<path d="M260.249 254.729C258.28 254.729 256.684 253.13 256.684 251.158C256.684 249.186 258.28 247.587 260.249 247.587C262.217 247.587 263.814 249.186 263.814 251.158C263.814 253.13 262.217 254.729 260.249 254.729Z" fill="#6ADAFD"/>
<path d="M279.262 254.729C277.293 254.729 275.697 253.13 275.697 251.158C275.697 249.186 277.293 247.587 279.262 247.587C281.231 247.587 282.827 249.186 282.827 251.158C282.827 253.13 281.231 254.729 279.262 254.729Z" fill="#6ADAFD"/>
<path d="M298.276 254.729C296.307 254.729 294.711 253.13 294.711 251.158C294.711 249.186 296.307 247.587 298.276 247.587C300.245 247.587 301.841 249.186 301.841 251.158C301.841 253.13 300.245 254.729 298.276 254.729Z" fill="#6ADAFD"/>
<path d="M317.289 254.729C315.32 254.729 313.724 253.13 313.724 251.158C313.724 249.186 315.32 247.587 317.289 247.587C319.258 247.587 320.854 249.186 320.854 251.158C320.854 253.13 319.258 254.729 317.289 254.729Z" fill="#6ADAFD"/>
<path d="M336.303 254.729C334.334 254.729 332.738 253.13 332.738 251.158C332.738 249.186 334.334 247.587 336.303 247.587C338.272 247.587 339.868 249.186 339.868 251.158C339.868 253.13 338.272 254.729 336.303 254.729Z" fill="#6ADAFD"/>
<path d="M157.258 273.774C155.289 273.774 153.693 272.175 153.693 270.203C153.693 268.231 155.289 266.632 157.258 266.632C159.227 266.632 160.823 268.231 160.823 270.203C160.823 272.175 159.227 273.774 157.258 273.774Z" fill="#6ADAFD"/>
<path d="M176.272 273.774C174.303 273.774 172.707 272.175 172.707 270.203C172.707 268.231 174.303 266.632 176.272 266.632C178.241 266.632 179.837 268.231 179.837 270.203C179.837 272.175 178.241 273.774 176.272 273.774Z" fill="#6ADAFD"/>
<path d="M195.285 273.774C193.317 273.774 191.72 272.175 191.72 270.203C191.72 268.231 193.317 266.632 195.285 266.632C197.254 266.632 198.85 268.231 198.85 270.203C198.85 272.175 197.254 273.774 195.285 273.774Z" fill="#6ADAFD"/>
<path d="M214.299 273.774C212.33 273.774 210.734 272.175 210.734 270.203C210.734 268.231 212.33 266.632 214.299 266.632C216.268 266.632 217.864 268.231 217.864 270.203C217.864 272.175 216.268 273.774 214.299 273.774Z" fill="#6ADAFD"/>
<path d="M233.313 273.774C231.344 273.774 229.748 272.175 229.748 270.203C229.748 268.231 231.344 266.632 233.313 266.632C235.282 266.632 236.878 268.231 236.878 270.203C236.878 272.175 235.282 273.774 233.313 273.774Z" fill="#6ADAFD"/>
<path d="M252.326 273.774C250.357 273.774 248.761 272.175 248.761 270.203C248.761 268.231 250.357 266.632 252.326 266.632C254.295 266.632 255.891 268.231 255.891 270.203C255.891 272.175 254.295 273.774 252.326 273.774Z" fill="#6ADAFD"/>
<path d="M271.34 273.774C269.371 273.774 267.775 272.175 267.775 270.203C267.775 268.231 269.371 266.632 271.34 266.632C273.309 266.632 274.905 268.231 274.905 270.203C274.905 272.175 273.309 273.774 271.34 273.774Z" fill="#6ADAFD"/>
<path d="M290.353 273.774C288.384 273.774 286.788 272.175 286.788 270.203C286.788 268.231 288.384 266.632 290.353 266.632C292.322 266.632 293.918 268.231 293.918 270.203C293.918 272.175 292.322 273.774 290.353 273.774Z" fill="#6ADAFD"/>
<path d="M309.367 273.774C307.398 273.774 305.802 272.175 305.802 270.203C305.802 268.231 307.398 266.632 309.367 266.632C311.336 266.632 312.932 268.231 312.932 270.203C312.932 272.175 311.336 273.774 309.367 273.774Z" fill="#6ADAFD"/>
<path d="M328.381 273.774C326.412 273.774 324.816 272.175 324.816 270.203C324.816 268.231 326.412 266.632 328.381 266.632C330.349 266.632 331.946 268.231 331.946 270.203C331.946 272.175 330.349 273.774 328.381 273.774Z" fill="#6ADAFD"/>
<path d="M347.394 273.774C345.425 273.774 343.829 272.175 343.829 270.203C343.829 268.231 345.425 266.632 347.394 266.632C349.363 266.632 350.959 268.231 350.959 270.203C350.959 272.175 349.363 273.774 347.394 273.774Z" fill="#6ADAFD"/>
<path d="M169.934 292.819C167.965 292.819 166.369 291.221 166.369 289.248C166.369 287.276 167.965 285.677 169.934 285.677C171.903 285.677 173.499 287.276 173.499 289.248C173.499 291.221 171.903 292.819 169.934 292.819Z" fill="#6ADAFD"/>
<path d="M188.948 292.819C186.979 292.819 185.383 291.221 185.383 289.248C185.383 287.276 186.979 285.677 188.948 285.677C190.917 285.677 192.513 287.276 192.513 289.248C192.513 291.221 190.917 292.819 188.948 292.819Z" fill="#6ADAFD"/>
<path d="M207.961 292.819C205.992 292.819 204.396 291.221 204.396 289.248C204.396 287.276 205.992 285.677 207.961 285.677C209.93 285.677 211.526 287.276 211.526 289.248C211.526 291.221 209.93 292.819 207.961 292.819Z" fill="#6ADAFD"/>
<path d="M226.975 292.819C225.006 292.819 223.41 291.221 223.41 289.248C223.41 287.276 225.006 285.677 226.975 285.677C228.944 285.677 230.54 287.276 230.54 289.248C230.54 291.221 228.944 292.819 226.975 292.819Z" fill="#6ADAFD"/>
<path d="M245.988 292.819C244.019 292.819 242.423 291.221 242.423 289.248C242.423 287.276 244.019 285.677 245.988 285.677C247.957 285.677 249.553 287.276 249.553 289.248C249.553 291.221 247.957 292.819 245.988 292.819Z" fill="#6ADAFD"/>
<path d="M265.002 292.819C263.033 292.819 261.437 291.221 261.437 289.248C261.437 287.276 263.033 285.677 265.002 285.677C266.971 285.677 268.567 287.276 268.567 289.248C268.567 291.221 266.971 292.819 265.002 292.819Z" fill="#6ADAFD"/>
<path d="M284.016 292.819C282.047 292.819 280.45 291.221 280.45 289.248C280.45 287.276 282.047 285.677 284.016 285.677C285.984 285.677 287.581 287.276 287.581 289.248C287.581 291.221 285.984 292.819 284.016 292.819Z" fill="#6ADAFD"/>
<path d="M303.029 292.819C301.06 292.819 299.464 291.221 299.464 289.248C299.464 287.276 301.06 285.677 303.029 285.677C304.998 285.677 306.594 287.276 306.594 289.248C306.594 291.221 304.998 292.819 303.029 292.819Z" fill="#6ADAFD"/>
<path d="M322.043 292.819C320.074 292.819 318.478 291.221 318.478 289.248C318.478 287.276 320.074 285.677 322.043 285.677C324.012 285.677 325.608 287.276 325.608 289.248C325.608 291.221 324.012 292.819 322.043 292.819Z" fill="#6ADAFD"/>
<path d="M341.056 292.819C339.087 292.819 337.491 291.221 337.491 289.248C337.491 287.276 339.087 285.677 341.056 285.677C343.025 285.677 344.621 287.276 344.621 289.248C344.621 291.221 343.025 292.819 341.056 292.819Z" fill="#6ADAFD"/>
<path d="M360.07 292.819C358.101 292.819 356.505 291.221 356.505 289.248C356.505 287.276 358.101 285.677 360.07 285.677C362.039 285.677 363.635 287.276 363.635 289.248C363.635 291.221 362.039 292.819 360.07 292.819Z" fill="#6ADAFD"/>
<path d="M181.025 311.865C179.056 311.865 177.46 310.266 177.46 308.294C177.46 306.321 179.056 304.723 181.025 304.723C182.994 304.723 184.59 306.321 184.59 308.294C184.59 310.266 182.994 311.865 181.025 311.865Z" fill="#6ADAFD"/>
<path d="M200.039 311.865C198.07 311.865 196.474 310.266 196.474 308.294C196.474 306.321 198.07 304.723 200.039 304.723C202.008 304.723 203.604 306.321 203.604 308.294C203.604 310.266 202.008 311.865 200.039 311.865Z" fill="#6ADAFD"/>
<path d="M219.052 311.865C217.084 311.865 215.487 310.266 215.487 308.294C215.487 306.321 217.084 304.723 219.052 304.723C221.021 304.723 222.617 306.321 222.617 308.294C222.617 310.266 221.021 311.865 219.052 311.865Z" fill="#6ADAFD"/>
<path d="M238.066 311.865C236.097 311.865 234.501 310.266 234.501 308.294C234.501 306.321 236.097 304.723 238.066 304.723C240.035 304.723 241.631 306.321 241.631 308.294C241.631 310.266 240.035 311.865 238.066 311.865Z" fill="#6ADAFD"/>
<path d="M257.08 311.865C255.111 311.865 253.515 310.266 253.515 308.294C253.515 306.321 255.111 304.723 257.08 304.723C259.049 304.723 260.645 306.321 260.645 308.294C260.645 310.266 259.049 311.865 257.08 311.865Z" fill="#6ADAFD"/>
<path d="M276.093 311.865C274.124 311.865 272.528 310.266 272.528 308.294C272.528 306.321 274.124 304.723 276.093 304.723C278.062 304.723 279.658 306.321 279.658 308.294C279.658 310.266 278.062 311.865 276.093 311.865Z" fill="#6ADAFD"/>
<path d="M295.107 311.865C293.138 311.865 291.542 310.266 291.542 308.294C291.542 306.321 293.138 304.723 295.107 304.723C297.076 304.723 298.672 306.321 298.672 308.294C298.672 310.266 297.076 311.865 295.107 311.865Z" fill="#6ADAFD"/>
<path d="M314.12 311.865C312.151 311.865 310.555 310.266 310.555 308.294C310.555 306.321 312.151 304.723 314.12 304.723C316.089 304.723 317.685 306.321 317.685 308.294C317.685 310.266 316.089 311.865 314.12 311.865Z" fill="#6ADAFD"/>
<path d="M333.134 311.865C331.165 311.865 329.569 310.266 329.569 308.294C329.569 306.321 331.165 304.723 333.134 304.723C335.103 304.723 336.699 306.321 336.699 308.294C336.699 310.266 335.103 311.865 333.134 311.865Z" fill="#6ADAFD"/>
<path d="M352.148 311.865C350.179 311.865 348.583 310.266 348.583 308.294C348.583 306.321 350.179 304.723 352.148 304.723C354.116 304.723 355.713 306.321 355.713 308.294C355.713 310.266 354.116 311.865 352.148 311.865Z" fill="#6ADAFD"/>
<path d="M371.161 311.865C369.192 311.865 367.596 310.266 367.596 308.294C367.596 306.321 369.192 304.723 371.161 304.723C373.13 304.723 374.726 306.321 374.726 308.294C374.726 310.266 373.13 311.865 371.161 311.865Z" fill="#6ADAFD"/>
<path d="M192.117 330.91C190.148 330.91 188.551 329.311 188.551 327.339C188.551 325.367 190.148 323.768 192.117 323.768C194.085 323.768 195.682 325.367 195.682 327.339C195.682 329.311 194.085 330.91 192.117 330.91Z" fill="#6ADAFD"/>
<path d="M211.13 330.91C209.161 330.91 207.565 329.311 207.565 327.339C207.565 325.367 209.161 323.768 211.13 323.768C213.099 323.768 214.695 325.367 214.695 327.339C214.695 329.311 213.099 330.91 211.13 330.91Z" fill="#6ADAFD"/>
<path d="M230.144 330.91C228.175 330.91 226.579 329.311 226.579 327.339C226.579 325.367 228.175 323.768 230.144 323.768C232.113 323.768 233.709 325.367 233.709 327.339C233.709 329.311 232.113 330.91 230.144 330.91Z" fill="#6ADAFD"/>
<path d="M249.157 330.91C247.188 330.91 245.592 329.311 245.592 327.339C245.592 325.367 247.188 323.768 249.157 323.768C251.126 323.768 252.722 325.367 252.722 327.339C252.722 329.311 251.126 330.91 249.157 330.91Z" fill="#6ADAFD"/>
<path d="M268.171 330.91C266.202 330.91 264.606 329.311 264.606 327.339C264.606 325.367 266.202 323.768 268.171 323.768C270.14 323.768 271.736 325.367 271.736 327.339C271.736 329.311 270.14 330.91 268.171 330.91Z" fill="#6ADAFD"/>
<path d="M287.184 330.91C285.216 330.91 283.619 329.311 283.619 327.339C283.619 325.367 285.216 323.768 287.184 323.768C289.153 323.768 290.75 325.367 290.75 327.339C290.75 329.311 289.153 330.91 287.184 330.91Z" fill="#6ADAFD"/>
<path d="M306.198 330.91C304.229 330.91 302.633 329.311 302.633 327.339C302.633 325.367 304.229 323.768 306.198 323.768C308.167 323.768 309.763 325.367 309.763 327.339C309.763 329.311 308.167 330.91 306.198 330.91Z" fill="#6ADAFD"/>
<path d="M325.212 330.91C323.243 330.91 321.647 329.311 321.647 327.339C321.647 325.367 323.243 323.768 325.212 323.768C327.181 323.768 328.777 325.367 328.777 327.339C328.777 329.311 327.181 330.91 325.212 330.91Z" fill="#6ADAFD"/>
<path d="M344.225 330.91C342.256 330.91 340.66 329.311 340.66 327.339C340.66 325.367 342.256 323.768 344.225 323.768C346.194 323.768 347.79 325.367 347.79 327.339C347.79 329.311 346.194 330.91 344.225 330.91Z" fill="#6ADAFD"/>
<path d="M363.239 330.91C361.27 330.91 359.674 329.311 359.674 327.339C359.674 325.367 361.27 323.768 363.239 323.768C365.208 323.768 366.804 325.367 366.804 327.339C366.804 329.311 365.208 330.91 363.239 330.91Z" fill="#6ADAFD"/>
<path d="M382.252 330.91C380.283 330.91 378.687 329.311 378.687 327.339C378.687 325.367 380.283 323.768 382.252 323.768C384.221 323.768 385.817 325.367 385.817 327.339C385.817 329.311 384.221 330.91 382.252 330.91Z" fill="#6ADAFD"/>
<path d="M203.208 349.955C201.239 349.955 199.643 348.356 199.643 346.384C199.643 344.412 201.239 342.813 203.208 342.813C205.177 342.813 206.773 344.412 206.773 346.384C206.773 348.356 205.177 349.955 203.208 349.955Z" fill="#6ADAFD"/>
<path d="M222.221 349.955C220.252 349.955 218.656 348.356 218.656 346.384C218.656 344.412 220.252 342.813 222.221 342.813C224.19 342.813 225.786 344.412 225.786 346.384C225.786 348.356 224.19 349.955 222.221 349.955Z" fill="#6ADAFD"/>
<path d="M241.235 349.955C239.266 349.955 237.67 348.356 237.67 346.384C237.67 344.412 239.266 342.813 241.235 342.813C243.204 342.813 244.8 344.412 244.8 346.384C244.8 348.356 243.204 349.955 241.235 349.955Z" fill="#6ADAFD"/>
<path d="M260.249 349.955C258.28 349.955 256.684 348.356 256.684 346.384C256.684 344.412 258.28 342.813 260.249 342.813C262.217 342.813 263.814 344.412 263.814 346.384C263.814 348.356 262.217 349.955 260.249 349.955Z" fill="#6ADAFD"/>
<path d="M279.262 349.955C277.293 349.955 275.697 348.356 275.697 346.384C275.697 344.412 277.293 342.813 279.262 342.813C281.231 342.813 282.827 344.412 282.827 346.384C282.827 348.356 281.231 349.955 279.262 349.955Z" fill="#6ADAFD"/>
<path d="M298.276 349.955C296.307 349.955 294.711 348.356 294.711 346.384C294.711 344.412 296.307 342.813 298.276 342.813C300.245 342.813 301.841 344.412 301.841 346.384C301.841 348.356 300.245 349.955 298.276 349.955Z" fill="#6ADAFD"/>
<path d="M317.289 349.955C315.32 349.955 313.724 348.356 313.724 346.384C313.724 344.412 315.32 342.813 317.289 342.813C319.258 342.813 320.854 344.412 320.854 346.384C320.854 348.356 319.258 349.955 317.289 349.955Z" fill="#6ADAFD"/>
<path d="M336.303 349.955C334.334 349.955 332.738 348.356 332.738 346.384C332.738 344.412 334.334 342.813 336.303 342.813C338.272 342.813 339.868 344.412 339.868 346.384C339.868 348.356 338.272 349.955 336.303 349.955Z" fill="#6ADAFD"/>
<path d="M355.316 349.955C353.348 349.955 351.751 348.356 351.751 346.384C351.751 344.412 353.348 342.813 355.316 342.813C357.285 342.813 358.882 344.412 358.882 346.384C358.882 348.356 357.285 349.955 355.316 349.955Z" fill="#6ADAFD"/>
<path d="M374.33 349.955C372.361 349.955 370.765 348.356 370.765 346.384C370.765 344.412 372.361 342.813 374.33 342.813C376.299 342.813 377.895 344.412 377.895 346.384C377.895 348.356 376.299 349.955 374.33 349.955Z" fill="#6ADAFD"/>
<path d="M393.344 349.955C391.375 349.955 389.779 348.356 389.779 346.384C389.779 344.412 391.375 342.813 393.344 342.813C395.313 342.813 396.909 344.412 396.909 346.384C396.909 348.356 395.313 349.955 393.344 349.955Z" fill="#6ADAFD"/>
<path d="M214.299 369C212.33 369 210.734 367.401 210.734 365.429C210.734 363.457 212.33 361.858 214.299 361.858C216.268 361.858 217.864 363.457 217.864 365.429C217.864 367.401 216.268 369 214.299 369Z" fill="#6ADAFD"/>
<path d="M233.313 369C231.344 369 229.748 367.401 229.748 365.429C229.748 363.457 231.344 361.858 233.313 361.858C235.282 361.858 236.878 363.457 236.878 365.429C236.878 367.401 235.282 369 233.313 369Z" fill="#6ADAFD"/>
<path d="M252.326 369C250.357 369 248.761 367.401 248.761 365.429C248.761 363.457 250.357 361.858 252.326 361.858C254.295 361.858 255.891 363.457 255.891 365.429C255.891 367.401 254.295 369 252.326 369Z" fill="#6ADAFD"/>
<path d="M271.34 369C269.371 369 267.775 367.401 267.775 365.429C267.775 363.457 269.371 361.858 271.34 361.858C273.309 361.858 274.905 363.457 274.905 365.429C274.905 367.401 273.309 369 271.34 369Z" fill="#6ADAFD"/>
<path d="M290.353 369C288.384 369 286.788 367.401 286.788 365.429C286.788 363.457 288.384 361.858 290.353 361.858C292.322 361.858 293.918 363.457 293.918 365.429C293.918 367.401 292.322 369 290.353 369Z" fill="#6ADAFD"/>
<path d="M309.367 369C307.398 369 305.802 367.401 305.802 365.429C305.802 363.457 307.398 361.858 309.367 361.858C311.336 361.858 312.932 363.457 312.932 365.429C312.932 367.401 311.336 369 309.367 369Z" fill="#6ADAFD"/>
<path d="M328.381 369C326.412 369 324.816 367.401 324.816 365.429C324.816 363.457 326.412 361.858 328.381 361.858C330.349 361.858 331.946 363.457 331.946 365.429C331.946 367.401 330.349 369 328.381 369Z" fill="#6ADAFD"/>
<path d="M347.394 369C345.425 369 343.829 367.401 343.829 365.429C343.829 363.457 345.425 361.858 347.394 361.858C349.363 361.858 350.959 363.457 350.959 365.429C350.959 367.401 349.363 369 347.394 369Z" fill="#6ADAFD"/>
<path d="M366.408 369C364.439 369 362.843 367.401 362.843 365.429C362.843 363.457 364.439 361.858 366.408 361.858C368.377 361.858 369.973 363.457 369.973 365.429C369.973 367.401 368.377 369 366.408 369Z" fill="#6ADAFD"/>
<path d="M385.421 369C383.452 369 381.856 367.401 381.856 365.429C381.856 363.457 383.452 361.858 385.421 361.858C387.39 361.858 388.986 363.457 388.986 365.429C388.986 367.401 387.39 369 385.421 369Z" fill="#6ADAFD"/>
<path d="M404.435 369C402.466 369 400.87 367.401 400.87 365.429C400.87 363.457 402.466 361.858 404.435 361.858C406.404 361.858 408 363.457 408 365.429C408 367.401 406.404 369 404.435 369Z" fill="#6ADAFD"/>
</g>
</svg>
