<?xml version="1.0" encoding="utf-8"?>
<!-- Generator: Adobe Illustrator 25.0.0, SVG Export Plug-In . SVG Version: 6.00 Build 0)  -->
<svg version="1.1" id="Layer_1" xmlns="http://www.w3.org/2000/svg" xmlns:xlink="http://www.w3.org/1999/xlink" x="0px" y="0px"
	 viewBox="0 0 1680 1422" style="enable-background:new 0 0 1680 1422;" xml:space="preserve">
<style type="text/css">
	.st0{fill:none;stroke:#B7C0F3;stroke-dasharray:2,2;}
	.st1{opacity:0.25;}
	.st2{fill:#8793FE;}
	.st3{opacity:0.95;fill:#FECF87;enable-background:new    ;}
	.st4{opacity:0.95;fill:#55A0F9;enable-background:new    ;}
	.st5{fill:#7DF0C0;}
	.st6{opacity:0.95;}
	.st7{fill:#FF8989;}
	.st8{opacity:0.2;fill:none;stroke:#7190FF;enable-background:new    ;}
</style>
<path class="st0" d="M59.7,689.5c0,0,171.4,0,615.1,0"/>
<path class="st0" d="M59.7,529.4h531"/>
<path class="st0" d="M59.7,239.8c0,0,16.6,0,460.3,0"/>
<path class="st0" d="M59.7,381.1H520"/>
<path class="st0" d="M126.8,849.6h463.9"/>
<path class="st0" d="M203.3,926.1V60.8"/>
<path class="st0" d="M492.9,205.6v202.5"/>
<path class="st0" d="M422.3,172.7c0,0,0,172.4,0,268.4"/>
<path class="st0" d="M59.7,1063.9c0,0,16.6,0,460.3,0"/>
<path class="st0" d="M492.9,1029.8v202.5"/>
<path class="st0" d="M422.3,996.8c0,0,0,172.4,0,268.4"/>
<path class="st0" d="M523.5,482.3v405"/>
<circle class="st0" cx="203.3" cy="381.1" r="140.7"/>
<circle class="st0" cx="422.3" cy="310.4" r="70.6"/>
<circle class="st0" cx="422.3" cy="1134.5" r="70.6"/>
<circle class="st0" cx="203.3" cy="773.1" r="76.5"/>
<g class="st1">
	<path class="st2" d="M203.3,239.8c78.1,0,141.3,63.2,141.3,141.3s-63.2,141.3-141.3,141.3V520c76.8,0,138.9-62.2,138.9-138.9
		S280,242.2,203.3,242.2L203.3,239.8L203.3,239.8z"/>
	<path class="st2" d="M203.3,249.2c72.9,0,131.9,59,131.9,131.9S276.2,513,203.3,513v-2.4c71.6,0,129.5-57.9,129.5-129.5
		s-57.9-129.5-129.5-129.5L203.3,249.2L203.3,249.2z"/>
	<path class="st2" d="M203.3,258.6c67.6,0,122.4,54.9,122.4,122.4s-54.9,122.4-122.4,122.4V501c66.3,0,120.1-53.8,120.1-120.1
		S269.6,261,203.3,261V258.6z"/>
	<path class="st2" d="M203.3,268c62.4,0,113,50.6,113,113s-50.6,113-113,113v-2.4c61.1,0,110.7-49.6,110.7-110.7
		s-49.6-110.7-110.7-110.7V268z"/>
	<path class="st2" d="M203.3,484.7c57.2,0,103.6-46.4,103.6-103.6s-46.4-103.6-103.6-103.6v2.4c55.9,0,101.2,45.3,101.2,101.2
		s-45.3,101.2-101.2,101.2V484.7z"/>
	<path class="st2" d="M203.3,475.2c52,0,94.2-42.1,94.2-94.2s-42.1-94.2-94.2-94.2v2.4c50.7,0,91.8,41.1,91.8,91.8
		s-41.1,91.8-91.8,91.8V475.2z"/>
	<path class="st2" d="M203.3,465.8c46.9,0,84.8-37.9,84.8-84.8s-37.9-84.8-84.8-84.8v2.4c45.6,0,82.4,36.8,82.4,82.4
		s-36.8,82.4-82.4,82.4L203.3,465.8L203.3,465.8z"/>
	<path class="st2" d="M203.3,456.4c41.6,0,75.3-33.8,75.3-75.3s-33.8-75.3-75.3-75.3v2.4c40.3,0,73,32.7,73,73s-32.7,73-73,73
		L203.3,456.4L203.3,456.4z"/>
	<path class="st2" d="M203.3,447c36.4,0,65.9-29.5,65.9-65.9s-29.5-65.9-65.9-65.9v2.4c35.1,0,63.6,28.5,63.6,63.6
		s-28.5,63.6-63.6,63.6L203.3,447L203.3,447z"/>
	<path class="st2" d="M203.3,437.6c31.2,0,56.5-25.3,56.5-56.5s-25.3-56.5-56.5-56.5v2.4c29.9,0,54.2,24.3,54.2,54.2
		c0,29.9-24.3,54.2-54.2,54.2V437.6z"/>
	<path class="st2" d="M203.3,428.2c26,0,47.1-21.1,47.1-47.1S229.3,334,203.3,334v2.4c24.7,0,44.7,20,44.7,44.7s-20,44.7-44.7,44.7
		V428.2z"/>
	<path class="st2" d="M203.3,418.7c20.8,0,37.7-16.8,37.7-37.7s-16.8-37.7-37.7-37.7v2.4c19.5,0,35.3,15.8,35.3,35.3
		s-15.8,35.3-35.3,35.3V418.7z"/>
	<path class="st2" d="M203.3,409.3c15.7,0,28.3-12.6,28.3-28.3c0-15.7-12.6-28.3-28.3-28.3v2.4c14.4,0,25.9,11.7,25.9,25.9
		s-11.5,26-25.9,26V409.3z"/>
	<path class="st2" d="M203.3,399.9c10.4,0,18.8-8.5,18.8-18.8s-8.5-18.8-18.8-18.8v2.4c9.1,0,16.5,7.4,16.5,16.5
		s-7.4,16.5-16.5,16.5V399.9z"/>
	<path class="st2" d="M203.3,390.5c5.2,0,9.4-4.2,9.4-9.4c0-5.2-4.2-9.4-9.4-9.4v2.4c3.9,0,7.1,3.2,7.1,7.1s-3.2,7.1-7.1,7.1V390.5z
		"/>
</g>
<g class="st1">
	<path class="st2" d="M203.3,239.8v2.4H58.5v-2.4H203.3z"/>
	<path class="st2" d="M203.3,249.2v2.4H58.5v-2.4H203.3z"/>
	<path class="st2" d="M203.3,258.6v2.4H58.5v-2.4H203.3z"/>
	<path class="st2" d="M203.3,268v2.4H58.5V268H203.3z"/>
	<path class="st2" d="M203.3,277.5v2.4H58.5v-2.4H203.3z"/>
	<path class="st2" d="M203.3,286.9v2.4H58.5v-2.4H203.3z"/>
	<path class="st2" d="M203.3,296.3v2.4H58.5v-2.4H203.3z"/>
	<path class="st2" d="M203.3,305.7v2.4H58.5v-2.4H203.3z"/>
	<path class="st2" d="M203.3,315.1v2.4H58.5v-2.4H203.3z"/>
	<path class="st2" d="M203.3,324.6v2.4H58.5v-2.4H203.3z"/>
	<path class="st2" d="M203.3,334v2.4H58.5V334H203.3z"/>
	<path class="st2" d="M203.3,343.4v2.4H58.5v-2.4H203.3z"/>
	<path class="st2" d="M203.3,352.8v2.4H58.5v-2.4H203.3z"/>
	<path class="st2" d="M203.3,362.2v2.4H58.5v-2.4H203.3z"/>
	<path class="st2" d="M203.3,371.6v2.4H58.5v-2.4H203.3z"/>
</g>
<path class="st3" d="M351.6,310.4c0,39,31.7,70.6,70.6,70.6V239.8C383.3,239.8,351.6,271.5,351.6,310.4z"/>
<path class="st4" d="M351.6,1134.5c0,39,31.7,70.6,70.6,70.6v-141.3C383.3,1063.9,351.6,1095.6,351.6,1134.5z"/>
<path class="st0" d="M1147.5,192.7c0,0,16.6,0,460.3,0"/>
<path class="st0" d="M1580.7,158.6v202.5"/>
<path class="st0" d="M1510.1,125.6c0,0,0,172.4,0,268.4"/>
<circle class="st0" cx="1510.1" cy="263.3" r="70.6"/>
<path class="st5" d="M279.8,773.1c0-42.3-34.3-76.5-76.5-76.5v153C245.6,849.6,279.8,815.4,279.8,773.1z"/>
<g class="st6">
	<path class="st7" d="M363.2,437.6c87.1,0,157.8,70.6,157.8,157.8s-70.6,157.8-157.8,157.8v2.4c88.4,0,160.1-71.7,160.1-160.1
		s-71.7-160.1-160.1-160.1L363.2,437.6L363.2,437.6z"/>
	<path class="st7" d="M363.2,444.6c83.2,0,150.7,67.5,150.7,150.7S446.4,746,363.2,746v-2.4c81.9,0,148.3-66.4,148.3-148.3
		S445.1,447,363.2,447V444.6L363.2,444.6z"/>
	<path class="st7" d="M363.2,454.1c78.1,0,141.3,63.2,141.3,141.3s-63.2,141.3-141.3,141.3v-2.4c76.8,0,138.9-62.2,138.9-138.9
		s-62.2-138.9-138.9-138.9V454.1L363.2,454.1z"/>
	<path class="st7" d="M363.2,463.5c72.9,0,131.9,59,131.9,131.9s-59,131.9-131.9,131.9v-2.4c71.6,0,129.5-57.9,129.5-129.5
		s-57.9-129.5-129.5-129.5V463.5L363.2,463.5z"/>
	<path class="st7" d="M363.2,472.9c67.6,0,122.4,54.9,122.4,122.4s-54.9,122.4-122.4,122.4v-2.4c66.3,0,120.1-53.8,120.1-120.1
		s-53.8-120.1-120.1-120.1V472.9L363.2,472.9z"/>
	<path class="st7" d="M363.2,482.3c62.4,0,113,50.6,113,113s-50.6,113-113,113V706c61.1,0,110.7-49.6,110.7-110.7
		s-49.6-110.7-110.7-110.7V482.3L363.2,482.3z"/>
	<path class="st7" d="M363.2,698.9c57.2,0,103.6-46.4,103.6-103.6c0-57.2-46.4-103.6-103.6-103.6v2.4c55.9,0,101.2,45.3,101.2,101.2
		s-45.3,101.2-101.2,101.2V698.9L363.2,698.9z"/>
	<path class="st7" d="M363.2,689.5c52,0,94.2-42.1,94.2-94.2c0-52-42.1-94.2-94.2-94.2v2.4c50.7,0,91.8,41.1,91.8,91.8
		s-41.1,91.8-91.8,91.8V689.5L363.2,689.5z"/>
	<path class="st7" d="M363.2,680.1c46.9,0,84.8-37.9,84.8-84.8s-37.9-84.8-84.8-84.8v2.4c45.6,0,82.4,36.8,82.4,82.4
		c0,45.6-36.8,82.4-82.4,82.4V680.1L363.2,680.1z"/>
	<path class="st7" d="M363.2,670.7c41.6,0,75.3-33.8,75.3-75.3c0-41.6-33.8-75.3-75.3-75.3v2.4c40.3,0,73,32.7,73,73s-32.7,73-73,73
		V670.7L363.2,670.7z"/>
	<path class="st7" d="M363.2,661.3c36.4,0,65.9-29.5,65.9-65.9s-29.5-65.9-65.9-65.9v2.4c35.1,0,63.6,28.5,63.6,63.6
		s-28.5,63.6-63.6,63.6V661.3L363.2,661.3z"/>
	<path class="st7" d="M363.2,651.8c31.2,0,56.5-25.3,56.5-56.5s-25.3-56.5-56.5-56.5v2.4c29.9,0,54.2,24.3,54.2,54.2
		s-24.3,54.2-54.2,54.2V651.8L363.2,651.8z"/>
	<path class="st7" d="M363.2,642.4c26,0,47.1-21.1,47.1-47.1s-21.1-47.1-47.1-47.1v2.4c24.7,0,44.7,20,44.7,44.7s-20,44.7-44.7,44.7
		V642.4L363.2,642.4z"/>
	<path class="st7" d="M363.2,633c20.8,0,37.7-16.8,37.7-37.7c0-20.8-16.8-37.7-37.7-37.7v2.4c19.5,0,35.3,15.8,35.3,35.3
		s-15.8,35.3-35.3,35.3V633L363.2,633z"/>
	<path class="st7" d="M363.2,623.6c15.7,0,28.3-12.6,28.3-28.3S378.9,567,363.2,567v2.4c14.4,0,25.9,11.7,25.9,25.9
		s-11.5,25.9-25.9,25.9V623.6L363.2,623.6z"/>
	<path class="st7" d="M363.2,614.2c10.4,0,18.8-8.5,18.8-18.8c0-10.4-8.5-18.8-18.8-18.8v2.4c9.1,0,16.5,7.4,16.5,16.5
		s-7.4,16.5-16.5,16.5V614.2L363.2,614.2z"/>
	<path class="st7" d="M363.2,604.7c5.2,0,9.4-4.2,9.4-9.4s-4.2-9.4-9.4-9.4v2.4c3.9,0,7.1,3.2,7.1,7.1c0,3.9-3.2,7.1-7.1,7.1V604.7z
		"/>
</g>
<g class="st6">
	<path class="st7" d="M363.4,435.2v2.4H203.3v-2.4H363.4z"/>
	<path class="st7" d="M363.4,444.6v2.4H203.3v-2.4H363.4z"/>
	<path class="st7" d="M363.4,454.1v2.4H203.3v-2.4H363.4z"/>
	<path class="st7" d="M363.4,463.5v2.4H203.3v-2.4H363.4z"/>
	<path class="st7" d="M363.4,472.9v2.4H203.3v-2.4H363.4z"/>
	<path class="st7" d="M363.4,482.3v2.4H203.3v-2.4H363.4z"/>
	<path class="st7" d="M363.4,491.7v2.4H203.3v-2.4H363.4z"/>
	<path class="st7" d="M363.4,501.1v2.4H203.3v-2.4H363.4z"/>
	<path class="st7" d="M363.4,510.6v2.4H203.3v-2.4H363.4z"/>
	<path class="st7" d="M363.4,520v2.4H203.3V520H363.4z"/>
	<path class="st7" d="M363.4,529.4v2.4H203.3v-2.4H363.4z"/>
	<path class="st7" d="M363.4,538.8v2.4H203.3v-2.4H363.4z"/>
	<path class="st7" d="M363.4,548.2v2.4H203.3v-2.4H363.4z"/>
	<path class="st7" d="M363.4,557.7v2.4H203.3v-2.4H363.4z"/>
	<path class="st7" d="M363.4,567.1v2.4H203.3v-2.4H363.4z"/>
	<path class="st7" d="M363.4,576.5v2.4H203.3v-2.4H363.4z"/>
	<path class="st7" d="M363.4,585.9v2.4H203.3v-2.4H363.4z"/>
</g>
<g class="st6">
	<path class="st7" d="M363.4,602.4v2.4h-71.8v-2.4H363.4z"/>
	<path class="st7" d="M363.4,611.8v2.4h-71.8v-2.4H363.4z"/>
	<path class="st7" d="M363.4,621.2v2.4h-71.8v-2.4H363.4z"/>
	<path class="st7" d="M363.4,630.7v2.4h-71.8v-2.4H363.4z"/>
	<path class="st7" d="M363.4,640.1v2.4h-71.8v-2.4H363.4z"/>
	<path class="st7" d="M363.4,649.5v2.4h-71.8v-2.4H363.4z"/>
	<path class="st7" d="M363.4,658.9v2.4h-71.8v-2.4H363.4z"/>
	<path class="st7" d="M363.4,668.3v2.4h-71.8v-2.4H363.4z"/>
	<path class="st7" d="M363.4,677.7v2.4h-71.8v-2.4H363.4z"/>
	<path class="st7" d="M363.4,687.2v2.4h-71.8v-2.4H363.4z"/>
	<path class="st7" d="M363.4,696.6v2.4h-71.8v-2.4H363.4z"/>
	<path class="st7" d="M363.4,706v2.4h-71.8V706H363.4z"/>
	<path class="st7" d="M363.4,715.4v2.4h-71.8v-2.4H363.4z"/>
	<path class="st7" d="M363.4,724.8v2.4h-71.8v-2.4H363.4z"/>
	<path class="st7" d="M363.4,734.3v2.4h-71.8v-2.4H363.4z"/>
	<path class="st7" d="M363.4,743.7v2.4h-71.8v-2.4H363.4z"/>
	<path class="st7" d="M363.4,753.1v2.4h-71.8v-2.4H363.4z"/>
</g>
<circle class="st8" cx="339.9" cy="687.2" r="588.1"/>
</svg>
