<?xml version="1.0" encoding="utf-8"?>
<!-- Generator: Adobe Illustrator 25.0.0, SVG Export Plug-In . SVG Version: 6.00 Build 0)  -->
<svg version="1.1" id="Layer_1" width="1680" height="1422" xmlns="http://www.w3.org/2000/svg" xmlns:xlink="http://www.w3.org/1999/xlink" x="0px" y="0px"
	 viewBox="0 0 1680 1422" style="enable-background:new 0 0 1680 1422;" xml:space="preserve">
<style type="text/css">
	.st0{fill:none;stroke:#B7C0F3;stroke-dasharray:2,2;}
	.st1{opacity:0.25;}
	.st2{fill:#8793FE;}
	.st3{opacity:0.95;fill:#FECF87;enable-background:new    ;}
	.st4{opacity:0.95;fill:#55A0F9;enable-background:new    ;}
	.st5{fill:#7DF0C0;}
	.st6{opacity:0.95;}
	.st7{fill:#FF8989;}
	.st8{opacity:0.2;fill:none;stroke:#7190FF;enable-background:new    ;}
</style>
<path class="st0" d="M-10,483c0,0,145.6,0,522.5,0"/>
<path class="st0" d="M-10,347h451"/>
<path class="st0" d="M-10,101c0,0,14.1,0,391,0"/>
<path class="st0" d="M-10,221h391"/>
<path class="st0" d="M47,619h394"/>
<path class="st0" d="M112,684V-51"/>
<path class="st0" d="M358,72v172"/>
<path class="st0" d="M298,44c0,0,0,146.4,0,228"/>
<path class="st0" d="M-10,801c0,0,14.1,0,391,0"/>
<path class="st0" d="M358,772v172"/>
<path class="st0" d="M298,744c0,0,0,146.4,0,228"/>
<path class="st0" d="M384,307v344"/>
<circle class="st0" cx="112" cy="221" r="119.5"/>
<circle class="st0" cx="298" cy="161" r="60"/>
<circle class="st0" cx="298" cy="861" r="60"/>
<circle class="st0" cx="112" cy="554" r="65"/>
<g class="st1">
	<path class="st2" d="M112,101c66.3,0,120,53.7,120,120s-53.7,120-120,120v-2c65.2,0,118-52.8,118-118s-52.8-118-118-118V101z"/>
	<path class="st2" d="M112,109c61.9,0,112,50.1,112,112s-50.1,112-112,112v-2c60.8,0,110-49.2,110-110s-49.2-110-110-110V109z"/>
	<path class="st2" d="M112,117c57.4,0,104,46.6,104,104s-46.6,104-104,104v-2c56.3,0,102-45.7,102-102s-45.7-102-102-102V117z"/>
	<path class="st2" d="M112,125c53,0,96,43,96,96s-43,96-96,96v-2c51.9,0,94-42.1,94-94s-42.1-94-94-94V125z"/>
	<path class="st2" d="M112,309c48.6,0,88-39.4,88-88s-39.4-88-88-88v2c47.5,0,86,38.5,86,86s-38.5,86-86,86V309z"/>
	<path class="st2" d="M112,301c44.2,0,80-35.8,80-80s-35.8-80-80-80v2c43.1,0,78,34.9,78,78s-34.9,78-78,78V301z"/>
	<path class="st2" d="M112,293c39.8,0,72-32.2,72-72c0-39.8-32.2-72-72-72v2c38.7,0,70,31.3,70,70s-31.3,70-70,70V293z"/>
	<path class="st2" d="M112,285c35.3,0,64-28.7,64-64s-28.7-64-64-64v2c34.2,0,62,27.8,62,62s-27.8,62-62,62V285z"/>
	<path class="st2" d="M112,277c30.9,0,56-25.1,56-56s-25.1-56-56-56v2c29.8,0,54,24.2,54,54s-24.2,54-54,54V277z"/>
	<path class="st2" d="M112,269c26.5,0,48-21.5,48-48s-21.5-48-48-48v2c25.4,0,46,20.6,46,46s-20.6,46-46,46V269z"/>
	<path class="st2" d="M112,261c22.1,0,40-17.9,40-40s-17.9-40-40-40v2c21,0,38,17,38,38s-17,38-38,38V261z"/>
	<path class="st2" d="M112,253c17.7,0,32-14.3,32-32s-14.3-32-32-32v2c16.6,0,30,13.4,30,30s-13.4,30-30,30V253z"/>
	<path class="st2" d="M112,245c13.3,0,24-10.7,24-24s-10.7-24-24-24v2c12.2,0,22,9.9,22,22s-9.8,22-22,22V245z"/>
	<path class="st2" d="M112,237c8.8,0,16-7.2,16-16s-7.2-16-16-16v2c7.7,0,14,6.3,14,14s-6.3,14-14,14V237z"/>
	<path class="st2" d="M112,229c4.4,0,8-3.6,8-8s-3.6-8-8-8v2c3.3,0,6,2.7,6,6s-2.7,6-6,6V229z"/>
</g>
<g class="st1">
	<path class="st2" d="M112,101v2H-11v-2H112z"/>
	<path class="st2" d="M112,109v2H-11v-2H112z"/>
	<path class="st2" d="M112,117v2H-11v-2H112z"/>
	<path class="st2" d="M112,125v2H-11v-2H112z"/>
	<path class="st2" d="M112,133v2H-11v-2H112z"/>
	<path class="st2" d="M112,141v2H-11v-2H112z"/>
	<path class="st2" d="M112,149v2H-11v-2H112z"/>
	<path class="st2" d="M112,157v2H-11v-2H112z"/>
	<path class="st2" d="M112,165v2H-11v-2H112z"/>
	<path class="st2" d="M112,173v2H-11v-2H112z"/>
	<path class="st2" d="M112,181v2H-11v-2H112z"/>
	<path class="st2" d="M112,189v2H-11v-2H112z"/>
	<path class="st2" d="M112,197v2H-11v-2H112z"/>
	<path class="st2" d="M112,205v2H-11v-2H112z"/>
	<path class="st2" d="M112,213v2H-11v-2H112z"/>
</g>
<path class="st3" d="M238,161c0,33.1,26.9,60,60,60V101C264.9,101,238,127.9,238,161z"/>
<path class="st4" d="M238,861c0,33.1,26.9,60,60,60V801C264.9,801,238,827.9,238,861z"/>
<path class="st5" d="M177,554c0-35.9-29.1-65-65-65v130C147.9,619,177,589.9,177,554z"/>
<g class="st6">
	<path class="st7" d="M247.8,269c74,0,134,60,134,134s-60,134-134,134v2c75.1,0,136-60.9,136-136s-60.9-136-136-136V269z"/>
	<path class="st7" d="M247.8,275c70.7,0,128,57.3,128,128s-57.3,128-128,128v-2c69.6,0,126-56.4,126-126s-56.4-126-126-126V275z"/>
	<path class="st7" d="M247.8,283c66.3,0,120,53.7,120,120s-53.7,120-120,120v-2c65.2,0,118-52.8,118-118s-52.8-118-118-118V283z"/>
	<path class="st7" d="M247.8,291c61.9,0,112,50.1,112,112s-50.1,112-112,112v-2c60.8,0,110-49.2,110-110s-49.2-110-110-110V291z"/>
	<path class="st7" d="M247.8,299c57.4,0,104,46.6,104,104s-46.6,104-104,104v-2c56.3,0,102-45.7,102-102s-45.7-102-102-102V299z"/>
	<path class="st7" d="M247.8,307c53,0,96,43,96,96s-43,96-96,96v-2c51.9,0,94-42.1,94-94s-42.1-94-94-94V307z"/>
	<path class="st7" d="M247.8,491c48.6,0,88-39.4,88-88s-39.4-88-88-88v2c47.5,0,86,38.5,86,86s-38.5,86-86,86V491z"/>
	<path class="st7" d="M247.8,483c44.2,0,80-35.8,80-80s-35.8-80-80-80v2c43.1,0,78,34.9,78,78s-34.9,78-78,78V483z"/>
	<path class="st7" d="M247.8,475c39.8,0,72-32.2,72-72c0-39.8-32.2-72-72-72v2c38.7,0,70,31.3,70,70s-31.3,70-70,70V475z"/>
	<path class="st7" d="M247.8,467c35.3,0,64-28.7,64-64s-28.7-64-64-64v2c34.2,0,62,27.8,62,62s-27.8,62-62,62V467z"/>
	<path class="st7" d="M247.8,459c30.9,0,56-25.1,56-56s-25.1-56-56-56v2c29.8,0,54,24.2,54,54s-24.2,54-54,54V459z"/>
	<path class="st7" d="M247.8,451c26.5,0,48-21.5,48-48s-21.5-48-48-48v2c25.4,0,46,20.6,46,46s-20.6,46-46,46V451z"/>
	<path class="st7" d="M247.8,443c22.1,0,40-17.9,40-40s-17.9-40-40-40v2c21,0,38,17,38,38s-17,38-38,38V443z"/>
	<path class="st7" d="M247.8,435c17.7,0,32-14.3,32-32s-14.3-32-32-32v2c16.6,0,30,13.4,30,30s-13.4,30-30,30V435z"/>
	<path class="st7" d="M247.8,427c13.3,0,24-10.7,24-24s-10.7-24-24-24v2c12.2,0,22,9.9,22,22s-9.8,22-22,22V427z"/>
	<path class="st7" d="M247.8,419c8.8,0,16-7.2,16-16s-7.2-16-16-16v2c7.7,0,14,6.3,14,14s-6.3,14-14,14V419z"/>
	<path class="st7" d="M247.8,411c4.4,0,8-3.6,8-8s-3.6-8-8-8v2c3.3,0,6,2.7,6,6s-2.7,6-6,6V411z"/>
</g>
<g class="st6">
	<path class="st7" d="M248,267v2H112v-2H248z"/>
	<path class="st7" d="M248,275v2H112v-2H248z"/>
	<path class="st7" d="M248,283v2H112v-2H248z"/>
	<path class="st7" d="M248,291v2H112v-2H248z"/>
	<path class="st7" d="M248,299v2H112v-2H248z"/>
	<path class="st7" d="M248,307v2H112v-2H248z"/>
	<path class="st7" d="M248,315v2H112v-2H248z"/>
	<path class="st7" d="M248,323v2H112v-2H248z"/>
	<path class="st7" d="M248,331v2H112v-2H248z"/>
	<path class="st7" d="M248,339v2H112v-2H248z"/>
	<path class="st7" d="M248,347v2H112v-2H248z"/>
	<path class="st7" d="M248,355v2H112v-2H248z"/>
	<path class="st7" d="M248,363v2H112v-2H248z"/>
	<path class="st7" d="M248,371v2H112v-2H248z"/>
	<path class="st7" d="M248,379v2H112v-2H248z"/>
	<path class="st7" d="M248,387v2H112v-2H248z"/>
	<path class="st7" d="M248,395v2H112v-2H248z"/>
</g>
<g class="st6">
	<path class="st7" d="M248,409v2h-61v-2H248z"/>
	<path class="st7" d="M248,417v2h-61v-2H248z"/>
	<path class="st7" d="M248,425v2h-61v-2H248z"/>
	<path class="st7" d="M248,433v2h-61v-2H248z"/>
	<path class="st7" d="M248,441v2h-61v-2H248z"/>
	<path class="st7" d="M248,449v2h-61v-2H248z"/>
	<path class="st7" d="M248,457v2h-61v-2H248z"/>
	<path class="st7" d="M248,465v2h-61v-2H248z"/>
	<path class="st7" d="M248,473v2h-61v-2H248z"/>
	<path class="st7" d="M248,481v2h-61v-2H248z"/>
	<path class="st7" d="M248,489v2h-61v-2H248z"/>
	<path class="st7" d="M248,497v2h-61v-2H248z"/>
	<path class="st7" d="M248,505v2h-61v-2H248z"/>
	<path class="st7" d="M248,513v2h-61v-2H248z"/>
	<path class="st7" d="M248,521v2h-61v-2H248z"/>
	<path class="st7" d="M248,529v2h-61v-2H248z"/>
	<path class="st7" d="M248,537v2h-61v-2H248z"/>
</g>
<circle class="st8" cx="228" cy="481" r="499.5"/>
<path class="st8" d="M1805.5,53c0,194.7-157.1,352.5-350.9,352.5c-193.8,0-350.9-157.8-350.9-352.5c0-194.7,157.1-352.5,350.9-352.5
	C1648.4-299.5,1805.5-141.7,1805.5,53z"/>
</svg>
