<svg width="350" height="322" viewBox="0 0 350 322" fill="none" xmlns="http://www.w3.org/2000/svg">
<g opacity="0.95">
<path d="M349.97 145.367C349.97 241.23 272.258 318.942 176.396 318.942C80.533 318.942 2.82114 241.23 2.82113 145.367L0.230469 145.367C0.230474 242.66 79.1023 321.532 176.396 321.532C273.689 321.532 352.561 242.66 352.561 145.367L349.97 145.367Z" fill="#9EFFE8"/>
<path d="M342.198 145.367C342.198 236.937 267.966 311.17 176.396 311.17C84.8254 311.17 10.5931 236.937 10.5931 145.367L13.1838 145.367C13.1838 235.507 86.2562 308.579 176.396 308.579C266.535 308.579 339.607 235.507 339.607 145.367L342.198 145.367Z" fill="#9EFFE8"/>
<path d="M331.835 145.367C331.835 231.214 262.243 300.807 176.396 300.807C90.5485 300.807 20.9558 231.214 20.9558 145.367L23.5464 145.367C23.5464 229.783 91.9793 298.216 176.396 298.216C260.812 298.216 329.245 229.783 329.245 145.367L331.835 145.367Z" fill="#9EFFE8"/>
<path d="M321.473 145.367C321.473 225.491 256.519 290.444 176.396 290.444C96.2716 290.444 31.3184 225.491 31.3184 145.367L33.9091 145.367C33.9091 224.06 97.7024 287.854 176.396 287.854C255.089 287.854 318.882 224.06 318.882 145.367L321.473 145.367Z" fill="#9EFFE8"/>
<path d="M311.11 145.367C311.11 219.768 250.796 280.082 176.396 280.082C101.995 280.082 41.6811 219.768 41.6811 145.367L44.2717 145.367C44.2717 218.337 103.426 277.491 176.396 277.491C249.365 277.491 308.519 218.337 308.519 145.367L311.11 145.367Z" fill="#9EFFE8"/>
<path d="M300.747 145.367C300.747 214.045 245.073 269.719 176.396 269.719C107.718 269.719 52.0437 214.045 52.0437 145.367L54.6344 145.367C54.6344 212.614 109.149 267.128 176.396 267.128C243.642 267.128 298.157 212.614 298.157 145.367L300.747 145.367Z" fill="#9EFFE8"/>
<path d="M62.4064 145.367C62.4064 208.322 113.441 259.356 176.396 259.356C239.35 259.356 290.385 208.322 290.385 145.367L287.794 145.367C287.794 206.891 237.919 256.766 176.396 256.766C114.872 256.766 64.997 206.891 64.997 145.367L62.4064 145.367Z" fill="#9EFFE8"/>
<path d="M72.769 145.367C72.769 202.598 119.164 248.994 176.396 248.994C233.627 248.994 280.022 202.598 280.022 145.367L277.431 145.367C277.431 201.168 232.196 246.403 176.396 246.403C120.595 246.403 75.3597 201.168 75.3597 145.367L72.769 145.367Z" fill="#9EFFE8"/>
<path d="M83.1317 145.367C83.1317 196.875 124.887 238.631 176.396 238.631C227.904 238.631 269.659 196.875 269.659 145.367L267.069 145.367C267.069 195.445 226.473 236.04 176.396 236.04C126.318 236.04 85.7223 195.445 85.7223 145.367L83.1317 145.367Z" fill="#9EFFE8"/>
<path d="M93.4943 145.367C93.4943 191.152 130.61 228.268 176.396 228.268C222.181 228.268 259.297 191.152 259.297 145.367L256.706 145.367C256.706 189.721 220.75 225.678 176.396 225.678C132.041 225.678 96.085 189.721 96.085 145.367L93.4943 145.367Z" fill="#9EFFE8"/>
<path d="M103.857 145.367C103.857 185.429 136.334 217.906 176.396 217.906C216.457 217.906 248.934 185.429 248.934 145.367L246.343 145.367C246.343 183.998 215.027 215.315 176.396 215.315C137.764 215.315 106.448 183.998 106.448 145.367L103.857 145.367Z" fill="#9EFFE8"/>
<path d="M114.22 145.367C114.22 179.706 142.057 207.543 176.396 207.543C210.734 207.543 238.571 179.706 238.571 145.367L235.981 145.367C235.981 178.275 209.304 204.952 176.396 204.952C143.487 204.952 116.81 178.275 116.81 145.367L114.22 145.367Z" fill="#9EFFE8"/>
<path d="M124.582 145.367C124.582 173.983 147.78 197.18 176.396 197.18C205.011 197.18 228.209 173.983 228.209 145.367L225.618 145.367C225.618 172.552 203.58 194.59 176.396 194.59C149.211 194.59 127.173 172.552 127.173 145.367L124.582 145.367Z" fill="#9EFFE8"/>
<path d="M134.945 145.367C134.945 168.26 153.503 186.818 176.396 186.818C199.288 186.818 217.846 168.26 217.846 145.367L215.255 145.367C215.255 166.829 197.857 184.227 176.396 184.227C154.934 184.227 137.536 166.829 137.536 145.367L134.945 145.367Z" fill="#9EFFE8"/>
<path d="M145.308 145.367C145.308 162.537 159.226 176.455 176.396 176.455C193.565 176.455 207.483 162.537 207.483 145.367L204.893 145.367C204.893 161.106 192.134 173.864 176.396 173.864C160.657 173.864 147.898 161.106 147.898 145.367L145.308 145.367Z" fill="#9EFFE8"/>
<path d="M155.67 145.367C155.67 156.813 164.949 166.092 176.396 166.092C187.842 166.092 197.121 156.813 197.121 145.367L194.53 145.367C194.53 155.383 186.411 163.502 176.396 163.502C166.38 163.502 158.261 155.383 158.261 145.367L155.67 145.367Z" fill="#9EFFE8"/>
<path d="M166.033 145.367C166.033 151.09 170.672 155.73 176.396 155.73C182.119 155.73 186.758 151.09 186.758 145.367L184.167 145.367C184.167 149.66 180.688 153.139 176.396 153.139C172.103 153.139 168.624 149.66 168.624 145.367L166.033 145.367Z" fill="#9EFFE8"/>
</g>
<g opacity="0.95">
<path d="M352.559 145.594L349.968 145.594L349.968 -30.5708L352.559 -30.5708L352.559 145.594Z" fill="#9EFFE8"/>
<path d="M342.196 145.594L339.606 145.594L339.606 -30.5708L342.196 -30.5708L342.196 145.594Z" fill="#9EFFE8"/>
<path d="M331.834 145.594L329.243 145.594L329.243 -30.5708L331.834 -30.5708L331.834 145.594Z" fill="#9EFFE8"/>
<path d="M321.471 145.594L318.88 145.594L318.88 -30.5708L321.471 -30.5708L321.471 145.594Z" fill="#9EFFE8"/>
<path d="M311.108 145.594L308.518 145.594L308.518 -30.5708L311.108 -30.5708L311.108 145.594Z" fill="#9EFFE8"/>
<path d="M300.746 145.594L298.155 145.594L298.155 -30.5708L300.746 -30.5708L300.746 145.594Z" fill="#9EFFE8"/>
<path d="M290.383 145.594L287.793 145.594L287.793 -30.5708L290.383 -30.5708L290.383 145.594Z" fill="#9EFFE8"/>
<path d="M280.021 145.594L277.43 145.594L277.43 -30.5708L280.021 -30.5708L280.021 145.594Z" fill="#9EFFE8"/>
<path d="M269.658 145.594L267.067 145.594L267.067 -30.5708L269.658 -30.5708L269.658 145.594Z" fill="#9EFFE8"/>
<path d="M259.295 145.594L256.705 145.594L256.705 -30.5708L259.295 -30.5708L259.295 145.594Z" fill="#9EFFE8"/>
<path d="M248.933 145.594L246.342 145.594L246.342 -30.5708L248.933 -30.5708L248.933 145.594Z" fill="#9EFFE8"/>
<path d="M238.57 145.594L235.979 145.594L235.979 -30.5708L238.57 -30.5708L238.57 145.594Z" fill="#9EFFE8"/>
<path d="M228.207 145.594L225.617 145.594L225.617 -30.5708L228.207 -30.5708L228.207 145.594Z" fill="#9EFFE8"/>
<path d="M217.845 145.594L215.254 145.594L215.254 -30.5708L217.845 -30.5708L217.845 145.594Z" fill="#9EFFE8"/>
<path d="M207.482 145.594L204.891 145.594L204.891 -30.5708L207.482 -30.5708L207.482 145.594Z" fill="#9EFFE8"/>
<path d="M197.119 145.594L194.529 145.594L194.529 -30.5708L197.119 -30.5708L197.119 145.594Z" fill="#9EFFE8"/>
<path d="M186.757 145.594L184.166 145.594L184.166 -30.5708L186.757 -30.5708L186.757 145.594Z" fill="#9EFFE8"/>
</g>
<g opacity="0.95">
<path d="M168.629 145.594L166.038 145.594L166.038 52.9834L168.629 52.9834L168.629 145.594Z" fill="#9EFFE8"/>
<path d="M158.266 145.594L155.676 145.594L155.676 52.9834L158.266 52.9834L158.266 145.594Z" fill="#9EFFE8"/>
<path d="M147.904 145.594L145.313 145.594L145.313 52.9834L147.904 52.9834L147.904 145.594Z" fill="#9EFFE8"/>
<path d="M137.541 145.594L134.95 145.594L134.95 52.9834L137.541 52.9834L137.541 145.594Z" fill="#9EFFE8"/>
<path d="M127.178 145.594L124.588 145.594L124.588 52.9834L127.178 52.9834L127.178 145.594Z" fill="#9EFFE8"/>
<path d="M116.816 145.594L114.225 145.594L114.225 52.9834L116.816 52.9834L116.816 145.594Z" fill="#9EFFE8"/>
<path d="M106.453 145.594L103.862 145.594L103.862 52.9834L106.453 52.9834L106.453 145.594Z" fill="#9EFFE8"/>
<path d="M96.0904 145.594L93.4997 145.594L93.4997 52.9834L96.0904 52.9834L96.0904 145.594Z" fill="#9EFFE8"/>
<path d="M85.7277 145.594L83.1371 145.594L83.1371 52.9834L85.7277 52.9834L85.7277 145.594Z" fill="#9EFFE8"/>
<path d="M75.3651 145.594L72.7744 145.594L72.7744 52.9834L75.3651 52.9834L75.3651 145.594Z" fill="#9EFFE8"/>
<path d="M65.0024 145.594L62.4118 145.594L62.4118 52.9834L65.0024 52.9834L65.0024 145.594Z" fill="#9EFFE8"/>
<path d="M54.6398 145.594L52.0491 145.594L52.0491 52.9834L54.6398 52.9834L54.6398 145.594Z" fill="#9EFFE8"/>
<path d="M44.2771 145.594L41.6865 145.594L41.6865 52.9834L44.2771 52.9834L44.2771 145.594Z" fill="#9EFFE8"/>
<path d="M33.9145 145.594L31.3238 145.594L31.3238 52.9834L33.9145 52.9834L33.9145 145.594Z" fill="#9EFFE8"/>
<path d="M23.5518 145.594L20.9612 145.594L20.9612 52.9834L23.5518 52.9834L23.5518 145.594Z" fill="#9EFFE8"/>
<path d="M13.1892 145.594L10.5985 145.594L10.5985 52.9834L13.1892 52.9834L13.1892 145.594Z" fill="#9EFFE8"/>
<path d="M2.82652 145.594L0.235855 145.594L0.235858 52.9834L2.82653 52.9834L2.82652 145.594Z" fill="#9EFFE8"/>
</g>
</svg>
