<svg width="187" height="173" viewBox="0 0 187 173" fill="none" xmlns="http://www.w3.org/2000/svg">
<g id="Vector" opacity="0.25">
<path d="M0.71582 0.587891L0.71582 3.60815L186.462 3.60815L186.462 0.587882L0.71582 0.587891Z" fill="#8793FE"/>
<path d="M0.715821 12.6689L0.715821 15.6892L186.462 15.6892L186.462 12.6689L0.715821 12.6689Z" fill="#8793FE"/>
<path d="M0.715821 24.75L0.715821 27.7703L186.462 27.7702L186.462 24.75L0.715821 24.75Z" fill="#8793FE"/>
<path d="M0.715822 36.831L0.715822 39.8513L186.462 39.8513L186.462 36.831L0.715822 36.831Z" fill="#8793FE"/>
<path d="M0.715822 48.9121L0.715823 51.9324L186.462 51.9323L186.462 48.9121L0.715822 48.9121Z" fill="#8793FE"/>
<path d="M0.715823 60.9931L0.715823 64.0134L186.462 64.0134L186.462 60.9931L0.715823 60.9931Z" fill="#8793FE"/>
<path d="M0.715823 73.0742L0.715824 76.0945L186.462 76.0945L186.462 73.0742L0.715823 73.0742Z" fill="#8793FE"/>
<path d="M0.715824 85.1552L0.715824 88.1755L186.462 88.1755L186.462 85.1552L0.715824 85.1552Z" fill="#8793FE"/>
<path d="M0.715825 97.2363L0.715825 100.257L186.462 100.257L186.462 97.2363L0.715825 97.2363Z" fill="#8793FE"/>
<path d="M0.715825 109.317L0.715825 112.338L186.462 112.338L186.462 109.317L0.715825 109.317Z" fill="#8793FE"/>
<path d="M0.715826 121.398L0.715826 124.419L186.462 124.419L186.462 121.398L0.715826 121.398Z" fill="#8793FE"/>
<path d="M0.715826 133.479L0.715826 136.5L186.462 136.5L186.462 133.479L0.715826 133.479Z" fill="#8793FE"/>
<path d="M0.715827 145.561L0.715827 148.581L186.462 148.581L186.462 145.56L0.715827 145.561Z" fill="#8793FE"/>
<path d="M0.715827 157.642L0.715827 160.662L186.462 160.662L186.462 157.642L0.715827 157.642Z" fill="#8793FE"/>
<path d="M0.715828 169.723L0.715828 172.743L186.462 172.743L186.462 169.723L0.715828 169.723Z" fill="#8793FE"/>
</g>
</svg>
