<svg width="371" height="741" viewBox="0 0 371 741" fill="none" xmlns="http://www.w3.org/2000/svg">
<g opacity="0.25">
<path d="M371 -0.00274658C166.402 -0.00274414 0.543053 165.856 0.543056 370.454C0.543058 575.052 166.402 740.911 371 740.911L371 734.737C169.812 734.737 6.71731 571.642 6.71731 370.454C6.71731 169.266 169.812 6.17151 371 6.17151L371 -0.00274658Z" fill="#DC9731"/>
<path d="M371 24.6943C180.042 24.6943 25.2402 179.496 25.2402 370.454C25.2402 561.412 180.042 716.214 371 716.214L371 710.04C183.452 710.04 31.4145 558.002 31.4145 370.454C31.4145 182.906 183.452 30.8687 371 30.8687L371 24.6943Z" fill="#DC9731"/>
<path d="M371 49.3915C193.682 49.3915 49.9373 193.136 49.9373 370.454C49.9373 547.772 193.682 691.517 371 691.517L371 685.343C197.092 685.343 56.1116 544.362 56.1116 370.454C56.1116 196.546 197.092 55.5658 371 55.5658L371 49.3915Z" fill="#DC9731"/>
<path d="M371 74.0886C207.322 74.0886 74.6344 206.776 74.6344 370.454C74.6344 534.132 207.322 666.82 371 666.82L371 660.645C210.732 660.645 80.8087 530.722 80.8087 370.454C80.8087 210.186 210.732 80.2629 371 80.2629L371 74.0886Z" fill="#DC9731"/>
<path d="M371 642.123C220.962 642.123 99.3316 520.493 99.3316 370.454C99.3316 220.416 220.962 98.7858 371 98.7858L371 104.96C224.372 104.96 105.506 223.826 105.506 370.454C105.506 517.083 224.372 635.948 371 635.948L371 642.123Z" fill="#DC9731"/>
<path d="M371 617.425C234.602 617.425 124.029 506.853 124.029 370.454C124.029 234.056 234.602 123.483 371 123.483L371 129.657C238.011 129.657 130.203 237.466 130.203 370.454C130.203 503.443 238.011 611.251 371 611.251L371 617.425Z" fill="#DC9731"/>
<path d="M371 592.728C248.241 592.728 148.726 493.213 148.726 370.454C148.726 247.696 248.241 148.18 371 148.18L371 154.354C251.651 154.354 154.9 251.105 154.9 370.454C154.9 489.803 251.651 586.554 371 586.554L371 592.728Z" fill="#DC9731"/>
<path d="M371 568.031C261.881 568.031 173.423 479.573 173.423 370.454C173.423 261.335 261.881 172.877 371 172.877L371 179.051C265.291 179.051 179.597 264.745 179.597 370.454C179.597 476.163 265.291 561.857 371 561.857L371 568.031Z" fill="#DC9731"/>
<path d="M371 543.334C275.521 543.334 198.12 465.933 198.12 370.454C198.12 274.975 275.521 197.574 371 197.574L371 203.749C278.931 203.749 204.294 278.385 204.294 370.454C204.294 462.523 278.931 537.16 371 537.16L371 543.334Z" fill="#DC9731"/>
<path d="M371 518.637C289.161 518.637 222.817 452.293 222.817 370.454C222.817 288.615 289.161 222.271 371 222.271L371 228.446C292.571 228.446 228.991 292.025 228.991 370.454C228.991 448.883 292.571 512.463 371 512.463L371 518.637Z" fill="#DC9731"/>
<path d="M371 493.94C302.801 493.94 247.514 438.653 247.514 370.454C247.514 302.255 302.801 246.969 371 246.969L371 253.143C306.211 253.143 253.689 305.665 253.689 370.454C253.689 435.243 306.211 487.766 371 487.766L371 493.94Z" fill="#DC9731"/>
<path d="M371 469.243C316.441 469.243 272.211 425.014 272.211 370.454C272.211 315.895 316.441 271.666 371 271.666L371 277.84C319.851 277.84 278.386 319.305 278.386 370.454C278.386 421.604 319.851 463.068 371 463.068L371 469.243Z" fill="#DC9731"/>
<path d="M371 444.546C330.08 444.546 296.909 411.374 296.909 370.454C296.909 329.535 330.08 296.363 371 296.363L371 302.537C333.49 302.537 303.083 332.945 303.083 370.454C303.083 407.964 333.49 438.371 371 438.371L371 444.546Z" fill="#DC9731"/>
<path d="M371 419.848C343.72 419.848 321.606 397.734 321.606 370.454C321.606 343.175 343.72 321.06 371 321.06L371 327.234C347.13 327.234 327.78 346.584 327.78 370.454C327.78 394.324 347.13 413.674 371 413.674L371 419.848Z" fill="#DC9731"/>
<path d="M371 395.151C357.36 395.151 346.303 384.094 346.303 370.454C346.303 356.814 357.36 345.757 371 345.757L371 351.931C360.77 351.931 352.477 360.224 352.477 370.454C352.477 380.684 360.77 388.977 371 388.977L371 395.151Z" fill="#DC9731"/>
</g>
</svg>
