<svg width="272" height="272" viewBox="0 0 272 272" fill="none" xmlns="http://www.w3.org/2000/svg">
<g opacity="0.95">
<path d="M135.825 2C209.832 2 269.825 61.9938 269.825 136C269.825 210.006 209.832 270 135.825 270L135.825 272C210.936 272 271.825 211.111 271.825 136C271.825 60.8893 210.936 -3.29809e-06 135.825 0L135.825 2Z" fill="#FF8989"/>
<path d="M135.825 8C206.518 8 263.825 65.3076 263.825 136C263.825 206.692 206.518 264 135.825 264L135.825 262C205.413 262 261.825 205.588 261.825 136C261.825 66.4121 205.413 10 135.825 10L135.825 8Z" fill="#FF8989"/>
<path d="M135.825 16C202.1 16 255.825 69.7258 255.825 136C255.825 202.274 202.1 256 135.825 256L135.825 254C200.995 254 253.825 201.17 253.825 136C253.825 70.8304 200.995 18 135.825 18L135.825 16Z" fill="#FF8989"/>
<path d="M135.825 24C197.681 24 247.825 74.1441 247.825 136C247.825 197.856 197.681 248 135.825 248L135.825 246C196.577 246 245.825 196.751 245.825 136C245.825 75.2487 196.577 26 135.825 26L135.825 24Z" fill="#FF8989"/>
<path d="M135.825 32C193.263 32 239.825 78.5624 239.825 136C239.825 193.438 193.263 240 135.825 240L135.825 238C192.158 238 237.825 192.333 237.825 136C237.825 79.667 192.158 34 135.825 34L135.825 32Z" fill="#FF8989"/>
<path d="M135.825 40C188.845 40 231.825 82.9807 231.825 136C231.825 189.019 188.845 232 135.825 232L135.825 230C187.74 230 229.825 187.915 229.825 136C229.825 84.0852 187.74 42 135.825 42L135.825 40Z" fill="#FF8989"/>
<path d="M135.825 224C184.426 224 223.825 184.601 223.825 136C223.825 87.3989 184.426 48 135.825 48L135.825 50C183.322 50 221.825 88.5035 221.825 136C221.825 183.496 183.322 222 135.825 222L135.825 224Z" fill="#FF8989"/>
<path d="M135.825 216C180.008 216 215.825 180.183 215.825 136C215.825 91.8172 180.008 56 135.825 56L135.825 58C178.904 58 213.825 92.9218 213.825 136C213.825 179.078 178.904 214 135.825 214L135.825 216Z" fill="#FF8989"/>
<path d="M135.825 208C175.59 208 207.825 175.765 207.825 136C207.825 96.2355 175.59 64 135.825 64L135.825 66C174.485 66 205.825 97.3401 205.825 136C205.825 174.66 174.485 206 135.825 206L135.825 208Z" fill="#FF8989"/>
<path d="M135.825 200C171.172 200 199.825 171.346 199.825 136C199.825 100.654 171.172 72 135.825 72L135.825 74C170.067 74 197.825 101.758 197.825 136C197.825 170.242 170.067 198 135.825 198L135.825 200Z" fill="#FF8989"/>
<path d="M135.825 192C166.753 192 191.825 166.928 191.825 136C191.825 105.072 166.753 80 135.825 80L135.825 82C165.649 82 189.825 106.177 189.825 136C189.825 165.823 165.649 190 135.825 190L135.825 192Z" fill="#FF8989"/>
<path d="M135.825 184C162.335 184 183.825 162.51 183.825 136C183.825 109.49 162.335 88 135.825 88L135.825 90C161.231 90 181.825 110.595 181.825 136C181.825 161.405 161.231 182 135.825 182L135.825 184Z" fill="#FF8989"/>
<path d="M135.825 176C157.917 176 175.825 158.091 175.825 136C175.825 113.909 157.917 96 135.825 96L135.825 98C156.812 98 173.825 115.013 173.825 136C173.825 156.987 156.812 174 135.825 174L135.825 176Z" fill="#FF8989"/>
<path d="M135.825 168C153.499 168 167.825 153.673 167.825 136C167.825 118.327 153.499 104 135.825 104L135.825 106C152.394 106 165.825 119.431 165.825 136C165.825 152.569 152.394 166 135.825 166L135.825 168Z" fill="#FF8989"/>
<path d="M135.825 160C149.08 160 159.825 149.255 159.825 136C159.825 122.745 149.08 112 135.825 112L135.825 114C147.976 114 157.825 123.85 157.825 136C157.825 148.15 147.976 158 135.825 158L135.825 160Z" fill="#FF8989"/>
<path d="M135.825 152C144.662 152 151.825 144.837 151.825 136C151.825 127.163 144.662 120 135.825 120L135.825 122C143.557 122 149.825 128.268 149.825 136C149.825 143.732 143.557 150 135.825 150L135.825 152Z" fill="#FF8989"/>
<path d="M135.825 144C140.244 144 143.825 140.418 143.825 136C143.825 131.582 140.244 128 135.825 128L135.825 130C139.139 130 141.825 132.686 141.825 136C141.825 139.314 139.139 142 135.825 142L135.825 144Z" fill="#FF8989"/>
</g>
<g opacity="0.95">
<path d="M136 0L136 2L0.000488194 1.99999L0.000488281 -5.97172e-06L136 0Z" fill="#FF8989"/>
<path d="M136 8L136 10L0.000487846 9.99999L0.000487933 7.99999L136 8Z" fill="#FF8989"/>
<path d="M136 16L136 18L0.000487498 18L0.000487585 16L136 16Z" fill="#FF8989"/>
<path d="M136 24L136 26L0.00048715 26L0.000487237 24L136 24Z" fill="#FF8989"/>
<path d="M136 32L136 34L0.000486802 34L0.000486889 32L136 32Z" fill="#FF8989"/>
<path d="M136 40L136 42L0.000486454 42L0.000486541 40L136 40Z" fill="#FF8989"/>
<path d="M136 48L136 50L0.000486106 50L0.000486193 48L136 48Z" fill="#FF8989"/>
<path d="M136 56L136 58L0.000485757 58L0.000485844 56L136 56Z" fill="#FF8989"/>
<path d="M136 64L136 66L0.000485409 66L0.000485496 64L136 64Z" fill="#FF8989"/>
<path d="M136 72L136 74L0.000485061 74L0.000485148 72L136 72Z" fill="#FF8989"/>
<path d="M136 80L136 82L0.000484713 82L0.0004848 80L136 80Z" fill="#FF8989"/>
<path d="M136 88L136 90L0.000484365 90L0.000484452 88L136 88Z" fill="#FF8989"/>
<path d="M136 96L136 98L0.000484017 98L0.000484104 96L136 96Z" fill="#FF8989"/>
<path d="M136 104L136 106L0.000483669 106L0.000483756 104L136 104Z" fill="#FF8989"/>
<path d="M136 112L136 114L0.000483321 114L0.000483408 112L136 112Z" fill="#FF8989"/>
<path d="M136 120L136 122L0.000482973 122L0.00048306 120L136 120Z" fill="#FF8989"/>
<path d="M136 128L136 130L0.000482624 130L0.000482711 128L136 128Z" fill="#FF8989"/>
</g>
<g opacity="0.95">
<path d="M136 142L136 144L75.0005 144L75.0005 142L136 142Z" fill="#FF8989"/>
<path d="M136 150L136 152L75.0005 152L75.0005 150L136 150Z" fill="#FF8989"/>
<path d="M136 158L136 160L75.0005 160L75.0005 158L136 158Z" fill="#FF8989"/>
<path d="M136 166L136 168L75.0005 168L75.0005 166L136 166Z" fill="#FF8989"/>
<path d="M136 174L136 176L75.0005 176L75.0005 174L136 174Z" fill="#FF8989"/>
<path d="M136 182L136 184L75.0005 184L75.0005 182L136 182Z" fill="#FF8989"/>
<path d="M136 190L136 192L75.0005 192L75.0005 190L136 190Z" fill="#FF8989"/>
<path d="M136 198L136 200L75.0005 200L75.0005 198L136 198Z" fill="#FF8989"/>
<path d="M136 206L136 208L75.0005 208L75.0005 206L136 206Z" fill="#FF8989"/>
<path d="M136 214L136 216L75.0005 216L75.0005 214L136 214Z" fill="#FF8989"/>
<path d="M136 222L136 224L75.0005 224L75.0005 222L136 222Z" fill="#FF8989"/>
<path d="M136 230L136 232L75.0005 232L75.0005 230L136 230Z" fill="#FF8989"/>
<path d="M136 238L136 240L75.0005 240L75.0005 238L136 238Z" fill="#FF8989"/>
<path d="M136 246L136 248L75.0005 248L75.0005 246L136 246Z" fill="#FF8989"/>
<path d="M136 254L136 256L75.0005 256L75.0005 254L136 254Z" fill="#FF8989"/>
<path d="M136 262L136 264L75.0005 264L75.0005 262L136 262Z" fill="#FF8989"/>
<path d="M136 270L136 272L75.0005 272L75.0005 270L136 270Z" fill="#FF8989"/>
</g>
</svg>
