<svg width="232" height="240" viewBox="0 0 232 240" fill="none" xmlns="http://www.w3.org/2000/svg">
<g opacity="0.25">
<path d="M112 0C178.275 7.90312e-07 232 53.7258 232 120C232 186.274 178.275 240 112 240L112 238C177.17 238 230 185.17 230 120C230 54.8304 177.17 2 112 2L112 0Z" fill="#8793FE"/>
<path d="M112 8C173.856 8 224 58.1441 224 120C224 181.856 173.856 232 112 232L112 230C172.752 230 222 180.751 222 120C222 59.2487 172.752 10 112 10L112 8Z" fill="#8793FE"/>
<path d="M112 16C169.438 16 216 62.5624 216 120C216 177.438 169.438 224 112 224L112 222C168.334 222 214 176.333 214 120C214 63.667 168.334 18 112 18L112 16Z" fill="#8793FE"/>
<path d="M112 24C165.02 24 208 66.9807 208 120C208 173.019 165.02 216 112 216L112 214C163.915 214 206 171.915 206 120C206 68.0852 163.915 26 112 26L112 24Z" fill="#8793FE"/>
<path d="M112 208C160.602 208 200 168.601 200 120C200 71.3989 160.602 32 112 32L112 34C159.497 34 198 72.5035 198 120C198 167.496 159.497 206 112 206L112 208Z" fill="#8793FE"/>
<path d="M112 200C156.183 200 192 164.183 192 120C192 75.8172 156.183 40 112 40L112 42C155.079 42 190 76.9218 190 120C190 163.078 155.079 198 112 198L112 200Z" fill="#8793FE"/>
<path d="M112 192C151.765 192 184 159.765 184 120C184 80.2355 151.765 48 112 48L112 50C150.66 50 182 81.3401 182 120C182 158.66 150.66 190 112 190L112 192Z" fill="#8793FE"/>
<path d="M112 184C147.347 184 176 155.346 176 120C176 84.6538 147.347 56 112 56L112 58C146.242 58 174 85.7583 174 120C174 154.242 146.242 182 112 182L112 184Z" fill="#8793FE"/>
<path d="M112 176C142.928 176 168 150.928 168 120C168 89.0721 142.928 64 112 64L112 66C141.824 66 166 90.1766 166 120C166 149.823 141.824 174 112 174L112 176Z" fill="#8793FE"/>
<path d="M112 168C138.51 168 160 146.51 160 120C160 93.4903 138.51 72 112 72L112 74C137.406 74 158 94.5949 158 120C158 145.405 137.406 166 112 166L112 168Z" fill="#8793FE"/>
<path d="M112 160C134.092 160 152 142.091 152 120C152 97.9086 134.092 80 112 80L112 82C132.987 82 150 99.0132 150 120C150 140.987 132.987 158 112 158L112 160Z" fill="#8793FE"/>
<path d="M112 152C129.674 152 144 137.673 144 120C144 102.327 129.674 88 112 88L112 90C128.569 90 142 103.431 142 120C142 136.569 128.569 150 112 150L112 152Z" fill="#8793FE"/>
<path d="M112 144C125.255 144 136 133.255 136 120C136 106.745 125.255 96 112 96L112 98C124.151 98 134 107.85 134 120C134 132.15 124.151 142 112 142L112 144Z" fill="#8793FE"/>
<path d="M112 136C120.837 136 128 128.837 128 120C128 111.163 120.837 104 112 104L112 106C119.732 106 126 112.268 126 120C126 127.732 119.732 134 112 134L112 136Z" fill="#8793FE"/>
<path d="M112 128C116.419 128 120 124.418 120 120C120 115.582 116.419 112 112 112L112 114C115.314 114 118 116.686 118 120C118 123.314 115.314 126 112 126L112 128Z" fill="#8793FE"/>
</g>
<g opacity="0.25">
<path d="M112 0L112 2L-10.9995 1.99999L-10.9995 -5.4009e-06L112 0Z" fill="#8793FE"/>
<path d="M112 8L112 10L-10.9995 9.99999L-10.9995 7.99999L112 8Z" fill="#8793FE"/>
<path d="M112 16L112 18L-10.9995 18L-10.9995 16L112 16Z" fill="#8793FE"/>
<path d="M112 24L112 26L-10.9995 26L-10.9995 24L112 24Z" fill="#8793FE"/>
<path d="M112 32L112 34L-10.9995 34L-10.9995 32L112 32Z" fill="#8793FE"/>
<path d="M112 40L112 42L-10.9995 42L-10.9995 40L112 40Z" fill="#8793FE"/>
<path d="M112 48L112 50L-10.9995 50L-10.9995 48L112 48Z" fill="#8793FE"/>
<path d="M112 56L112 58L-10.9995 58L-10.9995 56L112 56Z" fill="#8793FE"/>
<path d="M112 64L112 66L-10.9995 66L-10.9995 64L112 64Z" fill="#8793FE"/>
<path d="M112 72L112 74L-10.9995 74L-10.9995 72L112 72Z" fill="#8793FE"/>
<path d="M112 80L112 82L-10.9995 82L-10.9995 80L112 80Z" fill="#8793FE"/>
<path d="M112 88L112 90L-10.9995 90L-10.9995 88L112 88Z" fill="#8793FE"/>
<path d="M112 96L112 98L-10.9995 98L-10.9995 96L112 96Z" fill="#8793FE"/>
<path d="M112 104L112 106L-10.9995 106L-10.9995 104L112 104Z" fill="#8793FE"/>
<path d="M112 112L112 114L-10.9995 114L-10.9995 112L112 112Z" fill="#8793FE"/>
</g>
</svg>
