<svg width="368" height="364" viewBox="0 0 368 364" fill="none" xmlns="http://www.w3.org/2000/svg">
<g opacity="0.25">
<path d="M181.716 0.588013C81.6331 0.588014 0.500058 81.7211 0.500059 181.804C0.50006 281.886 81.6331 363.02 181.716 363.02L181.716 359.999C83.3012 359.999 3.52032 280.218 3.52032 181.804C3.52032 83.3891 83.3012 3.60828 181.716 3.60828L181.716 0.588013Z" fill="#8793FE"/>
<path d="M181.716 12.6691C88.3053 12.6691 12.5811 88.3933 12.5811 181.804C12.5811 275.214 88.3053 350.938 181.716 350.938L181.716 347.918C89.9733 347.918 15.6014 273.546 15.6014 181.804C15.6014 90.0613 89.9733 15.6893 181.716 15.6893L181.716 12.6691Z" fill="#8793FE"/>
<path d="M181.716 24.7501C94.9775 24.7501 24.6622 95.0654 24.6622 181.804C24.6622 268.542 94.9775 338.857 181.716 338.857L181.716 335.837C96.6455 335.837 27.6824 266.874 27.6824 181.804C27.6824 96.7335 96.6455 27.7704 181.716 27.7704L181.716 24.7501Z" fill="#8793FE"/>
<path d="M181.716 36.8311C101.65 36.8311 36.7432 101.738 36.7432 181.804C36.7432 261.87 101.65 326.776 181.716 326.776L181.716 323.756C103.318 323.756 39.7635 260.202 39.7635 181.804C39.7635 103.406 103.318 39.8514 181.716 39.8514L181.716 36.8311Z" fill="#8793FE"/>
<path d="M181.716 314.695C108.322 314.695 48.8243 255.198 48.8243 181.804C48.8243 108.41 108.322 48.9122 181.716 48.9122L181.716 51.9325C109.99 51.9325 51.8445 110.078 51.8445 181.804C51.8445 253.53 109.99 311.675 181.716 311.675L181.716 314.695Z" fill="#8793FE"/>
<path d="M181.716 302.614C114.994 302.614 60.9053 248.526 60.9053 181.804C60.9053 115.082 114.994 60.9933 181.716 60.9933L181.716 64.0135C116.662 64.0135 63.9256 116.75 63.9256 181.804C63.9256 246.858 116.662 299.594 181.716 299.594L181.716 302.614Z" fill="#8793FE"/>
<path d="M181.716 290.533C121.666 290.533 72.9864 241.853 72.9864 181.804C72.9864 121.754 121.666 73.0743 181.716 73.0743L181.716 76.0946C123.334 76.0946 76.0066 123.422 76.0066 181.804C76.0066 240.185 123.334 287.513 181.716 287.513L181.716 290.533Z" fill="#8793FE"/>
<path d="M181.716 278.452C128.338 278.452 85.0674 235.181 85.0674 181.804C85.0674 128.426 128.338 85.1554 181.716 85.1554L181.716 88.1756C130.006 88.1756 88.0877 130.094 88.0877 181.804C88.0877 233.513 130.006 275.432 181.716 275.432L181.716 278.452Z" fill="#8793FE"/>
<path d="M181.716 266.371C135.011 266.371 97.1485 228.509 97.1485 181.804C97.1485 135.099 135.011 97.2364 181.716 97.2364L181.716 100.257C136.679 100.257 100.169 136.767 100.169 181.804C100.169 226.841 136.679 263.351 181.716 263.351L181.716 266.371Z" fill="#8793FE"/>
<path d="M181.716 254.29C141.683 254.29 109.23 221.837 109.23 181.804C109.23 141.771 141.683 109.317 181.716 109.317L181.716 112.338C143.351 112.338 112.25 143.439 112.25 181.804C112.25 220.169 143.351 251.27 181.716 251.27L181.716 254.29Z" fill="#8793FE"/>
<path d="M181.716 242.209C148.355 242.209 121.311 215.165 121.311 181.804C121.311 148.443 148.355 121.399 181.716 121.399L181.716 124.419C150.023 124.419 124.331 150.111 124.331 181.804C124.331 213.497 150.023 239.189 181.716 239.189L181.716 242.209Z" fill="#8793FE"/>
<path d="M181.716 230.128C155.027 230.128 133.392 208.492 133.392 181.804C133.392 155.115 155.027 133.48 181.716 133.48L181.716 136.5C156.695 136.5 136.412 156.783 136.412 181.804C136.412 206.824 156.695 227.108 181.716 227.108L181.716 230.128Z" fill="#8793FE"/>
<path d="M181.716 218.047C161.699 218.047 145.473 201.82 145.473 181.804C145.473 161.787 161.699 145.561 181.716 145.561L181.716 148.581C163.367 148.581 148.493 163.455 148.493 181.804C148.493 200.152 163.367 215.027 181.716 215.027L181.716 218.047Z" fill="#8793FE"/>
<path d="M181.716 205.966C168.371 205.966 157.554 195.148 157.554 181.804C157.554 168.459 168.371 157.642 181.716 157.642L181.716 160.662C170.039 160.662 160.574 170.127 160.574 181.804C160.574 193.48 170.039 202.946 181.716 202.946L181.716 205.966Z" fill="#8793FE"/>
<path d="M181.716 193.885C175.044 193.885 169.635 188.476 169.635 181.804C169.635 175.132 175.044 169.723 181.716 169.723L181.716 172.743C176.712 172.743 172.655 176.8 172.655 181.804C172.655 186.808 176.712 190.865 181.716 190.865L181.716 193.885Z" fill="#8793FE"/>
</g>
<g opacity="0.25">
<path d="M181.716 0.587891L181.716 3.60815L367.462 3.60815L367.462 0.587882L181.716 0.587891Z" fill="#8793FE"/>
<path d="M181.716 12.6689L181.716 15.6892L367.462 15.6892L367.462 12.6689L181.716 12.6689Z" fill="#8793FE"/>
<path d="M181.716 24.75L181.716 27.7703L367.462 27.7702L367.462 24.75L181.716 24.75Z" fill="#8793FE"/>
<path d="M181.716 36.831L181.716 39.8513L367.462 39.8513L367.462 36.831L181.716 36.831Z" fill="#8793FE"/>
<path d="M181.716 48.9121L181.716 51.9324L367.462 51.9323L367.462 48.9121L181.716 48.9121Z" fill="#8793FE"/>
<path d="M181.716 60.9931L181.716 64.0134L367.462 64.0134L367.462 60.9931L181.716 60.9931Z" fill="#8793FE"/>
<path d="M181.716 73.0742L181.716 76.0945L367.462 76.0945L367.462 73.0742L181.716 73.0742Z" fill="#8793FE"/>
<path d="M181.716 85.1552L181.716 88.1755L367.462 88.1755L367.462 85.1552L181.716 85.1552Z" fill="#8793FE"/>
<path d="M181.716 97.2363L181.716 100.257L367.462 100.257L367.462 97.2363L181.716 97.2363Z" fill="#8793FE"/>
<path d="M181.716 109.317L181.716 112.338L367.462 112.338L367.462 109.317L181.716 109.317Z" fill="#8793FE"/>
<path d="M181.716 121.398L181.716 124.419L367.462 124.419L367.462 121.398L181.716 121.398Z" fill="#8793FE"/>
<path d="M181.716 133.479L181.716 136.5L367.462 136.5L367.462 133.479L181.716 133.479Z" fill="#8793FE"/>
<path d="M181.716 145.561L181.716 148.581L367.462 148.581L367.462 145.56L181.716 145.561Z" fill="#8793FE"/>
<path d="M181.716 157.642L181.716 160.662L367.462 160.662L367.462 157.642L181.716 157.642Z" fill="#8793FE"/>
<path d="M181.716 169.723L181.716 172.743L367.462 172.743L367.462 169.723L181.716 169.723Z" fill="#8793FE"/>
</g>
</svg>
