<svg width="408" height="201" viewBox="0 0 408 201" fill="none" xmlns="http://www.w3.org/2000/svg">
<g opacity="0.35">
<path d="M3.56509 7.16145C1.59616 7.16145 3.02753e-05 5.56267 3.03615e-05 3.59048C3.04477e-05 1.61829 1.59616 0.0195135 3.56509 0.0195136C5.534 0.0195137 7.13013 1.61829 7.13013 3.59048C7.13013 5.56267 5.534 7.16145 3.56509 7.16145Z" fill="#2353FE"/>
<path d="M22.5787 7.16145C20.6098 7.16145 19.0136 5.56267 19.0136 3.59048C19.0136 1.61829 20.6098 0.0195143 22.5787 0.0195144C24.5476 0.0195145 26.1437 1.61829 26.1437 3.59048C26.1437 5.56267 24.5476 7.16145 22.5787 7.16145Z" fill="#2353FE"/>
<path d="M41.5923 7.16145C39.6234 7.16145 38.0272 5.56267 38.0272 3.59048C38.0272 1.61829 39.6234 0.0195151 41.5923 0.0195152C43.5612 0.0195153 45.1573 1.61829 45.1573 3.59048C45.1573 5.56267 43.5612 7.16145 41.5923 7.16145Z" fill="#2353FE"/>
<path d="M60.6059 7.16145C58.6369 7.16145 57.0408 5.56268 57.0408 3.59048C57.0408 1.61829 58.6369 0.019516 60.6059 0.0195161C62.5748 0.0195162 64.1709 1.61829 64.1709 3.59048C64.1709 5.56268 62.5748 7.16145 60.6059 7.16145Z" fill="#2353FE"/>
<path d="M79.6194 7.16145C77.6505 7.16145 76.0544 5.56268 76.0544 3.59048C76.0544 1.61829 77.6505 0.0195168 79.6194 0.0195169C81.5884 0.019517 83.1845 1.61829 83.1845 3.59049C83.1845 5.56268 81.5884 7.16145 79.6194 7.16145Z" fill="#2353FE"/>
<path d="M98.633 7.16145C96.6641 7.16145 95.068 5.56268 95.068 3.59049C95.068 1.61829 96.6641 0.0195176 98.633 0.0195177C100.602 0.0195178 102.198 1.61829 102.198 3.59049C102.198 5.56268 100.602 7.16145 98.633 7.16145Z" fill="#2353FE"/>
<path d="M117.647 7.16145C115.678 7.16145 114.082 5.56268 114.082 3.59049C114.082 1.6183 115.678 0.0195185 117.647 0.0195186C119.616 0.0195186 121.212 1.6183 121.212 3.59049C121.212 5.56268 119.616 7.16145 117.647 7.16145Z" fill="#2353FE"/>
<path d="M136.66 7.16146C134.691 7.16146 133.095 5.56268 133.095 3.59049C133.095 1.6183 134.691 0.0195193 136.66 0.0195194C138.629 0.0195195 140.225 1.6183 140.225 3.59049C140.225 5.56268 138.629 7.16146 136.66 7.16146Z" fill="#2353FE"/>
<path d="M155.674 7.16146C153.705 7.16146 152.109 5.56268 152.109 3.59049C152.109 1.6183 153.705 0.0195201 155.674 0.0195202C157.643 0.0195203 159.239 1.6183 159.239 3.59049C159.239 5.56268 157.643 7.16146 155.674 7.16146Z" fill="#2353FE"/>
<path d="M174.687 7.16146C172.718 7.16146 171.122 5.56268 171.122 3.59049C171.122 1.6183 172.718 0.019521 174.687 0.0195211C176.656 0.0195211 178.252 1.6183 178.252 3.59049C178.252 5.56268 176.656 7.16146 174.687 7.16146Z" fill="#2353FE"/>
<path d="M193.701 7.16146C191.732 7.16146 190.136 5.56268 190.136 3.59049C190.136 1.6183 191.732 0.0195218 193.701 0.0195219C195.67 0.019522 197.266 1.6183 197.266 3.59049C197.266 5.56268 195.67 7.16146 193.701 7.16146Z" fill="#2353FE"/>
<path d="M14.6563 26.2066C12.6874 26.2066 11.0913 24.6078 11.0913 22.6356C11.0913 20.6635 12.6874 19.0647 14.6563 19.0647C16.6253 19.0647 18.2214 20.6635 18.2214 22.6356C18.2214 24.6078 16.6253 26.2066 14.6563 26.2066Z" fill="#2353FE"/>
<path d="M33.67 26.2066C31.701 26.2066 30.1049 24.6078 30.1049 22.6356C30.1049 20.6635 31.701 19.0647 33.67 19.0647C35.6389 19.0647 37.235 20.6635 37.235 22.6356C37.235 24.6078 35.6389 26.2066 33.67 26.2066Z" fill="#2353FE"/>
<path d="M52.6835 26.2066C50.7146 26.2066 49.1185 24.6078 49.1185 22.6356C49.1185 20.6635 50.7146 19.0647 52.6835 19.0647C54.6525 19.0647 56.2486 20.6635 56.2486 22.6356C56.2486 24.6078 54.6525 26.2066 52.6835 26.2066Z" fill="#2353FE"/>
<path d="M71.6971 26.2066C69.7282 26.2066 68.1321 24.6078 68.1321 22.6356C68.1321 20.6635 69.7282 19.0647 71.6971 19.0647C73.666 19.0647 75.2622 20.6635 75.2622 22.6356C75.2622 24.6078 73.666 26.2066 71.6971 26.2066Z" fill="#2353FE"/>
<path d="M90.7107 26.2066C88.7418 26.2066 87.1457 24.6078 87.1457 22.6356C87.1457 20.6635 88.7418 19.0647 90.7107 19.0647C92.6796 19.0647 94.2758 20.6635 94.2758 22.6356C94.2758 24.6078 92.6796 26.2066 90.7107 26.2066Z" fill="#2353FE"/>
<path d="M109.724 26.2066C107.755 26.2066 106.159 24.6078 106.159 22.6356C106.159 20.6635 107.755 19.0647 109.724 19.0647C111.693 19.0647 113.289 20.6635 113.289 22.6356C113.289 24.6078 111.693 26.2066 109.724 26.2066Z" fill="#2353FE"/>
<path d="M128.738 26.2066C126.769 26.2066 125.173 24.6078 125.173 22.6356C125.173 20.6635 126.769 19.0647 128.738 19.0647C130.707 19.0647 132.303 20.6635 132.303 22.6357C132.303 24.6078 130.707 26.2066 128.738 26.2066Z" fill="#2353FE"/>
<path d="M147.751 26.2066C145.783 26.2066 144.186 24.6078 144.186 22.6357C144.186 20.6635 145.783 19.0647 147.751 19.0647C149.72 19.0647 151.317 20.6635 151.317 22.6357C151.317 24.6078 149.72 26.2066 147.751 26.2066Z" fill="#2353FE"/>
<path d="M166.765 26.2066C164.796 26.2066 163.2 24.6078 163.2 22.6357C163.2 20.6635 164.796 19.0647 166.765 19.0647C168.734 19.0647 170.33 20.6635 170.33 22.6357C170.33 24.6078 168.734 26.2066 166.765 26.2066Z" fill="#2353FE"/>
<path d="M185.779 26.2066C183.81 26.2066 182.214 24.6078 182.214 22.6357C182.214 20.6635 183.81 19.0647 185.779 19.0647C187.748 19.0647 189.344 20.6635 189.344 22.6357C189.344 24.6078 187.748 26.2066 185.779 26.2066Z" fill="#2353FE"/>
<path d="M204.792 26.2066C202.823 26.2066 201.227 24.6078 201.227 22.6357C201.227 20.6635 202.823 19.0647 204.792 19.0647C206.761 19.0647 208.357 20.6635 208.357 22.6357C208.357 24.6078 206.761 26.2066 204.792 26.2066Z" fill="#2353FE"/>
<path d="M25.7476 45.2518C23.7787 45.2518 22.1826 43.653 22.1826 41.6808C22.1826 39.7086 23.7787 38.1098 25.7476 38.1098C27.7165 38.1098 29.3127 39.7086 29.3127 41.6808C29.3127 43.653 27.7165 45.2518 25.7476 45.2518Z" fill="#2353FE"/>
<path d="M44.7612 45.2518C42.7923 45.2518 41.1962 43.653 41.1962 41.6808C41.1962 39.7086 42.7923 38.1098 44.7612 38.1098C46.7301 38.1098 48.3263 39.7086 48.3263 41.6808C48.3263 43.653 46.7301 45.2518 44.7612 45.2518Z" fill="#2353FE"/>
<path d="M63.7748 45.2518C61.8059 45.2518 60.2097 43.653 60.2097 41.6808C60.2097 39.7086 61.8059 38.1098 63.7748 38.1098C65.7437 38.1098 67.3398 39.7086 67.3398 41.6808C67.3398 43.653 65.7437 45.2518 63.7748 45.2518Z" fill="#2353FE"/>
<path d="M82.7884 45.2518C80.8195 45.2518 79.2233 43.653 79.2233 41.6808C79.2233 39.7086 80.8195 38.1098 82.7884 38.1098C84.7573 38.1098 86.3534 39.7086 86.3534 41.6808C86.3534 43.653 84.7573 45.2518 82.7884 45.2518Z" fill="#2353FE"/>
<path d="M101.802 45.2518C99.833 45.2518 98.2369 43.653 98.2369 41.6808C98.2369 39.7086 99.833 38.1098 101.802 38.1098C103.771 38.1098 105.367 39.7086 105.367 41.6808C105.367 43.653 103.771 45.2518 101.802 45.2518Z" fill="#2353FE"/>
<path d="M120.816 45.2518C118.847 45.2518 117.251 43.653 117.251 41.6808C117.251 39.7086 118.847 38.1098 120.816 38.1098C122.784 38.1098 124.381 39.7086 124.381 41.6808C124.381 43.653 122.784 45.2518 120.816 45.2518Z" fill="#2353FE"/>
<path d="M139.829 45.2518C137.86 45.2518 136.264 43.653 136.264 41.6808C136.264 39.7086 137.86 38.1098 139.829 38.1098C141.798 38.1098 143.394 39.7086 143.394 41.6808C143.394 43.653 141.798 45.2518 139.829 45.2518Z" fill="#2353FE"/>
<path d="M158.843 45.2518C156.874 45.2518 155.278 43.653 155.278 41.6808C155.278 39.7086 156.874 38.1098 158.843 38.1098C160.812 38.1098 162.408 39.7086 162.408 41.6808C162.408 43.653 160.812 45.2518 158.843 45.2518Z" fill="#2353FE"/>
<path d="M177.856 45.2518C175.887 45.2518 174.291 43.653 174.291 41.6808C174.291 39.7086 175.887 38.1098 177.856 38.1098C179.825 38.1098 181.421 39.7086 181.421 41.6808C181.421 43.653 179.825 45.2518 177.856 45.2518Z" fill="#2353FE"/>
<path d="M196.87 45.2518C194.901 45.2518 193.305 43.653 193.305 41.6808C193.305 39.7086 194.901 38.1098 196.87 38.1098C198.839 38.1098 200.435 39.7086 200.435 41.6808C200.435 43.653 198.839 45.2518 196.87 45.2518Z" fill="#2353FE"/>
<path d="M215.884 45.2518C213.915 45.2518 212.318 43.653 212.318 41.6808C212.318 39.7086 213.915 38.1098 215.884 38.1098C217.852 38.1098 219.449 39.7086 219.449 41.6808C219.449 43.653 217.852 45.2518 215.884 45.2518Z" fill="#2353FE"/>
<path d="M36.8389 64.2969C34.87 64.2969 33.2738 62.6982 33.2738 60.726C33.2738 58.7538 34.87 57.155 36.8389 57.155C38.8078 57.155 40.4039 58.7538 40.4039 60.726C40.4039 62.6982 38.8078 64.2969 36.8389 64.2969Z" fill="#2353FE"/>
<path d="M55.8524 64.2969C53.8835 64.2969 52.2874 62.6982 52.2874 60.726C52.2874 58.7538 53.8835 57.155 55.8524 57.155C57.8214 57.155 59.4175 58.7538 59.4175 60.726C59.4175 62.6982 57.8214 64.2969 55.8524 64.2969Z" fill="#2353FE"/>
<path d="M74.8661 64.2969C72.8971 64.2969 71.301 62.6982 71.301 60.726C71.301 58.7538 72.8971 57.155 74.8661 57.155C76.835 57.155 78.4311 58.7538 78.4311 60.726C78.4311 62.6982 76.835 64.2969 74.8661 64.2969Z" fill="#2353FE"/>
<path d="M93.8796 64.2969C91.9107 64.2969 90.3146 62.6982 90.3146 60.726C90.3146 58.7538 91.9107 57.155 93.8796 57.155C95.8486 57.155 97.4447 58.7538 97.4447 60.726C97.4447 62.6982 95.8486 64.2969 93.8796 64.2969Z" fill="#2353FE"/>
<path d="M112.893 64.2969C110.924 64.2969 109.328 62.6982 109.328 60.726C109.328 58.7538 110.924 57.155 112.893 57.155C114.862 57.155 116.458 58.7538 116.458 60.726C116.458 62.6982 114.862 64.2969 112.893 64.2969Z" fill="#2353FE"/>
<path d="M131.907 64.2969C129.938 64.2969 128.342 62.6982 128.342 60.726C128.342 58.7538 129.938 57.155 131.907 57.155C133.876 57.155 135.472 58.7538 135.472 60.726C135.472 62.6982 133.876 64.2969 131.907 64.2969Z" fill="#2353FE"/>
<path d="M150.92 64.2969C148.951 64.2969 147.355 62.6982 147.355 60.726C147.355 58.7538 148.951 57.155 150.92 57.155C152.889 57.155 154.485 58.7538 154.485 60.726C154.485 62.6982 152.889 64.2969 150.92 64.2969Z" fill="#2353FE"/>
<path d="M169.934 64.2969C167.965 64.2969 166.369 62.6982 166.369 60.726C166.369 58.7538 167.965 57.155 169.934 57.155C171.903 57.155 173.499 58.7538 173.499 60.726C173.499 62.6982 171.903 64.2969 169.934 64.2969Z" fill="#2353FE"/>
<path d="M188.948 64.2969C186.979 64.2969 185.383 62.6982 185.383 60.726C185.383 58.7538 186.979 57.155 188.948 57.155C190.917 57.155 192.513 58.7538 192.513 60.726C192.513 62.6982 190.917 64.2969 188.948 64.2969Z" fill="#2353FE"/>
<path d="M207.961 64.297C205.992 64.297 204.396 62.6982 204.396 60.726C204.396 58.7538 205.992 57.155 207.961 57.155C209.93 57.155 211.526 58.7538 211.526 60.726C211.526 62.6982 209.93 64.297 207.961 64.297Z" fill="#2353FE"/>
<path d="M226.975 64.297C225.006 64.297 223.41 62.6982 223.41 60.726C223.41 58.7538 225.006 57.155 226.975 57.155C228.944 57.155 230.54 58.7538 230.54 60.726C230.54 62.6982 228.944 64.297 226.975 64.297Z" fill="#2353FE"/>
<path d="M47.9301 83.3421C45.9612 83.3421 44.3651 81.7433 44.3651 79.7711C44.3651 77.7989 45.9612 76.2002 47.9301 76.2002C49.899 76.2002 51.4952 77.7989 51.4952 79.7711C51.4952 81.7433 49.899 83.3421 47.9301 83.3421Z" fill="#2353FE"/>
<path d="M66.9437 83.3421C64.9748 83.3421 63.3787 81.7433 63.3787 79.7711C63.3787 77.7989 64.9748 76.2002 66.9437 76.2002C68.9127 76.2002 70.5088 77.7989 70.5088 79.7711C70.5088 81.7433 68.9127 83.3421 66.9437 83.3421Z" fill="#2353FE"/>
<path d="M85.9573 83.3421C83.9884 83.3421 82.3923 81.7433 82.3923 79.7711C82.3923 77.7989 83.9884 76.2002 85.9573 76.2002C87.9262 76.2002 89.5224 77.7989 89.5224 79.7711C89.5224 81.7433 87.9262 83.3421 85.9573 83.3421Z" fill="#2353FE"/>
<path d="M104.971 83.3421C103.002 83.3421 101.406 81.7433 101.406 79.7711C101.406 77.7989 103.002 76.2002 104.971 76.2002C106.94 76.2002 108.536 77.7989 108.536 79.7711C108.536 81.7433 106.94 83.3421 104.971 83.3421Z" fill="#2353FE"/>
<path d="M123.984 83.3421C122.016 83.3421 120.419 81.7433 120.419 79.7711C120.419 77.7989 122.016 76.2002 123.984 76.2002C125.953 76.2002 127.55 77.7989 127.55 79.7711C127.55 81.7433 125.953 83.3421 123.984 83.3421Z" fill="#2353FE"/>
<path d="M142.998 83.3421C141.029 83.3421 139.433 81.7433 139.433 79.7711C139.433 77.7989 141.029 76.2002 142.998 76.2002C144.967 76.2002 146.563 77.7989 146.563 79.7711C146.563 81.7433 144.967 83.3421 142.998 83.3421Z" fill="#2353FE"/>
<path d="M162.012 83.3421C160.043 83.3421 158.447 81.7433 158.447 79.7711C158.447 77.7989 160.043 76.2002 162.012 76.2002C163.981 76.2002 165.577 77.7989 165.577 79.7711C165.577 81.7433 163.981 83.3421 162.012 83.3421Z" fill="#2353FE"/>
<path d="M181.025 83.3421C179.056 83.3421 177.46 81.7433 177.46 79.7711C177.46 77.7989 179.056 76.2002 181.025 76.2002C182.994 76.2002 184.59 77.7989 184.59 79.7711C184.59 81.7433 182.994 83.3421 181.025 83.3421Z" fill="#2353FE"/>
<path d="M200.039 83.3421C198.07 83.3421 196.474 81.7433 196.474 79.7711C196.474 77.7989 198.07 76.2002 200.039 76.2002C202.008 76.2002 203.604 77.7989 203.604 79.7711C203.604 81.7433 202.008 83.3421 200.039 83.3421Z" fill="#2353FE"/>
<path d="M219.052 83.3421C217.084 83.3421 215.487 81.7433 215.487 79.7711C215.487 77.7989 217.084 76.2002 219.052 76.2002C221.021 76.2002 222.617 77.7989 222.617 79.7711C222.617 81.7433 221.021 83.3421 219.052 83.3421Z" fill="#2353FE"/>
<path d="M238.066 83.3421C236.097 83.3421 234.501 81.7433 234.501 79.7711C234.501 77.799 236.097 76.2002 238.066 76.2002C240.035 76.2002 241.631 77.799 241.631 79.7711C241.631 81.7433 240.035 83.3421 238.066 83.3421Z" fill="#2353FE"/>
<path d="M57.4369 102.387C55.468 102.387 53.8719 100.788 53.8719 98.8163C53.8719 96.8441 55.468 95.2453 57.4369 95.2453C59.4058 95.2453 61.002 96.8441 61.002 98.8163C61.002 100.788 59.4058 102.387 57.4369 102.387Z" fill="#2353FE"/>
<path d="M76.4505 102.387C74.4816 102.387 72.8855 100.788 72.8855 98.8163C72.8855 96.8441 74.4816 95.2453 76.4505 95.2453C78.4194 95.2453 80.0156 96.8441 80.0156 98.8163C80.0156 100.788 78.4194 102.387 76.4505 102.387Z" fill="#2353FE"/>
<path d="M95.4641 102.387C93.4952 102.387 91.899 100.788 91.899 98.8163C91.899 96.8441 93.4952 95.2453 95.4641 95.2453C97.433 95.2453 99.0291 96.8441 99.0291 98.8163C99.0291 100.788 97.433 102.387 95.4641 102.387Z" fill="#2353FE"/>
<path d="M114.478 102.387C112.509 102.387 110.913 100.788 110.913 98.8163C110.913 96.8441 112.509 95.2453 114.478 95.2453C116.447 95.2453 118.043 96.8441 118.043 98.8163C118.043 100.788 116.447 102.387 114.478 102.387Z" fill="#2353FE"/>
<path d="M133.491 102.387C131.522 102.387 129.926 100.788 129.926 98.8163C129.926 96.8441 131.522 95.2453 133.491 95.2453C135.46 95.2453 137.056 96.8441 137.056 98.8163C137.056 100.788 135.46 102.387 133.491 102.387Z" fill="#2353FE"/>
<path d="M152.505 102.387C150.536 102.387 148.94 100.788 148.94 98.8163C148.94 96.8441 150.536 95.2453 152.505 95.2453C154.474 95.2453 156.07 96.8441 156.07 98.8163C156.07 100.788 154.474 102.387 152.505 102.387Z" fill="#2353FE"/>
<path d="M171.518 102.387C169.55 102.387 167.953 100.788 167.953 98.8163C167.953 96.8441 169.55 95.2453 171.518 95.2453C173.487 95.2453 175.084 96.8441 175.084 98.8163C175.084 100.788 173.487 102.387 171.518 102.387Z" fill="#2353FE"/>
<path d="M190.532 102.387C188.563 102.387 186.967 100.788 186.967 98.8163C186.967 96.8441 188.563 95.2453 190.532 95.2453C192.501 95.2453 194.097 96.8441 194.097 98.8163C194.097 100.788 192.501 102.387 190.532 102.387Z" fill="#2353FE"/>
<path d="M209.546 102.387C207.577 102.387 205.981 100.788 205.981 98.8163C205.981 96.8441 207.577 95.2453 209.546 95.2453C211.515 95.2453 213.111 96.8441 213.111 98.8163C213.111 100.788 211.515 102.387 209.546 102.387Z" fill="#2353FE"/>
<path d="M228.559 102.387C226.59 102.387 224.994 100.788 224.994 98.8163C224.994 96.8441 226.59 95.2453 228.559 95.2453C230.528 95.2453 232.124 96.8441 232.124 98.8163C232.124 100.788 230.528 102.387 228.559 102.387Z" fill="#2353FE"/>
<path d="M247.573 102.387C245.604 102.387 244.008 100.788 244.008 98.8163C244.008 96.8441 245.604 95.2453 247.573 95.2453C249.542 95.2453 251.138 96.8441 251.138 98.8163C251.138 100.788 249.542 102.387 247.573 102.387Z" fill="#2353FE"/>
<path d="M68.5282 121.432C66.5593 121.432 64.9631 119.834 64.9631 117.861C64.9631 115.889 66.5593 114.29 68.5282 114.29C70.4971 114.29 72.0932 115.889 72.0932 117.861C72.0932 119.834 70.4971 121.432 68.5282 121.432Z" fill="#2353FE"/>
<path d="M87.5418 121.432C85.5728 121.432 83.9767 119.834 83.9767 117.861C83.9767 115.889 85.5728 114.29 87.5418 114.29C89.5107 114.29 91.1068 115.889 91.1068 117.861C91.1068 119.834 89.5107 121.432 87.5418 121.432Z" fill="#2353FE"/>
<path d="M106.555 121.432C104.586 121.432 102.99 119.834 102.99 117.861C102.99 115.889 104.586 114.29 106.555 114.29C108.524 114.29 110.12 115.889 110.12 117.861C110.12 119.834 108.524 121.432 106.555 121.432Z" fill="#2353FE"/>
<path d="M125.569 121.432C123.6 121.432 122.004 119.834 122.004 117.861C122.004 115.889 123.6 114.29 125.569 114.29C127.538 114.29 129.134 115.889 129.134 117.861C129.134 119.834 127.538 121.432 125.569 121.432Z" fill="#2353FE"/>
<path d="M144.583 121.432C142.614 121.432 141.018 119.834 141.018 117.861C141.018 115.889 142.614 114.291 144.583 114.291C146.551 114.291 148.148 115.889 148.148 117.861C148.148 119.834 146.551 121.432 144.583 121.432Z" fill="#2353FE"/>
<path d="M163.596 121.432C161.627 121.432 160.031 119.834 160.031 117.861C160.031 115.889 161.627 114.291 163.596 114.291C165.565 114.291 167.161 115.889 167.161 117.861C167.161 119.834 165.565 121.432 163.596 121.432Z" fill="#2353FE"/>
<path d="M182.61 121.432C180.641 121.432 179.045 119.834 179.045 117.861C179.045 115.889 180.641 114.291 182.61 114.291C184.579 114.291 186.175 115.889 186.175 117.861C186.175 119.834 184.579 121.432 182.61 121.432Z" fill="#2353FE"/>
<path d="M201.623 121.432C199.654 121.432 198.058 119.834 198.058 117.861C198.058 115.889 199.654 114.291 201.623 114.291C203.592 114.291 205.188 115.889 205.188 117.861C205.188 119.834 203.592 121.432 201.623 121.432Z" fill="#2353FE"/>
<path d="M220.637 121.432C218.668 121.432 217.072 119.834 217.072 117.861C217.072 115.889 218.668 114.291 220.637 114.291C222.606 114.291 224.202 115.889 224.202 117.861C224.202 119.834 222.606 121.432 220.637 121.432Z" fill="#2353FE"/>
<path d="M239.65 121.432C237.682 121.432 236.085 119.834 236.085 117.861C236.085 115.889 237.682 114.291 239.65 114.291C241.619 114.291 243.216 115.889 243.216 117.861C243.216 119.834 241.619 121.432 239.65 121.432Z" fill="#2353FE"/>
<path d="M258.664 121.432C256.695 121.432 255.099 119.834 255.099 117.861C255.099 115.889 256.695 114.291 258.664 114.291C260.633 114.291 262.229 115.889 262.229 117.861C262.229 119.834 260.633 121.432 258.664 121.432Z" fill="#2353FE"/>
<path d="M79.6194 140.478C77.6505 140.478 76.0544 138.879 76.0544 136.907C76.0544 134.934 77.6505 133.336 79.6194 133.336C81.5884 133.336 83.1845 134.934 83.1845 136.907C83.1845 138.879 81.5884 140.478 79.6194 140.478Z" fill="#2353FE"/>
<path d="M98.633 140.478C96.6641 140.478 95.068 138.879 95.068 136.907C95.068 134.934 96.6641 133.336 98.633 133.336C100.602 133.336 102.198 134.934 102.198 136.907C102.198 138.879 100.602 140.478 98.633 140.478Z" fill="#2353FE"/>
<path d="M117.647 140.478C115.678 140.478 114.082 138.879 114.082 136.907C114.082 134.934 115.678 133.336 117.647 133.336C119.616 133.336 121.212 134.934 121.212 136.907C121.212 138.879 119.616 140.478 117.647 140.478Z" fill="#2353FE"/>
<path d="M136.66 140.478C134.691 140.478 133.095 138.879 133.095 136.907C133.095 134.934 134.691 133.336 136.66 133.336C138.629 133.336 140.225 134.934 140.225 136.907C140.225 138.879 138.629 140.478 136.66 140.478Z" fill="#2353FE"/>
<path d="M155.674 140.478C153.705 140.478 152.109 138.879 152.109 136.907C152.109 134.934 153.705 133.336 155.674 133.336C157.643 133.336 159.239 134.934 159.239 136.907C159.239 138.879 157.643 140.478 155.674 140.478Z" fill="#2353FE"/>
<path d="M174.687 140.478C172.718 140.478 171.122 138.879 171.122 136.907C171.122 134.934 172.718 133.336 174.687 133.336C176.656 133.336 178.252 134.934 178.252 136.907C178.252 138.879 176.656 140.478 174.687 140.478Z" fill="#2353FE"/>
<path d="M193.701 140.478C191.732 140.478 190.136 138.879 190.136 136.907C190.136 134.934 191.732 133.336 193.701 133.336C195.67 133.336 197.266 134.934 197.266 136.907C197.266 138.879 195.67 140.478 193.701 140.478Z" fill="#2353FE"/>
<path d="M212.715 140.478C210.746 140.478 209.15 138.879 209.15 136.907C209.15 134.934 210.746 133.336 212.715 133.336C214.683 133.336 216.28 134.934 216.28 136.907C216.28 138.879 214.683 140.478 212.715 140.478Z" fill="#2353FE"/>
<path d="M231.728 140.478C229.759 140.478 228.163 138.879 228.163 136.907C228.163 134.934 229.759 133.336 231.728 133.336C233.697 133.336 235.293 134.934 235.293 136.907C235.293 138.879 233.697 140.478 231.728 140.478Z" fill="#2353FE"/>
<path d="M250.742 140.478C248.773 140.478 247.177 138.879 247.177 136.907C247.177 134.934 248.773 133.336 250.742 133.336C252.711 133.336 254.307 134.934 254.307 136.907C254.307 138.879 252.711 140.478 250.742 140.478Z" fill="#2353FE"/>
<path d="M269.755 140.478C267.786 140.478 266.19 138.879 266.19 136.907C266.19 134.934 267.786 133.336 269.755 133.336C271.724 133.336 273.32 134.934 273.32 136.907C273.32 138.879 271.724 140.478 269.755 140.478Z" fill="#2353FE"/>
<path d="M90.7107 159.523C88.7418 159.523 87.1457 157.924 87.1457 155.952C87.1457 153.98 88.7418 152.381 90.7107 152.381C92.6796 152.381 94.2758 153.98 94.2758 155.952C94.2757 157.924 92.6796 159.523 90.7107 159.523Z" fill="#2353FE"/>
<path d="M109.724 159.523C107.755 159.523 106.159 157.924 106.159 155.952C106.159 153.98 107.755 152.381 109.724 152.381C111.693 152.381 113.289 153.98 113.289 155.952C113.289 157.924 111.693 159.523 109.724 159.523Z" fill="#2353FE"/>
<path d="M128.738 159.523C126.769 159.523 125.173 157.924 125.173 155.952C125.173 153.98 126.769 152.381 128.738 152.381C130.707 152.381 132.303 153.98 132.303 155.952C132.303 157.924 130.707 159.523 128.738 159.523Z" fill="#2353FE"/>
<path d="M147.751 159.523C145.783 159.523 144.186 157.924 144.186 155.952C144.186 153.98 145.783 152.381 147.751 152.381C149.72 152.381 151.317 153.98 151.317 155.952C151.317 157.924 149.72 159.523 147.751 159.523Z" fill="#2353FE"/>
<path d="M166.765 159.523C164.796 159.523 163.2 157.924 163.2 155.952C163.2 153.98 164.796 152.381 166.765 152.381C168.734 152.381 170.33 153.98 170.33 155.952C170.33 157.924 168.734 159.523 166.765 159.523Z" fill="#2353FE"/>
<path d="M185.779 159.523C183.81 159.523 182.214 157.924 182.214 155.952C182.214 153.98 183.81 152.381 185.779 152.381C187.748 152.381 189.344 153.98 189.344 155.952C189.344 157.924 187.748 159.523 185.779 159.523Z" fill="#2353FE"/>
<path d="M204.792 159.523C202.823 159.523 201.227 157.924 201.227 155.952C201.227 153.98 202.823 152.381 204.792 152.381C206.761 152.381 208.357 153.98 208.357 155.952C208.357 157.924 206.761 159.523 204.792 159.523Z" fill="#2353FE"/>
<path d="M223.806 159.523C221.837 159.523 220.241 157.924 220.241 155.952C220.241 153.98 221.837 152.381 223.806 152.381C225.775 152.381 227.371 153.98 227.371 155.952C227.371 157.924 225.775 159.523 223.806 159.523Z" fill="#2353FE"/>
<path d="M242.819 159.523C240.851 159.523 239.254 157.924 239.254 155.952C239.254 153.98 240.851 152.381 242.819 152.381C244.788 152.381 246.384 153.98 246.384 155.952C246.384 157.924 244.788 159.523 242.819 159.523Z" fill="#2353FE"/>
<path d="M261.833 159.523C259.864 159.523 258.268 157.924 258.268 155.952C258.268 153.98 259.864 152.381 261.833 152.381C263.802 152.381 265.398 153.98 265.398 155.952C265.398 157.924 263.802 159.523 261.833 159.523Z" fill="#2353FE"/>
<path d="M280.847 159.523C278.878 159.523 277.282 157.924 277.282 155.952C277.282 153.98 278.878 152.381 280.847 152.381C282.816 152.381 284.412 153.98 284.412 155.952C284.412 157.924 282.816 159.523 280.847 159.523Z" fill="#2353FE"/>
<path d="M101.802 178.568C99.833 178.568 98.2369 176.969 98.2369 174.997C98.2369 173.025 99.833 171.426 101.802 171.426C103.771 171.426 105.367 173.025 105.367 174.997C105.367 176.969 103.771 178.568 101.802 178.568Z" fill="#2353FE"/>
<path d="M120.816 178.568C118.847 178.568 117.251 176.969 117.251 174.997C117.251 173.025 118.847 171.426 120.816 171.426C122.784 171.426 124.381 173.025 124.381 174.997C124.381 176.969 122.784 178.568 120.816 178.568Z" fill="#2353FE"/>
<path d="M139.829 178.568C137.86 178.568 136.264 176.969 136.264 174.997C136.264 173.025 137.86 171.426 139.829 171.426C141.798 171.426 143.394 173.025 143.394 174.997C143.394 176.969 141.798 178.568 139.829 178.568Z" fill="#2353FE"/>
<path d="M158.843 178.568C156.874 178.568 155.278 176.969 155.278 174.997C155.278 173.025 156.874 171.426 158.843 171.426C160.812 171.426 162.408 173.025 162.408 174.997C162.408 176.969 160.812 178.568 158.843 178.568Z" fill="#2353FE"/>
<path d="M177.856 178.568C175.887 178.568 174.291 176.969 174.291 174.997C174.291 173.025 175.887 171.426 177.856 171.426C179.825 171.426 181.421 173.025 181.421 174.997C181.421 176.969 179.825 178.568 177.856 178.568Z" fill="#2353FE"/>
<path d="M196.87 178.568C194.901 178.568 193.305 176.969 193.305 174.997C193.305 173.025 194.901 171.426 196.87 171.426C198.839 171.426 200.435 173.025 200.435 174.997C200.435 176.969 198.839 178.568 196.87 178.568Z" fill="#2353FE"/>
<path d="M215.884 178.568C213.915 178.568 212.318 176.969 212.318 174.997C212.318 173.025 213.915 171.426 215.884 171.426C217.852 171.426 219.449 173.025 219.449 174.997C219.449 176.969 217.852 178.568 215.884 178.568Z" fill="#2353FE"/>
<path d="M234.897 178.568C232.928 178.568 231.332 176.969 231.332 174.997C231.332 173.025 232.928 171.426 234.897 171.426C236.866 171.426 238.462 173.025 238.462 174.997C238.462 176.969 236.866 178.568 234.897 178.568Z" fill="#2353FE"/>
<path d="M253.911 178.568C251.942 178.568 250.346 176.969 250.346 174.997C250.346 173.025 251.942 171.426 253.911 171.426C255.88 171.426 257.476 173.025 257.476 174.997C257.476 176.969 255.88 178.568 253.911 178.568Z" fill="#2353FE"/>
<path d="M272.924 178.568C270.955 178.568 269.359 176.969 269.359 174.997C269.359 173.025 270.955 171.426 272.924 171.426C274.893 171.426 276.489 173.025 276.489 174.997C276.489 176.969 274.893 178.568 272.924 178.568Z" fill="#2353FE"/>
<path d="M291.938 178.568C289.969 178.568 288.373 176.969 288.373 174.997C288.373 173.025 289.969 171.426 291.938 171.426C293.907 171.426 295.503 173.025 295.503 174.997C295.503 176.969 293.907 178.568 291.938 178.568Z" fill="#2353FE"/>
<path d="M112.893 197.613C110.924 197.613 109.328 196.014 109.328 194.042C109.328 192.07 110.924 190.471 112.893 190.471C114.862 190.471 116.458 192.07 116.458 194.042C116.458 196.014 114.862 197.613 112.893 197.613Z" fill="#2353FE"/>
<path d="M131.907 197.613C129.938 197.613 128.342 196.014 128.342 194.042C128.342 192.07 129.938 190.471 131.907 190.471C133.876 190.471 135.472 192.07 135.472 194.042C135.472 196.014 133.876 197.613 131.907 197.613Z" fill="#2353FE"/>
<path d="M150.92 197.613C148.951 197.613 147.355 196.014 147.355 194.042C147.355 192.07 148.951 190.471 150.92 190.471C152.889 190.471 154.485 192.07 154.485 194.042C154.485 196.014 152.889 197.613 150.92 197.613Z" fill="#2353FE"/>
<path d="M169.934 197.613C167.965 197.613 166.369 196.014 166.369 194.042C166.369 192.07 167.965 190.471 169.934 190.471C171.903 190.471 173.499 192.07 173.499 194.042C173.499 196.014 171.903 197.613 169.934 197.613Z" fill="#2353FE"/>
<path d="M188.948 197.613C186.979 197.613 185.383 196.014 185.383 194.042C185.383 192.07 186.979 190.471 188.948 190.471C190.917 190.471 192.513 192.07 192.513 194.042C192.513 196.014 190.917 197.613 188.948 197.613Z" fill="#2353FE"/>
<path d="M207.961 197.613C205.992 197.613 204.396 196.014 204.396 194.042C204.396 192.07 205.992 190.471 207.961 190.471C209.93 190.471 211.526 192.07 211.526 194.042C211.526 196.014 209.93 197.613 207.961 197.613Z" fill="#2353FE"/>
<path d="M226.975 197.613C225.006 197.613 223.41 196.014 223.41 194.042C223.41 192.07 225.006 190.471 226.975 190.471C228.944 190.471 230.54 192.07 230.54 194.042C230.54 196.014 228.944 197.613 226.975 197.613Z" fill="#2353FE"/>
<path d="M245.988 197.613C244.019 197.613 242.423 196.014 242.423 194.042C242.423 192.07 244.019 190.471 245.988 190.471C247.957 190.471 249.553 192.07 249.553 194.042C249.553 196.014 247.957 197.613 245.988 197.613Z" fill="#2353FE"/>
<path d="M265.002 197.613C263.033 197.613 261.437 196.014 261.437 194.042C261.437 192.07 263.033 190.471 265.002 190.471C266.971 190.471 268.567 192.07 268.567 194.042C268.567 196.014 266.971 197.613 265.002 197.613Z" fill="#2353FE"/>
<path d="M284.016 197.613C282.047 197.613 280.45 196.014 280.45 194.042C280.45 192.07 282.047 190.471 284.016 190.471C285.984 190.471 287.581 192.07 287.581 194.042C287.581 196.014 285.984 197.613 284.016 197.613Z" fill="#2353FE"/>
<path d="M303.029 197.613C301.06 197.613 299.464 196.014 299.464 194.042C299.464 192.07 301.06 190.471 303.029 190.471C304.998 190.471 306.594 192.07 306.594 194.042C306.594 196.014 304.998 197.613 303.029 197.613Z" fill="#2353FE"/>
<path d="M123.984 216.658C122.016 216.658 120.419 215.059 120.419 213.087C120.419 211.115 122.016 209.516 123.984 209.516C125.953 209.516 127.55 211.115 127.55 213.087C127.55 215.059 125.953 216.658 123.984 216.658Z" fill="#2353FE"/>
<path d="M142.998 216.658C141.029 216.658 139.433 215.059 139.433 213.087C139.433 211.115 141.029 209.516 142.998 209.516C144.967 209.516 146.563 211.115 146.563 213.087C146.563 215.059 144.967 216.658 142.998 216.658Z" fill="#2353FE"/>
<path d="M162.012 216.658C160.043 216.658 158.447 215.059 158.447 213.087C158.447 211.115 160.043 209.516 162.012 209.516C163.981 209.516 165.577 211.115 165.577 213.087C165.577 215.059 163.981 216.658 162.012 216.658Z" fill="#2353FE"/>
<path d="M181.025 216.658C179.056 216.658 177.46 215.059 177.46 213.087C177.46 211.115 179.056 209.516 181.025 209.516C182.994 209.516 184.59 211.115 184.59 213.087C184.59 215.059 182.994 216.658 181.025 216.658Z" fill="#2353FE"/>
<path d="M200.039 216.658C198.07 216.658 196.474 215.059 196.474 213.087C196.474 211.115 198.07 209.516 200.039 209.516C202.008 209.516 203.604 211.115 203.604 213.087C203.604 215.059 202.008 216.658 200.039 216.658Z" fill="#2353FE"/>
<path d="M219.052 216.658C217.084 216.658 215.487 215.059 215.487 213.087C215.487 211.115 217.084 209.516 219.052 209.516C221.021 209.516 222.617 211.115 222.617 213.087C222.617 215.059 221.021 216.658 219.052 216.658Z" fill="#2353FE"/>
<path d="M238.066 216.658C236.097 216.658 234.501 215.059 234.501 213.087C234.501 211.115 236.097 209.516 238.066 209.516C240.035 209.516 241.631 211.115 241.631 213.087C241.631 215.059 240.035 216.658 238.066 216.658Z" fill="#2353FE"/>
<path d="M257.08 216.658C255.111 216.658 253.515 215.059 253.515 213.087C253.515 211.115 255.111 209.516 257.08 209.516C259.049 209.516 260.645 211.115 260.645 213.087C260.645 215.059 259.049 216.658 257.08 216.658Z" fill="#2353FE"/>
<path d="M276.093 216.658C274.124 216.658 272.528 215.059 272.528 213.087C272.528 211.115 274.124 209.516 276.093 209.516C278.062 209.516 279.658 211.115 279.658 213.087C279.658 215.059 278.062 216.658 276.093 216.658Z" fill="#2353FE"/>
<path d="M295.107 216.658C293.138 216.658 291.542 215.059 291.542 213.087C291.542 211.115 293.138 209.516 295.107 209.516C297.076 209.516 298.672 211.115 298.672 213.087C298.672 215.059 297.076 216.658 295.107 216.658Z" fill="#2353FE"/>
<path d="M314.12 216.658C312.151 216.658 310.555 215.059 310.555 213.087C310.555 211.115 312.151 209.516 314.12 209.516C316.089 209.516 317.685 211.115 317.685 213.087C317.685 215.059 316.089 216.658 314.12 216.658Z" fill="#2353FE"/>
<path d="M135.076 235.703C133.107 235.703 131.511 234.105 131.511 232.132C131.511 230.16 133.107 228.561 135.076 228.561C137.045 228.561 138.641 230.16 138.641 232.132C138.641 234.105 137.045 235.703 135.076 235.703Z" fill="#2353FE"/>
<path d="M154.089 235.703C152.12 235.703 150.524 234.105 150.524 232.132C150.524 230.16 152.12 228.561 154.089 228.561C156.058 228.561 157.654 230.16 157.654 232.132C157.654 234.105 156.058 235.703 154.089 235.703Z" fill="#2353FE"/>
<path d="M173.103 235.703C171.134 235.703 169.538 234.105 169.538 232.132C169.538 230.16 171.134 228.561 173.103 228.561C175.072 228.561 176.668 230.16 176.668 232.132C176.668 234.105 175.072 235.703 173.103 235.703Z" fill="#2353FE"/>
<path d="M192.117 235.703C190.148 235.703 188.551 234.105 188.551 232.132C188.551 230.16 190.148 228.561 192.117 228.561C194.085 228.561 195.682 230.16 195.682 232.132C195.682 234.105 194.085 235.703 192.117 235.703Z" fill="#2353FE"/>
<path d="M211.13 235.703C209.161 235.703 207.565 234.105 207.565 232.132C207.565 230.16 209.161 228.561 211.13 228.561C213.099 228.561 214.695 230.16 214.695 232.132C214.695 234.105 213.099 235.703 211.13 235.703Z" fill="#2353FE"/>
<path d="M230.144 235.703C228.175 235.703 226.579 234.105 226.579 232.132C226.579 230.16 228.175 228.561 230.144 228.561C232.113 228.561 233.709 230.16 233.709 232.132C233.709 234.105 232.113 235.703 230.144 235.703Z" fill="#2353FE"/>
<path d="M249.157 235.703C247.188 235.703 245.592 234.105 245.592 232.132C245.592 230.16 247.188 228.561 249.157 228.561C251.126 228.561 252.722 230.16 252.722 232.132C252.722 234.105 251.126 235.703 249.157 235.703Z" fill="#2353FE"/>
<path d="M268.171 235.703C266.202 235.703 264.606 234.105 264.606 232.132C264.606 230.16 266.202 228.561 268.171 228.561C270.14 228.561 271.736 230.16 271.736 232.132C271.736 234.105 270.14 235.703 268.171 235.703Z" fill="#2353FE"/>
<path d="M287.184 235.703C285.216 235.703 283.619 234.105 283.619 232.132C283.619 230.16 285.216 228.561 287.184 228.561C289.153 228.561 290.75 230.16 290.75 232.132C290.75 234.105 289.153 235.703 287.184 235.703Z" fill="#2353FE"/>
<path d="M306.198 235.703C304.229 235.703 302.633 234.105 302.633 232.132C302.633 230.16 304.229 228.561 306.198 228.561C308.167 228.561 309.763 230.16 309.763 232.132C309.763 234.105 308.167 235.703 306.198 235.703Z" fill="#2353FE"/>
<path d="M325.212 235.703C323.243 235.703 321.647 234.105 321.647 232.132C321.647 230.16 323.243 228.561 325.212 228.561C327.181 228.561 328.777 230.16 328.777 232.132C328.777 234.105 327.181 235.703 325.212 235.703Z" fill="#2353FE"/>
<path d="M146.167 254.749C144.198 254.749 142.602 253.15 142.602 251.178C142.602 249.205 144.198 247.607 146.167 247.607C148.136 247.607 149.732 249.205 149.732 251.178C149.732 253.15 148.136 254.749 146.167 254.749Z" fill="#2353FE"/>
<path d="M165.181 254.749C163.212 254.749 161.616 253.15 161.616 251.178C161.616 249.205 163.212 247.607 165.181 247.607C167.15 247.607 168.746 249.205 168.746 251.178C168.746 253.15 167.15 254.749 165.181 254.749Z" fill="#2353FE"/>
<path d="M184.194 254.749C182.225 254.749 180.629 253.15 180.629 251.178C180.629 249.205 182.225 247.607 184.194 247.607C186.163 247.607 187.759 249.205 187.759 251.178C187.759 253.15 186.163 254.749 184.194 254.749Z" fill="#2353FE"/>
<path d="M203.208 254.749C201.239 254.749 199.643 253.15 199.643 251.178C199.643 249.205 201.239 247.607 203.208 247.607C205.177 247.607 206.773 249.205 206.773 251.178C206.773 253.15 205.177 254.749 203.208 254.749Z" fill="#2353FE"/>
<path d="M222.221 254.749C220.252 254.749 218.656 253.15 218.656 251.178C218.656 249.205 220.252 247.607 222.221 247.607C224.19 247.607 225.786 249.205 225.786 251.178C225.786 253.15 224.19 254.749 222.221 254.749Z" fill="#2353FE"/>
<path d="M241.235 254.749C239.266 254.749 237.67 253.15 237.67 251.178C237.67 249.205 239.266 247.607 241.235 247.607C243.204 247.607 244.8 249.205 244.8 251.178C244.8 253.15 243.204 254.749 241.235 254.749Z" fill="#2353FE"/>
<path d="M260.249 254.749C258.28 254.749 256.684 253.15 256.684 251.178C256.684 249.205 258.28 247.607 260.249 247.607C262.217 247.607 263.814 249.205 263.814 251.178C263.814 253.15 262.217 254.749 260.249 254.749Z" fill="#2353FE"/>
<path d="M279.262 254.749C277.293 254.749 275.697 253.15 275.697 251.178C275.697 249.205 277.293 247.607 279.262 247.607C281.231 247.607 282.827 249.205 282.827 251.178C282.827 253.15 281.231 254.749 279.262 254.749Z" fill="#2353FE"/>
<path d="M298.276 254.749C296.307 254.749 294.711 253.15 294.711 251.178C294.711 249.205 296.307 247.607 298.276 247.607C300.245 247.607 301.841 249.205 301.841 251.178C301.841 253.15 300.245 254.749 298.276 254.749Z" fill="#2353FE"/>
<path d="M317.289 254.749C315.32 254.749 313.724 253.15 313.724 251.178C313.724 249.205 315.32 247.607 317.289 247.607C319.258 247.607 320.854 249.205 320.854 251.178C320.854 253.15 319.258 254.749 317.289 254.749Z" fill="#2353FE"/>
<path d="M336.303 254.749C334.334 254.749 332.738 253.15 332.738 251.178C332.738 249.205 334.334 247.607 336.303 247.607C338.272 247.607 339.868 249.205 339.868 251.178C339.868 253.15 338.272 254.749 336.303 254.749Z" fill="#2353FE"/>
<path d="M157.258 273.794C155.289 273.794 153.693 272.195 153.693 270.223C153.693 268.251 155.289 266.652 157.258 266.652C159.227 266.652 160.823 268.251 160.823 270.223C160.823 272.195 159.227 273.794 157.258 273.794Z" fill="#2353FE"/>
<path d="M176.272 273.794C174.303 273.794 172.707 272.195 172.707 270.223C172.707 268.251 174.303 266.652 176.272 266.652C178.241 266.652 179.837 268.251 179.837 270.223C179.837 272.195 178.241 273.794 176.272 273.794Z" fill="#2353FE"/>
<path d="M195.285 273.794C193.317 273.794 191.72 272.195 191.72 270.223C191.72 268.251 193.317 266.652 195.285 266.652C197.254 266.652 198.85 268.251 198.85 270.223C198.85 272.195 197.254 273.794 195.285 273.794Z" fill="#2353FE"/>
<path d="M214.299 273.794C212.33 273.794 210.734 272.195 210.734 270.223C210.734 268.251 212.33 266.652 214.299 266.652C216.268 266.652 217.864 268.251 217.864 270.223C217.864 272.195 216.268 273.794 214.299 273.794Z" fill="#2353FE"/>
<path d="M233.313 273.794C231.344 273.794 229.748 272.195 229.748 270.223C229.748 268.251 231.344 266.652 233.313 266.652C235.282 266.652 236.878 268.251 236.878 270.223C236.878 272.195 235.282 273.794 233.313 273.794Z" fill="#2353FE"/>
<path d="M252.326 273.794C250.357 273.794 248.761 272.195 248.761 270.223C248.761 268.251 250.357 266.652 252.326 266.652C254.295 266.652 255.891 268.251 255.891 270.223C255.891 272.195 254.295 273.794 252.326 273.794Z" fill="#2353FE"/>
<path d="M271.34 273.794C269.371 273.794 267.775 272.195 267.775 270.223C267.775 268.251 269.371 266.652 271.34 266.652C273.309 266.652 274.905 268.251 274.905 270.223C274.905 272.195 273.309 273.794 271.34 273.794Z" fill="#2353FE"/>
<path d="M290.353 273.794C288.384 273.794 286.788 272.195 286.788 270.223C286.788 268.251 288.384 266.652 290.353 266.652C292.322 266.652 293.918 268.251 293.918 270.223C293.918 272.195 292.322 273.794 290.353 273.794Z" fill="#2353FE"/>
<path d="M309.367 273.794C307.398 273.794 305.802 272.195 305.802 270.223C305.802 268.251 307.398 266.652 309.367 266.652C311.336 266.652 312.932 268.251 312.932 270.223C312.932 272.195 311.336 273.794 309.367 273.794Z" fill="#2353FE"/>
<path d="M328.381 273.794C326.412 273.794 324.816 272.195 324.816 270.223C324.816 268.251 326.412 266.652 328.381 266.652C330.349 266.652 331.946 268.251 331.946 270.223C331.946 272.195 330.349 273.794 328.381 273.794Z" fill="#2353FE"/>
<path d="M347.394 273.794C345.425 273.794 343.829 272.195 343.829 270.223C343.829 268.251 345.425 266.652 347.394 266.652C349.363 266.652 350.959 268.251 350.959 270.223C350.959 272.195 349.363 273.794 347.394 273.794Z" fill="#2353FE"/>
<path d="M169.934 292.839C167.965 292.839 166.369 291.24 166.369 289.268C166.369 287.296 167.965 285.697 169.934 285.697C171.903 285.697 173.499 287.296 173.499 289.268C173.499 291.24 171.903 292.839 169.934 292.839Z" fill="#2353FE"/>
<path d="M188.948 292.839C186.979 292.839 185.383 291.24 185.383 289.268C185.383 287.296 186.979 285.697 188.948 285.697C190.917 285.697 192.513 287.296 192.513 289.268C192.513 291.24 190.917 292.839 188.948 292.839Z" fill="#2353FE"/>
<path d="M207.961 292.839C205.992 292.839 204.396 291.24 204.396 289.268C204.396 287.296 205.992 285.697 207.961 285.697C209.93 285.697 211.526 287.296 211.526 289.268C211.526 291.24 209.93 292.839 207.961 292.839Z" fill="#2353FE"/>
<path d="M226.975 292.839C225.006 292.839 223.41 291.24 223.41 289.268C223.41 287.296 225.006 285.697 226.975 285.697C228.944 285.697 230.54 287.296 230.54 289.268C230.54 291.24 228.944 292.839 226.975 292.839Z" fill="#2353FE"/>
<path d="M245.988 292.839C244.019 292.839 242.423 291.24 242.423 289.268C242.423 287.296 244.019 285.697 245.988 285.697C247.957 285.697 249.553 287.296 249.553 289.268C249.553 291.24 247.957 292.839 245.988 292.839Z" fill="#2353FE"/>
<path d="M265.002 292.839C263.033 292.839 261.437 291.24 261.437 289.268C261.437 287.296 263.033 285.697 265.002 285.697C266.971 285.697 268.567 287.296 268.567 289.268C268.567 291.24 266.971 292.839 265.002 292.839Z" fill="#2353FE"/>
<path d="M284.016 292.839C282.047 292.839 280.45 291.24 280.45 289.268C280.45 287.296 282.047 285.697 284.016 285.697C285.984 285.697 287.581 287.296 287.581 289.268C287.581 291.24 285.984 292.839 284.016 292.839Z" fill="#2353FE"/>
<path d="M303.029 292.839C301.06 292.839 299.464 291.24 299.464 289.268C299.464 287.296 301.06 285.697 303.029 285.697C304.998 285.697 306.594 287.296 306.594 289.268C306.594 291.24 304.998 292.839 303.029 292.839Z" fill="#2353FE"/>
<path d="M322.043 292.839C320.074 292.839 318.478 291.24 318.478 289.268C318.478 287.296 320.074 285.697 322.043 285.697C324.012 285.697 325.608 287.296 325.608 289.268C325.608 291.24 324.012 292.839 322.043 292.839Z" fill="#2353FE"/>
<path d="M341.056 292.839C339.087 292.839 337.491 291.24 337.491 289.268C337.491 287.296 339.087 285.697 341.056 285.697C343.025 285.697 344.621 287.296 344.621 289.268C344.621 291.24 343.025 292.839 341.056 292.839Z" fill="#2353FE"/>
<path d="M360.07 292.839C358.101 292.839 356.505 291.24 356.505 289.268C356.505 287.296 358.101 285.697 360.07 285.697C362.039 285.697 363.635 287.296 363.635 289.268C363.635 291.24 362.039 292.839 360.07 292.839Z" fill="#2353FE"/>
<path d="M181.025 311.884C179.056 311.884 177.46 310.285 177.46 308.313C177.46 306.341 179.056 304.742 181.025 304.742C182.994 304.742 184.59 306.341 184.59 308.313C184.59 310.285 182.994 311.884 181.025 311.884Z" fill="#2353FE"/>
<path d="M200.039 311.884C198.07 311.884 196.474 310.285 196.474 308.313C196.474 306.341 198.07 304.742 200.039 304.742C202.008 304.742 203.604 306.341 203.604 308.313C203.604 310.285 202.008 311.884 200.039 311.884Z" fill="#2353FE"/>
<path d="M219.052 311.884C217.084 311.884 215.487 310.285 215.487 308.313C215.487 306.341 217.084 304.742 219.052 304.742C221.021 304.742 222.617 306.341 222.617 308.313C222.617 310.285 221.021 311.884 219.052 311.884Z" fill="#2353FE"/>
<path d="M238.066 311.884C236.097 311.884 234.501 310.285 234.501 308.313C234.501 306.341 236.097 304.742 238.066 304.742C240.035 304.742 241.631 306.341 241.631 308.313C241.631 310.285 240.035 311.884 238.066 311.884Z" fill="#2353FE"/>
<path d="M257.08 311.884C255.111 311.884 253.515 310.285 253.515 308.313C253.515 306.341 255.111 304.742 257.08 304.742C259.049 304.742 260.645 306.341 260.645 308.313C260.645 310.285 259.049 311.884 257.08 311.884Z" fill="#2353FE"/>
<path d="M276.093 311.884C274.124 311.884 272.528 310.285 272.528 308.313C272.528 306.341 274.124 304.742 276.093 304.742C278.062 304.742 279.658 306.341 279.658 308.313C279.658 310.285 278.062 311.884 276.093 311.884Z" fill="#2353FE"/>
<path d="M295.107 311.884C293.138 311.884 291.542 310.285 291.542 308.313C291.542 306.341 293.138 304.742 295.107 304.742C297.076 304.742 298.672 306.341 298.672 308.313C298.672 310.285 297.076 311.884 295.107 311.884Z" fill="#2353FE"/>
<path d="M314.12 311.884C312.151 311.884 310.555 310.285 310.555 308.313C310.555 306.341 312.151 304.742 314.12 304.742C316.089 304.742 317.685 306.341 317.685 308.313C317.685 310.285 316.089 311.884 314.12 311.884Z" fill="#2353FE"/>
<path d="M333.134 311.884C331.165 311.884 329.569 310.285 329.569 308.313C329.569 306.341 331.165 304.742 333.134 304.742C335.103 304.742 336.699 306.341 336.699 308.313C336.699 310.285 335.103 311.884 333.134 311.884Z" fill="#2353FE"/>
<path d="M352.148 311.884C350.179 311.884 348.583 310.285 348.583 308.313C348.583 306.341 350.179 304.742 352.148 304.742C354.116 304.742 355.713 306.341 355.713 308.313C355.713 310.285 354.116 311.884 352.148 311.884Z" fill="#2353FE"/>
<path d="M371.161 311.884C369.192 311.884 367.596 310.285 367.596 308.313C367.596 306.341 369.192 304.742 371.161 304.742C373.13 304.742 374.726 306.341 374.726 308.313C374.726 310.285 373.13 311.884 371.161 311.884Z" fill="#2353FE"/>
<path d="M192.117 330.929C190.148 330.929 188.551 329.33 188.551 327.358C188.551 325.386 190.148 323.787 192.117 323.787C194.085 323.787 195.682 325.386 195.682 327.358C195.682 329.33 194.085 330.929 192.117 330.929Z" fill="#2353FE"/>
<path d="M211.13 330.929C209.161 330.929 207.565 329.33 207.565 327.358C207.565 325.386 209.161 323.787 211.13 323.787C213.099 323.787 214.695 325.386 214.695 327.358C214.695 329.33 213.099 330.929 211.13 330.929Z" fill="#2353FE"/>
<path d="M230.144 330.929C228.175 330.929 226.579 329.33 226.579 327.358C226.579 325.386 228.175 323.787 230.144 323.787C232.113 323.787 233.709 325.386 233.709 327.358C233.709 329.33 232.113 330.929 230.144 330.929Z" fill="#2353FE"/>
<path d="M249.157 330.929C247.188 330.929 245.592 329.33 245.592 327.358C245.592 325.386 247.188 323.787 249.157 323.787C251.126 323.787 252.722 325.386 252.722 327.358C252.722 329.33 251.126 330.929 249.157 330.929Z" fill="#2353FE"/>
<path d="M268.171 330.929C266.202 330.929 264.606 329.33 264.606 327.358C264.606 325.386 266.202 323.787 268.171 323.787C270.14 323.787 271.736 325.386 271.736 327.358C271.736 329.33 270.14 330.929 268.171 330.929Z" fill="#2353FE"/>
<path d="M287.184 330.929C285.216 330.929 283.619 329.33 283.619 327.358C283.619 325.386 285.216 323.787 287.184 323.787C289.153 323.787 290.75 325.386 290.75 327.358C290.75 329.33 289.153 330.929 287.184 330.929Z" fill="#2353FE"/>
<path d="M306.198 330.929C304.229 330.929 302.633 329.33 302.633 327.358C302.633 325.386 304.229 323.787 306.198 323.787C308.167 323.787 309.763 325.386 309.763 327.358C309.763 329.33 308.167 330.929 306.198 330.929Z" fill="#2353FE"/>
<path d="M325.212 330.929C323.243 330.929 321.647 329.33 321.647 327.358C321.647 325.386 323.243 323.787 325.212 323.787C327.181 323.787 328.777 325.386 328.777 327.358C328.777 329.33 327.181 330.929 325.212 330.929Z" fill="#2353FE"/>
<path d="M344.225 330.929C342.256 330.929 340.66 329.33 340.66 327.358C340.66 325.386 342.256 323.787 344.225 323.787C346.194 323.787 347.79 325.386 347.79 327.358C347.79 329.33 346.194 330.929 344.225 330.929Z" fill="#2353FE"/>
<path d="M363.239 330.929C361.27 330.929 359.674 329.33 359.674 327.358C359.674 325.386 361.27 323.787 363.239 323.787C365.208 323.787 366.804 325.386 366.804 327.358C366.804 329.33 365.208 330.929 363.239 330.929Z" fill="#2353FE"/>
<path d="M382.252 330.929C380.283 330.929 378.687 329.33 378.687 327.358C378.687 325.386 380.283 323.787 382.252 323.787C384.221 323.787 385.817 325.386 385.817 327.358C385.817 329.33 384.221 330.929 382.252 330.929Z" fill="#2353FE"/>
<path d="M203.208 349.974C201.239 349.974 199.643 348.376 199.643 346.403C199.643 344.431 201.239 342.832 203.208 342.832C205.177 342.832 206.773 344.431 206.773 346.403C206.773 348.376 205.177 349.974 203.208 349.974Z" fill="#2353FE"/>
<path d="M222.221 349.974C220.252 349.974 218.656 348.376 218.656 346.403C218.656 344.431 220.252 342.832 222.221 342.832C224.19 342.832 225.786 344.431 225.786 346.403C225.786 348.376 224.19 349.974 222.221 349.974Z" fill="#2353FE"/>
<path d="M241.235 349.974C239.266 349.974 237.67 348.376 237.67 346.403C237.67 344.431 239.266 342.832 241.235 342.832C243.204 342.832 244.8 344.431 244.8 346.403C244.8 348.376 243.204 349.974 241.235 349.974Z" fill="#2353FE"/>
<path d="M260.249 349.974C258.28 349.974 256.684 348.376 256.684 346.403C256.684 344.431 258.28 342.832 260.249 342.832C262.217 342.832 263.814 344.431 263.814 346.403C263.814 348.376 262.217 349.974 260.249 349.974Z" fill="#2353FE"/>
<path d="M279.262 349.974C277.293 349.974 275.697 348.376 275.697 346.403C275.697 344.431 277.293 342.832 279.262 342.832C281.231 342.832 282.827 344.431 282.827 346.403C282.827 348.376 281.231 349.974 279.262 349.974Z" fill="#2353FE"/>
<path d="M298.276 349.974C296.307 349.974 294.711 348.376 294.711 346.403C294.711 344.431 296.307 342.832 298.276 342.832C300.245 342.832 301.841 344.431 301.841 346.403C301.841 348.376 300.245 349.974 298.276 349.974Z" fill="#2353FE"/>
<path d="M317.289 349.974C315.32 349.974 313.724 348.376 313.724 346.403C313.724 344.431 315.32 342.832 317.289 342.832C319.258 342.832 320.854 344.431 320.854 346.403C320.854 348.376 319.258 349.974 317.289 349.974Z" fill="#2353FE"/>
<path d="M336.303 349.974C334.334 349.974 332.738 348.376 332.738 346.403C332.738 344.431 334.334 342.832 336.303 342.832C338.272 342.832 339.868 344.431 339.868 346.403C339.868 348.376 338.272 349.974 336.303 349.974Z" fill="#2353FE"/>
<path d="M355.316 349.974C353.348 349.974 351.751 348.376 351.751 346.403C351.751 344.431 353.348 342.832 355.316 342.832C357.285 342.832 358.882 344.431 358.882 346.403C358.882 348.376 357.285 349.974 355.316 349.974Z" fill="#2353FE"/>
<path d="M374.33 349.974C372.361 349.974 370.765 348.376 370.765 346.403C370.765 344.431 372.361 342.832 374.33 342.832C376.299 342.832 377.895 344.431 377.895 346.403C377.895 348.376 376.299 349.974 374.33 349.974Z" fill="#2353FE"/>
<path d="M393.344 349.974C391.375 349.974 389.779 348.376 389.779 346.403C389.779 344.431 391.375 342.832 393.344 342.832C395.313 342.832 396.909 344.431 396.909 346.403C396.909 348.376 395.313 349.974 393.344 349.974Z" fill="#2353FE"/>
<path d="M214.299 369.02C212.33 369.02 210.734 367.421 210.734 365.449C210.734 363.476 212.33 361.878 214.299 361.878C216.268 361.878 217.864 363.476 217.864 365.449C217.864 367.421 216.268 369.02 214.299 369.02Z" fill="#2353FE"/>
<path d="M233.313 369.02C231.344 369.02 229.748 367.421 229.748 365.449C229.748 363.476 231.344 361.878 233.313 361.878C235.282 361.878 236.878 363.476 236.878 365.449C236.878 367.421 235.282 369.02 233.313 369.02Z" fill="#2353FE"/>
<path d="M252.326 369.02C250.357 369.02 248.761 367.421 248.761 365.449C248.761 363.476 250.357 361.878 252.326 361.878C254.295 361.878 255.891 363.476 255.891 365.449C255.891 367.421 254.295 369.02 252.326 369.02Z" fill="#2353FE"/>
<path d="M271.34 369.02C269.371 369.02 267.775 367.421 267.775 365.449C267.775 363.476 269.371 361.878 271.34 361.878C273.309 361.878 274.905 363.476 274.905 365.449C274.905 367.421 273.309 369.02 271.34 369.02Z" fill="#2353FE"/>
<path d="M290.353 369.02C288.384 369.02 286.788 367.421 286.788 365.449C286.788 363.476 288.384 361.878 290.353 361.878C292.322 361.878 293.918 363.476 293.918 365.449C293.918 367.421 292.322 369.02 290.353 369.02Z" fill="#2353FE"/>
<path d="M309.367 369.02C307.398 369.02 305.802 367.421 305.802 365.449C305.802 363.476 307.398 361.878 309.367 361.878C311.336 361.878 312.932 363.476 312.932 365.449C312.932 367.421 311.336 369.02 309.367 369.02Z" fill="#2353FE"/>
<path d="M328.381 369.02C326.412 369.02 324.816 367.421 324.816 365.449C324.816 363.476 326.412 361.878 328.381 361.878C330.349 361.878 331.946 363.476 331.946 365.449C331.946 367.421 330.349 369.02 328.381 369.02Z" fill="#2353FE"/>
<path d="M347.394 369.02C345.425 369.02 343.829 367.421 343.829 365.449C343.829 363.476 345.425 361.878 347.394 361.878C349.363 361.878 350.959 363.476 350.959 365.449C350.959 367.421 349.363 369.02 347.394 369.02Z" fill="#2353FE"/>
<path d="M366.408 369.02C364.439 369.02 362.843 367.421 362.843 365.449C362.843 363.476 364.439 361.878 366.408 361.878C368.377 361.878 369.973 363.476 369.973 365.449C369.973 367.421 368.377 369.02 366.408 369.02Z" fill="#2353FE"/>
<path d="M385.421 369.02C383.452 369.02 381.856 367.421 381.856 365.449C381.856 363.476 383.452 361.878 385.421 361.878C387.39 361.878 388.986 363.476 388.986 365.449C388.986 367.421 387.39 369.02 385.421 369.02Z" fill="#2353FE"/>
<path d="M404.435 369.02C402.466 369.02 400.87 367.421 400.87 365.449C400.87 363.476 402.466 361.878 404.435 361.878C406.404 361.878 408 363.476 408 365.449C408 367.421 406.404 369.02 404.435 369.02Z" fill="#2353FE"/>
</g>
</svg>
