<svg width="1565" height="273" viewBox="0 0 1565 273" fill="none" xmlns="http://www.w3.org/2000/svg">
<g opacity="0.95">
<path d="M1428.91 2.10352C1502.92 2.10351 1562.91 62.0974 1562.91 136.104C1562.91 210.11 1502.92 270.104 1428.91 270.104L1428.91 272.104C1504.02 272.104 1564.91 211.214 1564.91 136.104C1564.91 60.9928 1504.02 0.103512 1428.91 0.103516L1428.91 2.10352Z" fill="#56d7b8"/>
<path d="M1428.91 8.10352C1499.6 8.10351 1556.91 65.4111 1556.91 136.104C1556.91 206.796 1499.6 264.104 1428.91 264.104L1428.91 262.104C1498.5 262.104 1554.91 205.691 1554.91 136.104C1554.91 66.5156 1498.5 10.1035 1428.91 10.1035L1428.91 8.10352Z" fill="#56d7b8"/>
<path d="M1428.91 16.1035C1495.19 16.1035 1548.91 69.8293 1548.91 136.104C1548.91 202.378 1495.19 256.104 1428.91 256.104L1428.91 254.104C1494.08 254.104 1546.91 201.273 1546.91 136.104C1546.91 70.9339 1494.08 18.1035 1428.91 18.1035L1428.91 16.1035Z" fill="#56d7b8"/>
<path d="M1428.91 24.1035C1490.77 24.1035 1540.91 74.2476 1540.91 136.104C1540.91 197.959 1490.77 248.104 1428.91 248.104L1428.91 246.104C1489.66 246.104 1538.91 196.855 1538.91 136.104C1538.91 75.3522 1489.66 26.1035 1428.91 26.1035L1428.91 24.1035Z" fill="#56d7b8"/>
<path d="M1428.91 32.1035C1486.35 32.1035 1532.91 78.6659 1532.91 136.104C1532.91 193.541 1486.35 240.104 1428.91 240.104L1428.91 238.104C1485.25 238.104 1530.91 192.437 1530.91 136.104C1530.91 79.7705 1485.25 34.1035 1428.91 34.1035L1428.91 32.1035Z" fill="#56d7b8"/>
<path d="M1428.91 40.1035C1481.93 40.1035 1524.91 83.0842 1524.91 136.104C1524.91 189.123 1481.93 232.104 1428.91 232.104L1428.91 230.104C1480.83 230.104 1522.91 188.018 1522.91 136.104C1522.91 84.1887 1480.83 42.1035 1428.91 42.1035L1428.91 40.1035Z" fill="#56d7b8"/>
<path d="M1428.91 224.104C1477.51 224.104 1516.91 184.705 1516.91 136.104C1516.91 87.5025 1477.51 48.1035 1428.91 48.1035L1428.91 50.1035C1476.41 50.1035 1514.91 88.607 1514.91 136.104C1514.91 183.6 1476.41 222.104 1428.91 222.104L1428.91 224.104Z" fill="#56d7b8"/>
<path d="M1428.91 216.104C1473.09 216.104 1508.91 180.286 1508.91 136.104C1508.91 91.9207 1473.09 56.1035 1428.91 56.1035L1428.91 58.1035C1471.99 58.1035 1506.91 93.0253 1506.91 136.104C1506.91 179.182 1471.99 214.104 1428.91 214.104L1428.91 216.104Z" fill="#56d7b8"/>
<path d="M1428.91 208.104C1468.68 208.104 1500.91 175.868 1500.91 136.104C1500.91 96.339 1468.68 64.1035 1428.91 64.1035L1428.91 66.1035C1467.57 66.1035 1498.91 97.4436 1498.91 136.104C1498.91 174.763 1467.57 206.104 1428.91 206.104L1428.91 208.104Z" fill="#56d7b8"/>
<path d="M1428.91 200.104C1464.26 200.104 1492.91 171.45 1492.91 136.104C1492.91 100.757 1464.26 72.1035 1428.91 72.1035L1428.91 74.1035C1463.15 74.1035 1490.91 101.862 1490.91 136.104C1490.91 170.345 1463.15 198.104 1428.91 198.104L1428.91 200.104Z" fill="#56d7b8"/>
<path d="M1428.91 192.104C1459.84 192.104 1484.91 167.031 1484.91 136.104C1484.91 105.176 1459.84 80.1035 1428.91 80.1035L1428.91 82.1035C1458.74 82.1035 1482.91 106.28 1482.91 136.104C1482.91 165.927 1458.74 190.104 1428.91 190.104L1428.91 192.104Z" fill="#56d7b8"/>
<path d="M1428.91 184.104C1455.42 184.104 1476.91 162.613 1476.91 136.104C1476.91 109.594 1455.42 88.1035 1428.91 88.1035L1428.91 90.1035C1454.32 90.1035 1474.91 110.698 1474.91 136.104C1474.91 161.509 1454.32 182.104 1428.91 182.104L1428.91 184.104Z" fill="#56d7b8"/>
<path d="M1428.91 176.104C1451 176.104 1468.91 158.195 1468.91 136.104C1468.91 114.012 1451 96.1035 1428.91 96.1035L1428.91 98.1035C1449.9 98.1035 1466.91 115.117 1466.91 136.104C1466.91 157.09 1449.9 174.104 1428.91 174.104L1428.91 176.104Z" fill="#56d7b8"/>
<path d="M1428.91 168.104C1446.59 168.104 1460.91 153.777 1460.91 136.104C1460.91 118.43 1446.59 104.104 1428.91 104.104L1428.91 106.104C1445.48 106.104 1458.91 119.535 1458.91 136.104C1458.91 152.672 1445.48 166.104 1428.91 166.104L1428.91 168.104Z" fill="#56d7b8"/>
<path d="M1428.91 160.104C1442.17 160.104 1452.91 149.358 1452.91 136.104C1452.91 122.849 1442.17 112.104 1428.91 112.104L1428.91 114.104C1441.06 114.104 1450.91 123.953 1450.91 136.104C1450.91 148.254 1441.06 158.104 1428.91 158.104L1428.91 160.104Z" fill="#56d7b8"/>
<path d="M1428.91 152.104C1437.75 152.104 1444.91 144.94 1444.91 136.104C1444.91 127.267 1437.75 120.104 1428.91 120.104L1428.91 122.104C1436.64 122.104 1442.91 128.372 1442.91 136.104C1442.91 143.835 1436.64 150.104 1428.91 150.104L1428.91 152.104Z" fill="#56d7b8"/>
<path d="M1428.91 144.104C1433.33 144.104 1436.91 140.522 1436.91 136.104C1436.91 131.685 1433.33 128.104 1428.91 128.104L1428.91 130.104C1432.23 130.104 1434.91 132.79 1434.91 136.104C1434.91 139.417 1432.23 142.104 1428.91 142.104L1428.91 144.104Z" fill="#56d7b8"/>
</g>
<g opacity="0.95">
<path d="M1429.09 0.103516L1429.09 2.10352L0.204346 2.10345L0.204346 0.103453L1429.09 0.103516Z" fill="url(#paint0_linear_154_2788)"/>
<path d="M1429.09 8.10352L1429.09 10.1035L0.204345 10.1035L0.204345 8.10345L1429.09 8.10352Z" fill="url(#paint1_linear_154_2788)"/>
<path d="M1429.09 16.1035L1429.09 18.1035L0.204345 18.1035L0.204345 16.1035L1429.09 16.1035Z" fill="url(#paint2_linear_154_2788)"/>
<path d="M1429.09 24.1035L1429.09 26.1035L0.204345 26.1035L0.204345 24.1035L1429.09 24.1035Z" fill="url(#paint3_linear_154_2788)"/>
<path d="M1429.09 32.1035L1429.09 34.1035L0.204344 34.1035L0.204344 32.1035L1429.09 32.1035Z" fill="url(#paint4_linear_154_2788)"/>
<path d="M1429.09 40.1035L1429.09 42.1035L0.204344 42.1035L0.204344 40.1035L1429.09 40.1035Z" fill="url(#paint5_linear_154_2788)"/>
<path d="M1429.09 48.1035L1429.09 50.1035L0.204344 50.1035L0.204344 48.1035L1429.09 48.1035Z" fill="url(#paint6_linear_154_2788)"/>
<path d="M1429.09 56.1035L1429.09 58.1035L0.204343 58.1035L0.204343 56.1035L1429.09 56.1035Z" fill="url(#paint7_linear_154_2788)"/>
<path d="M1429.09 64.1035L1429.09 66.1035L0.204343 66.1035L0.204343 64.1035L1429.09 64.1035Z" fill="url(#paint8_linear_154_2788)"/>
<path d="M1429.09 72.1035L1429.09 74.1035L0.204342 74.1035L0.204343 72.1035L1429.09 72.1035Z" fill="url(#paint9_linear_154_2788)"/>
<path d="M1429.09 80.1035L1429.09 82.1035L0.204342 82.1035L0.204342 80.1035L1429.09 80.1035Z" fill="url(#paint10_linear_154_2788)"/>
<path d="M1429.09 88.1035L1429.09 90.1035L0.204342 90.1035L0.204342 88.1035L1429.09 88.1035Z" fill="url(#paint11_linear_154_2788)"/>
<path d="M1429.09 96.1035L1429.09 98.1035L0.204341 98.1035L0.204342 96.1035L1429.09 96.1035Z" fill="url(#paint12_linear_154_2788)"/>
<path d="M1429.09 104.104L1429.09 106.104L0.204341 106.103L0.204341 104.103L1429.09 104.104Z" fill="url(#paint13_linear_154_2788)"/>
<path d="M1429.09 112.104L1429.09 114.104L0.204341 114.103L0.204341 112.103L1429.09 112.104Z" fill="url(#paint14_linear_154_2788)"/>
<path d="M1429.09 120.104L1429.09 122.104L0.20434 122.103L0.20434 120.103L1429.09 120.104Z" fill="url(#paint15_linear_154_2788)"/>
<path d="M1429.09 128.104L1429.09 130.104L0.20434 130.103L0.20434 128.103L1429.09 128.104Z" fill="url(#paint16_linear_154_2788)"/>
</g>
<g opacity="0.95">
<path d="M1429.09 142.104L1429.09 144.104L1368.09 144.104L1368.09 142.104L1429.09 142.104Z" fill="url(#paint17_linear_154_2788)"/>
<path d="M1429.09 150.104L1429.09 152.104L1368.09 152.104L1368.09 150.104L1429.09 150.104Z" fill="url(#paint18_linear_154_2788)"/>
<path d="M1429.09 158.104L1429.09 160.104L1368.09 160.104L1368.09 158.104L1429.09 158.104Z" fill="url(#paint19_linear_154_2788)"/>
<path d="M1429.09 166.104L1429.09 168.104L1368.09 168.104L1368.09 166.104L1429.09 166.104Z" fill="url(#paint20_linear_154_2788)"/>
<path d="M1429.09 174.104L1429.09 176.104L1368.09 176.104L1368.09 174.104L1429.09 174.104Z" fill="url(#paint21_linear_154_2788)"/>
<path d="M1429.09 182.104L1429.09 184.104L1368.09 184.104L1368.09 182.104L1429.09 182.104Z" fill="url(#paint22_linear_154_2788)"/>
<path d="M1429.09 190.104L1429.09 192.104L1368.09 192.104L1368.09 190.104L1429.09 190.104Z" fill="url(#paint23_linear_154_2788)"/>
<path d="M1429.09 198.104L1429.09 200.104L1368.09 200.104L1368.09 198.104L1429.09 198.104Z" fill="url(#paint24_linear_154_2788)"/>
<path d="M1429.09 206.104L1429.09 208.104L1368.09 208.104L1368.09 206.104L1429.09 206.104Z" fill="url(#paint25_linear_154_2788)"/>
<path d="M1429.09 214.104L1429.09 216.104L1368.09 216.104L1368.09 214.104L1429.09 214.104Z" fill="url(#paint26_linear_154_2788)"/>
<path d="M1429.09 222.104L1429.09 224.104L1368.09 224.104L1368.09 222.104L1429.09 222.104Z" fill="url(#paint27_linear_154_2788)"/>
<path d="M1429.09 230.104L1429.09 232.104L1368.09 232.104L1368.09 230.104L1429.09 230.104Z" fill="url(#paint28_linear_154_2788)"/>
<path d="M1429.09 238.104L1429.09 240.104L1368.09 240.104L1368.09 238.104L1429.09 238.104Z" fill="url(#paint29_linear_154_2788)"/>
<path d="M1429.09 246.104L1429.09 248.104L1368.09 248.104L1368.09 246.104L1429.09 246.104Z" fill="url(#paint30_linear_154_2788)"/>
<path d="M1429.09 254.104L1429.09 256.104L1368.09 256.104L1368.09 254.104L1429.09 254.104Z" fill="url(#paint31_linear_154_2788)"/>
<path d="M1429.09 262.104L1429.09 264.104L1368.09 264.104L1368.09 262.104L1429.09 262.104Z" fill="url(#paint32_linear_154_2788)"/>
<path d="M1429.09 270.104L1429.09 272.104L1368.09 272.104L1368.09 270.104L1429.09 270.104Z" fill="url(#paint33_linear_154_2788)"/>
</g>
<defs>
<linearGradient id="paint0_linear_154_2788" x1="1429.09" y1="65.1035" x2="525.154" y2="56.2222" gradientUnits="userSpaceOnUse">
<stop stop-color="#56d7b8"/>
<stop offset="1" stop-color="#56d7b8" stop-opacity="0"/>
</linearGradient>
<linearGradient id="paint1_linear_154_2788" x1="1429.09" y1="65.1035" x2="525.154" y2="56.2222" gradientUnits="userSpaceOnUse">
<stop stop-color="#56d7b8"/>
<stop offset="1" stop-color="#56d7b8" stop-opacity="0"/>
</linearGradient>
<linearGradient id="paint2_linear_154_2788" x1="1429.09" y1="65.1035" x2="525.154" y2="56.2222" gradientUnits="userSpaceOnUse">
<stop stop-color="#56d7b8"/>
<stop offset="1" stop-color="#56d7b8" stop-opacity="0"/>
</linearGradient>
<linearGradient id="paint3_linear_154_2788" x1="1429.09" y1="65.1035" x2="525.154" y2="56.2222" gradientUnits="userSpaceOnUse">
<stop stop-color="#56d7b8"/>
<stop offset="1" stop-color="#56d7b8" stop-opacity="0"/>
</linearGradient>
<linearGradient id="paint4_linear_154_2788" x1="1429.09" y1="65.1035" x2="525.154" y2="56.2222" gradientUnits="userSpaceOnUse">
<stop stop-color="#56d7b8"/>
<stop offset="1" stop-color="#56d7b8" stop-opacity="0"/>
</linearGradient>
<linearGradient id="paint5_linear_154_2788" x1="1429.09" y1="65.1035" x2="525.154" y2="56.2222" gradientUnits="userSpaceOnUse">
<stop stop-color="#56d7b8"/>
<stop offset="1" stop-color="#56d7b8" stop-opacity="0"/>
</linearGradient>
<linearGradient id="paint6_linear_154_2788" x1="1429.09" y1="65.1035" x2="525.154" y2="56.2222" gradientUnits="userSpaceOnUse">
<stop stop-color="#56d7b8"/>
<stop offset="1" stop-color="#56d7b8" stop-opacity="0"/>
</linearGradient>
<linearGradient id="paint7_linear_154_2788" x1="1429.09" y1="65.1035" x2="525.154" y2="56.2222" gradientUnits="userSpaceOnUse">
<stop stop-color="#56d7b8"/>
<stop offset="1" stop-color="#56d7b8" stop-opacity="0"/>
</linearGradient>
<linearGradient id="paint8_linear_154_2788" x1="1429.09" y1="65.1035" x2="525.154" y2="56.2222" gradientUnits="userSpaceOnUse">
<stop stop-color="#56d7b8"/>
<stop offset="1" stop-color="#56d7b8" stop-opacity="0"/>
</linearGradient>
<linearGradient id="paint9_linear_154_2788" x1="1429.09" y1="65.1035" x2="525.154" y2="56.2222" gradientUnits="userSpaceOnUse">
<stop stop-color="#56d7b8"/>
<stop offset="1" stop-color="#56d7b8" stop-opacity="0"/>
</linearGradient>
<linearGradient id="paint10_linear_154_2788" x1="1429.09" y1="65.1035" x2="525.154" y2="56.2222" gradientUnits="userSpaceOnUse">
<stop stop-color="#56d7b8"/>
<stop offset="1" stop-color="#56d7b8" stop-opacity="0"/>
</linearGradient>
<linearGradient id="paint11_linear_154_2788" x1="1429.09" y1="65.1035" x2="525.154" y2="56.2222" gradientUnits="userSpaceOnUse">
<stop stop-color="#56d7b8"/>
<stop offset="1" stop-color="#56d7b8" stop-opacity="0"/>
</linearGradient>
<linearGradient id="paint12_linear_154_2788" x1="1429.09" y1="65.1035" x2="525.154" y2="56.2222" gradientUnits="userSpaceOnUse">
<stop stop-color="#56d7b8"/>
<stop offset="1" stop-color="#56d7b8" stop-opacity="0"/>
</linearGradient>
<linearGradient id="paint13_linear_154_2788" x1="1429.09" y1="65.1035" x2="525.154" y2="56.2222" gradientUnits="userSpaceOnUse">
<stop stop-color="#56d7b8"/>
<stop offset="1" stop-color="#56d7b8" stop-opacity="0"/>
</linearGradient>
<linearGradient id="paint14_linear_154_2788" x1="1429.09" y1="65.1035" x2="525.154" y2="56.2222" gradientUnits="userSpaceOnUse">
<stop stop-color="#56d7b8"/>
<stop offset="1" stop-color="#56d7b8" stop-opacity="0"/>
</linearGradient>
<linearGradient id="paint15_linear_154_2788" x1="1429.09" y1="65.1035" x2="525.154" y2="56.2222" gradientUnits="userSpaceOnUse">
<stop stop-color="#56d7b8"/>
<stop offset="1" stop-color="#56d7b8" stop-opacity="0"/>
</linearGradient>
<linearGradient id="paint16_linear_154_2788" x1="1429.09" y1="65.1035" x2="525.154" y2="56.2222" gradientUnits="userSpaceOnUse">
<stop stop-color="#56d7b8"/>
<stop offset="1" stop-color="#56d7b8" stop-opacity="0"/>
</linearGradient>
<linearGradient id="paint17_linear_154_2788" x1="1429.09" y1="207.104" x2="1368.09" y2="207.104" gradientUnits="userSpaceOnUse">
<stop stop-color="#56d7b8"/>
<stop offset="1" stop-color="#56d7b8" stop-opacity="0"/>
</linearGradient>
<linearGradient id="paint18_linear_154_2788" x1="1429.09" y1="207.104" x2="1368.09" y2="207.104" gradientUnits="userSpaceOnUse">
<stop stop-color="#56d7b8"/>
<stop offset="1" stop-color="#56d7b8" stop-opacity="0"/>
</linearGradient>
<linearGradient id="paint19_linear_154_2788" x1="1429.09" y1="207.104" x2="1368.09" y2="207.104" gradientUnits="userSpaceOnUse">
<stop stop-color="#56d7b8"/>
<stop offset="1" stop-color="#56d7b8" stop-opacity="0"/>
</linearGradient>
<linearGradient id="paint20_linear_154_2788" x1="1429.09" y1="207.104" x2="1368.09" y2="207.104" gradientUnits="userSpaceOnUse">
<stop stop-color="#56d7b8"/>
<stop offset="1" stop-color="#56d7b8" stop-opacity="0"/>
</linearGradient>
<linearGradient id="paint21_linear_154_2788" x1="1429.09" y1="207.104" x2="1368.09" y2="207.104" gradientUnits="userSpaceOnUse">
<stop stop-color="#56d7b8"/>
<stop offset="1" stop-color="#56d7b8" stop-opacity="0"/>
</linearGradient>
<linearGradient id="paint22_linear_154_2788" x1="1429.09" y1="207.104" x2="1368.09" y2="207.104" gradientUnits="userSpaceOnUse">
<stop stop-color="#56d7b8"/>
<stop offset="1" stop-color="#56d7b8" stop-opacity="0"/>
</linearGradient>
<linearGradient id="paint23_linear_154_2788" x1="1429.09" y1="207.104" x2="1368.09" y2="207.104" gradientUnits="userSpaceOnUse">
<stop stop-color="#56d7b8"/>
<stop offset="1" stop-color="#56d7b8" stop-opacity="0"/>
</linearGradient>
<linearGradient id="paint24_linear_154_2788" x1="1429.09" y1="207.104" x2="1368.09" y2="207.104" gradientUnits="userSpaceOnUse">
<stop stop-color="#56d7b8"/>
<stop offset="1" stop-color="#56d7b8" stop-opacity="0"/>
</linearGradient>
<linearGradient id="paint25_linear_154_2788" x1="1429.09" y1="207.104" x2="1368.09" y2="207.104" gradientUnits="userSpaceOnUse">
<stop stop-color="#56d7b8"/>
<stop offset="1" stop-color="#56d7b8" stop-opacity="0"/>
</linearGradient>
<linearGradient id="paint26_linear_154_2788" x1="1429.09" y1="207.104" x2="1368.09" y2="207.104" gradientUnits="userSpaceOnUse">
<stop stop-color="#56d7b8"/>
<stop offset="1" stop-color="#56d7b8" stop-opacity="0"/>
</linearGradient>
<linearGradient id="paint27_linear_154_2788" x1="1429.09" y1="207.104" x2="1368.09" y2="207.104" gradientUnits="userSpaceOnUse">
<stop stop-color="#56d7b8"/>
<stop offset="1" stop-color="#56d7b8" stop-opacity="0"/>
</linearGradient>
<linearGradient id="paint28_linear_154_2788" x1="1429.09" y1="207.104" x2="1368.09" y2="207.104" gradientUnits="userSpaceOnUse">
<stop stop-color="#56d7b8"/>
<stop offset="1" stop-color="#56d7b8" stop-opacity="0"/>
</linearGradient>
<linearGradient id="paint29_linear_154_2788" x1="1429.09" y1="207.104" x2="1368.09" y2="207.104" gradientUnits="userSpaceOnUse">
<stop stop-color="#56d7b8"/>
<stop offset="1" stop-color="#56d7b8" stop-opacity="0"/>
</linearGradient>
<linearGradient id="paint30_linear_154_2788" x1="1429.09" y1="207.104" x2="1368.09" y2="207.104" gradientUnits="userSpaceOnUse">
<stop stop-color="#56d7b8"/>
<stop offset="1" stop-color="#56d7b8" stop-opacity="0"/>
</linearGradient>
<linearGradient id="paint31_linear_154_2788" x1="1429.09" y1="207.104" x2="1368.09" y2="207.104" gradientUnits="userSpaceOnUse">
<stop stop-color="#56d7b8"/>
<stop offset="1" stop-color="#56d7b8" stop-opacity="0"/>
</linearGradient>
<linearGradient id="paint32_linear_154_2788" x1="1429.09" y1="207.104" x2="1368.09" y2="207.104" gradientUnits="userSpaceOnUse">
<stop stop-color="#56d7b8"/>
<stop offset="1" stop-color="#56d7b8" stop-opacity="0"/>
</linearGradient>
<linearGradient id="paint33_linear_154_2788" x1="1429.09" y1="207.104" x2="1368.09" y2="207.104" gradientUnits="userSpaceOnUse">
<stop stop-color="#56d7b8"/>
<stop offset="1" stop-color="#56d7b8" stop-opacity="0"/>
</linearGradient>
</defs>
</svg>
